<?xml version="1.0" encoding="utf-8"?>
<!-- Generator: Adobe Illustrator 16.0.0, SVG Export Plug-In . SVG Version: 6.00 Build 0)  -->
<!DOCTYPE svg PUBLIC "-//W3C//DTD SVG 1.1//EN" "http://www.w3.org/Graphics/SVG/1.1/DTD/svg11.dtd">
<svg version="1.1" id="Capa_1" xmlns="http://www.w3.org/2000/svg" xmlns:xlink="http://www.w3.org/1999/xlink" x="0px" y="0px"
	 width="2000px" height="2000px" viewBox="0 0 2000 2000" enable-background="new 0 0 2000 2000" xml:space="preserve">
<rect x="725.469" y="1400.508" fill="#212121" width="307.461" height="161.055"/>
<rect x="725.469" y="1400.508" fill="#0A0A0A" width="77.508" height="161.055"/>
<path fill="#212121" d="M1237.719,1557.668H498.281c-10.961,0-19.926,8.969-19.926,19.93v99.887c0,10.961,8.969,19.93,19.926,19.93
	h739.438V1557.668L1237.719,1557.668z"/>
<path fill="#0A0A0A" d="M555.864,1677.48v-99.887c0-10.961,8.969-19.93,19.93-19.93h-77.512c-10.961,0-19.926,8.969-19.926,19.93
	v99.887c0,10.961,8.969,19.93,19.926,19.93h77.508C564.832,1697.41,555.864,1688.441,555.864,1677.48z"/>
<path fill="#212121" d="M1738.492,230.328H19.93c-10.961,0-19.93,8.969-19.93,19.93v1134.234c0,10.965,8.969,19.93,19.93,19.93
	h1217.789V807.688c0-15.074,12.266-27.344,27.344-27.344h493.359V250.258C1758.422,239.297,1749.453,230.328,1738.492,230.328z"/>
<path fill="#FFFFFF" d="M87.485,1205.133c0,6.578,5.379,11.953,11.957,11.953h1138.277V807.688
	c0-15.074,12.266-27.344,27.344-27.344h405.875v-354.57H87.485V1205.133z"/>
<path fill="#D9EAFC" d="M164.996,1205.133V425.773H87.485v779.359c0,6.578,5.379,11.953,11.957,11.953h77.512
	C170.375,1217.086,164.996,1211.707,164.996,1205.133z"/>
<circle fill="#333333" cx="879.219" cy="1310.391" r="53.805"/>
<path fill="#C3DDF4" d="M1237.719,871.664h-208.688c-6.444,0-11.719,5.273-11.719,11.719v232.965
	c0,6.445,5.274,11.719,11.719,11.719h208.688V871.664z"/>
<path fill="#AEC1ED" d="M1094.821,1116.348V883.383c0-6.445,5.273-11.719,11.719-11.719h-77.509
	c-6.444,0-11.719,5.273-11.719,11.719v232.965c0,6.445,5.274,11.719,11.719,11.719h77.509
	C1100.094,1128.066,1094.821,1122.793,1094.821,1116.348z"/>
<path fill="#C3DDF4" d="M1265.063,780.344h182.102V524.945c0-10.742-8.789-19.531-19.531-19.531H330.789
	c-10.742,0-19.531,8.789-19.531,19.531v259.863c0,10.742,8.789,19.531,19.531,19.531h907.16
	C1239.606,790.84,1251.125,780.344,1265.063,780.344z"/>
<path fill="#AEC1ED" d="M388.766,784.805V524.941c0-10.742,8.789-19.531,19.531-19.531h-77.508
	c-10.742,0-19.531,8.789-19.531,19.531v259.863c0,10.742,8.789,19.531,19.531,19.531h77.508
	C397.555,804.336,388.766,795.547,388.766,784.805z"/>
<path fill="#FFAF10" d="M1658.981,331.965H99.442c-6.578,0-11.957,5.379-11.957,11.961v85.754h1583.453v-85.754
	C1670.938,337.344,1665.555,331.965,1658.981,331.965z"/>
<path fill="#FF9518" d="M176.953,331.965H99.442c-6.578,0-11.957,5.379-11.957,11.961v85.754h77.508v-85.754
	C164.996,337.344,170.375,331.965,176.953,331.965z"/>
<g>
	<path fill="#5DC1D8" d="M669.938,933.512H341.149c-16.18,0-29.297-13.113-29.297-29.297s13.117-29.297,29.297-29.297h328.789
		c16.18,0,29.297,13.113,29.297,29.297S686.117,933.512,669.938,933.512z"/>
	<path fill="#5DC1D8" d="M669.938,1029.164H341.149c-16.18,0-29.297-13.113-29.297-29.297s13.117-29.297,29.297-29.297h328.789
		c16.18,0,29.297,13.113,29.297,29.297C699.235,1016.047,686.117,1029.164,669.938,1029.164z"/>
	<path fill="#5DC1D8" d="M669.938,1124.816H341.149c-16.18,0-29.297-13.113-29.297-29.297s13.117-29.297,29.297-29.297h328.789
		c16.18,0,29.297,13.113,29.297,29.297S686.117,1124.816,669.938,1124.816z"/>
	<path fill="#5DC1D8" d="M927.969,933.512H758.727c-16.18,0-29.297-13.113-29.297-29.297s13.117-29.297,29.297-29.297h169.242
		c16.18,0,29.297,13.113,29.297,29.297S944.149,933.512,927.969,933.512z"/>
	<path fill="#5DC1D8" d="M927.969,1029.164H758.727c-16.18,0-29.297-13.113-29.297-29.297s13.117-29.297,29.297-29.297h169.242
		c16.18,0,29.297,13.113,29.297,29.297C957.266,1016.047,944.149,1029.164,927.969,1029.164z"/>
	<path fill="#5DC1D8" d="M927.969,1124.816H758.727c-16.18,0-29.297-13.113-29.297-29.297s13.117-29.297,29.297-29.297h169.242
		c16.18,0,29.297,13.113,29.297,29.297S944.149,1124.816,927.969,1124.816z"/>
</g>
<path fill="#212121" d="M1968.75,776.438c17.188,0,31.25,14.063,31.25,31.25v944.414c0,17.188-14.063,31.25-31.25,31.25h-703.688
	c-17.188,0-31.25-14.063-31.25-31.25V807.688c0-17.188,14.063-31.25,31.25-31.25H1968.75L1968.75,776.438z"/>
<path fill="#FFFFFF" d="M1318.621,1660.645c-10.742,0-19.531-8.789-19.531-19.531V856.172c0-10.742,8.789-19.531,19.531-19.531
	h596.574c10.742,0,19.531,8.789,19.531,19.531v784.941c0,10.742-8.789,19.531-19.531,19.531H1318.621z"/>
<path fill="#D9EAFC" d="M1376.598,1641.113V856.172c0-10.742,8.789-19.531,19.531-19.531h-77.508
	c-10.742,0-19.531,8.789-19.531,19.531v784.941c0,10.742,8.789,19.531,19.531,19.531h77.508
	C1385.387,1660.645,1376.598,1651.855,1376.598,1641.113z"/>
<path fill="#333333" d="M1580.34,1738.77c-10.742,0-19.531-8.789-19.531-19.531v-7.598c0-10.742,8.789-19.531,19.531-19.531h73.137
	c10.742,0,19.531,8.789,19.531,19.531v7.598c0,10.742-8.789,19.531-19.531,19.531H1580.34z"/>
<path fill="#FFAF10" d="M1934.727,912.004v-55.832c0-10.742-8.789-19.531-19.531-19.531h-596.574
	c-10.742,0-19.531,8.789-19.531,19.531v55.832H1934.727L1934.727,912.004z"/>
<path fill="#FF9518" d="M1396.129,836.641h-77.508c-10.742,0-19.531,8.789-19.531,19.531v55.832h77.508v-55.832
	C1376.598,845.43,1385.387,836.641,1396.129,836.641z"/>
<g>
	<path fill="#5DC1D8" d="M1750.051,1269.27h-266.285c-16.18,0-29.297-13.113-29.297-29.297s13.117-29.297,29.297-29.297h266.285
		c16.18,0,29.297,13.113,29.297,29.297C1779.348,1256.152,1766.231,1269.27,1750.051,1269.27z"/>
	<path fill="#5DC1D8" d="M1750.051,1359.609h-266.285c-16.18,0-29.297-13.113-29.297-29.297c0-16.18,13.117-29.297,29.297-29.297
		h266.285c16.18,0,29.297,13.117,29.297,29.297C1779.348,1346.496,1766.231,1359.609,1750.051,1359.609z"/>
	<path fill="#5DC1D8" d="M1750.051,1449.941h-266.285c-16.18,0-29.297-13.113-29.297-29.297c0-16.18,13.117-29.297,29.297-29.297
		h266.285c16.18,0,29.297,13.117,29.297,29.297C1779.348,1436.828,1766.231,1449.941,1750.051,1449.941z"/>
</g>
<path fill="#C3DDF4" d="M1874.047,1141.629c0,10.742-8.789,19.531-19.531,19.531h-475.215c-10.742,0-19.531-8.789-19.531-19.531
	V980.52c0-10.742,8.789-19.531,19.531-19.531h475.215c10.742,0,19.531,8.789,19.531,19.531V1141.629z"/>
<path fill="#AEC1ED" d="M1437.278,1141.629V980.52c0-10.742,8.789-19.531,19.531-19.531h-77.508
	c-10.742,0-19.531,8.789-19.531,19.531v161.109c0,10.742,8.789,19.531,19.531,19.531h77.508
	C1446.067,1161.16,1437.278,1152.371,1437.278,1141.629z"/>
<path fill="#C3DDF4" d="M1803.739,1599.281c0,10.742-8.789,19.531-19.531,19.531H1449.61c-10.742,0-19.531-8.789-19.531-19.531
	v-66.055c0-10.742,8.789-19.531,19.531-19.531h334.598c10.742,0,19.531,8.789,19.531,19.531V1599.281L1803.739,1599.281z"/>
<path fill="#AEC1ED" d="M1507.586,1599.281v-66.055c0-10.742,8.789-19.531,19.531-19.531h-77.508
	c-10.742,0-19.531,8.789-19.531,19.531v66.055c0,10.742,8.789,19.531,19.531,19.531h77.508
	C1516.375,1618.813,1507.586,1610.023,1507.586,1599.281z"/>
</svg>
