<?xml version="1.0" encoding="utf-8"?>
<!-- Generator: Adobe Illustrator 16.0.0, SVG Export Plug-In . SVG Version: 6.00 Build 0)  -->
<!DOCTYPE svg PUBLIC "-//W3C//DTD SVG 1.1//EN" "http://www.w3.org/Graphics/SVG/1.1/DTD/svg11.dtd">
<svg version="1.1" id="Capa_1" xmlns="http://www.w3.org/2000/svg" xmlns:xlink="http://www.w3.org/1999/xlink" x="0px" y="0px"
	 width="2000px" height="2000px" viewBox="0 0 2000 2000" enable-background="new 0 0 2000 2000" xml:space="preserve">
<linearGradient id="SVGID_1_" gradientUnits="userSpaceOnUse" x1="2.440214e-004" y1="1000" x2="2000.0002" y2="1000">
	<stop  offset="0" style="stop-color:#00D78A"/>
	<stop  offset="1" style="stop-color:#079FA8"/>
</linearGradient>
<path fill="url(#SVGID_1_)" d="M1781.818,0c-120.327,0-218.182,97.854-218.182,218.182c0,37.637,9.563,73.055,26.4,104
	L1232.618,679.6c-49.273-38.363-110.946-61.418-178.073-61.418s-128.8,23.055-178.109,61.382L597.564,400.691
	c12.8-21.636,20.618-46.509,20.618-73.418c0-80.218-65.236-145.454-145.455-145.454c-80.218,0-145.454,65.236-145.454,145.454
	c0,80.218,65.236,145.455,145.454,145.455c26.909,0,51.782-7.818,73.418-20.618l278.873,278.872
	c-38.327,49.31-61.382,110.982-61.382,178.109s23.055,128.8,61.382,178.073l-460.509,460.545c-38.764-35.163-90-56.8-146.327-56.8
	C97.855,1490.909,0,1588.764,0,1709.091s97.854,218.182,218.182,218.182s218.182-97.854,218.182-218.182
	c0-37.636-9.563-73.055-26.4-104l466.51-466.509c40.218,31.272,88.727,52.218,141.745,58.873v369.454
	C915.199,1584.291,836.4,1673.891,836.4,1781.818c0,120.327,97.854,218.182,218.182,218.182s218.182-97.854,218.182-218.182
	c0-107.891-78.8-197.491-181.817-214.909v-369.454c53.018-6.655,101.527-27.601,141.745-58.873l278.872,278.872
	c-12.836,21.673-20.654,46.546-20.654,73.455c0,80.218,65.236,145.454,145.455,145.454s145.454-65.236,145.454-145.454
	c0-80.219-65.235-145.454-145.454-145.454c-26.909,0-51.782,7.817-73.418,20.617L1284.073,1087.2
	c38.327-49.31,61.382-110.982,61.382-178.109s-23.055-128.8-61.382-178.072l351.455-351.455c38.727,35.164,89.963,56.8,146.29,56.8
	c120.327,0,218.183-97.854,218.183-218.182S1902.145,0,1781.818,0z M400,327.272c0-40.109,32.617-72.727,72.727-72.727
	s72.728,32.618,72.728,72.727c0,40.109-32.618,72.728-72.728,72.728S400,367.382,400,327.272z M218.182,1854.545
	c-80.219,0-145.455-65.236-145.455-145.454s65.236-145.454,145.455-145.454c80.218,0,145.454,65.236,145.454,145.454
	S298.4,1854.545,218.182,1854.545z M1200,1781.818c0,80.218-65.237,145.454-145.455,145.454s-145.455-65.236-145.455-145.454
	c0-80.219,65.237-145.455,145.455-145.455S1200,1701.6,1200,1781.818z M1054.545,1127.272
	c-120.327,0-218.182-97.854-218.182-218.182s97.854-218.182,218.182-218.182s218.182,97.854,218.182,218.182
	S1174.872,1127.272,1054.545,1127.272z M1709.09,1490.909c0,40.109-32.617,72.728-72.727,72.728s-72.728-32.618-72.728-72.728
	s32.618-72.728,72.728-72.728S1709.09,1450.8,1709.09,1490.909z M1781.818,363.636c-80.218,0-145.454-65.236-145.454-145.455
	c0-80.218,65.236-145.454,145.454-145.454c80.219,0,145.455,65.236,145.455,145.454
	C1927.273,298.4,1862.036,363.636,1781.818,363.636z"/>
</svg>
