<?xml version="1.0" encoding="utf-8"?>
<!-- Generator: Adobe Illustrator 16.0.0, SVG Export Plug-In . SVG Version: 6.00 Build 0)  -->
<!DOCTYPE svg PUBLIC "-//W3C//DTD SVG 1.1//EN" "http://www.w3.org/Graphics/SVG/1.1/DTD/svg11.dtd">
<svg version="1.1" id="Calque_1" xmlns="http://www.w3.org/2000/svg" xmlns:xlink="http://www.w3.org/1999/xlink" x="0px" y="0px"
	 width="2000px" height="2000px" viewBox="0 0 2000 2000" enable-background="new 0 0 2000 2000" xml:space="preserve">
<linearGradient id="SVGID_1_" gradientUnits="userSpaceOnUse" x1="18.4402" y1="1000.002" x2="1975.1936" y2="1000.002">
	<stop  offset="0" style="stop-color:#00D78A"/>
	<stop  offset="1" style="stop-color:#079FA8"/>
</linearGradient>
<path fill="url(#SVGID_1_)" d="M263.173,185.715L40.013,73.914c-19.271-9.628-27.084-33.066-17.44-52.337
	C32.2,2.304,55.638-5.508,74.91,4.135l237.93,119.186c12.177,4.868,21.622,15.747,24.048,29.633l51.788,291.58h967.743
	c21.638,0,39.185,17.548,39.185,39.185s-17.547,39.17-39.185,39.17H402.608l162.445,914.429h126.145
	c21.637,0,39.185,17.532,39.185,39.185c0,21.637-17.548,39.169-39.185,39.169H578.969l20.096,113.083
	c48.568,1.755,92.377,22.156,124.496,54.275c24.78,24.78,42.603,56.55,50.232,92.103h659.668
	c7.645-35.553,25.467-67.322,50.247-92.103c33.601-33.615,80.032-54.397,131.302-54.397s97.688,20.782,131.287,54.397
	c33.6,33.601,54.382,80.018,54.382,131.287s-20.782,97.702-54.382,131.287c-33.6,33.614-80.018,54.397-131.287,54.397
	s-97.701-20.783-131.302-54.397c-24.796-24.796-42.603-56.564-50.247-92.103H773.793c-7.645,35.538-25.452,67.307-50.247,92.103
	c-33.601,33.614-80.018,54.397-131.287,54.397s-97.702-20.783-131.302-54.397c-33.6-33.601-54.383-80.018-54.383-131.287
	s20.783-97.687,54.383-131.287c17.304-17.303,37.994-31.204,60.989-40.618C435.703,1156.846,349.446,671.28,263.173,185.715z
	 M1004.643,1515.671h665.513c47.821,0,87.509-18.829,117.874-49.194c31.632-31.631,52.43-75.82,60.883-123.443l124.1-698.624
	c1.465-8.239,2.182-16.403,2.182-24.46c0-41.58-18.432-81.665-47.027-112.885c-27.924-30.486-66.01-52.901-106.201-60.043
	c-9.201-1.633-18.463-2.487-27.694-2.487h-124.405c-21.637,0-39.185,17.532-39.185,39.17c0,21.637,17.548,39.185,39.185,39.185
	h124.405c4.791,0,9.552,0.427,14.236,1.267c23.193,4.119,45.486,17.395,62.104,35.553c15.945,17.395,26.214,38.879,26.214,60.241
	c0,3.738-0.305,7.416-0.945,11.002l-124.1,698.624c-5.723,32.227-19.119,61.462-39.154,81.497
	c-16.189,16.189-37.231,26.229-62.47,26.229h-665.513c-21.637,0-39.184,17.548-39.184,39.185
	C965.459,1498.139,983.006,1515.671,1004.643,1515.671z M847.92,1437.317c-21.637,0-39.185,17.532-39.185,39.169
	c0,21.638,17.548,39.185,39.185,39.185s39.185-17.547,39.185-39.185C887.105,1454.85,869.557,1437.317,847.92,1437.317z
	 M1513.143,444.534c-21.637,0-39.17,17.532-39.17,39.17c0,21.651,17.533,39.185,39.17,39.185s39.185-17.533,39.185-39.185
	C1552.327,462.066,1534.78,444.534,1513.143,444.534z M812.886,696.045c-43.579,43.564-65.354,100.968-65.354,158.325
	c0,57.358,21.774,114.746,65.354,158.325l305.359,305.344c15.289,15.305,40.1,15.305,55.404,0l305.359-305.344
	c43.563-43.579,65.353-100.967,65.353-158.325c0-57.373-21.773-114.761-65.353-158.325
	c-43.579-43.579-100.968-65.368-158.325-65.368c-57.373,0-114.762,21.789-158.326,65.368l-16.402,16.403l-16.419-16.403
	c-43.563-43.579-100.952-65.368-158.325-65.368C913.854,630.677,856.465,652.466,812.886,696.045z M971.211,709.046
	c-37.338,0-74.661,14.13-102.92,42.389c-28.275,28.274-42.404,65.582-42.404,102.936c0,37.339,14.129,74.646,42.404,102.921
	l277.648,277.648l277.664-277.648c28.26-28.274,42.389-65.582,42.389-102.921c0-37.354-14.129-74.661-42.389-102.936
	c-28.274-28.259-65.582-42.389-102.936-42.389c-37.338,0-74.646,14.13-102.921,42.389l-44.112,44.113
	c-15.29,15.305-40.101,15.305-55.405,0l-44.098-44.113C1045.872,723.176,1008.549,709.046,971.211,709.046z M1690.893,1738.419
	c-19.41-19.425-46.25-31.433-75.883-31.433c-29.647,0-56.473,12.008-75.896,31.433c-19.425,19.425-31.434,46.249-31.434,75.897
	c0,29.647,12.009,56.473,31.434,75.897c19.424,19.409,46.249,31.433,75.896,31.433c29.633,0,56.473-12.023,75.883-31.433
	c19.424-19.425,31.433-46.25,31.433-75.897C1722.325,1784.668,1710.317,1757.844,1690.893,1738.419z M668.141,1738.419
	c-19.409-19.425-46.249-31.433-75.882-31.433c-29.647,0-56.488,12.008-75.912,31.433c-19.409,19.425-31.418,46.249-31.418,75.897
	c0,29.647,12.009,56.473,31.418,75.897c19.424,19.409,46.265,31.433,75.912,31.433c29.633,0,56.473-12.023,75.882-31.433
	c19.425-19.425,31.434-46.25,31.434-75.897C699.574,1784.668,687.566,1757.844,668.141,1738.419z"/>
</svg>
