<?xml version="1.0" encoding="utf-8"?>
<!-- Generator: Adobe Illustrator 16.0.0, SVG Export Plug-In . SVG Version: 6.00 Build 0)  -->
<!DOCTYPE svg PUBLIC "-//W3C//DTD SVG 1.1//EN" "http://www.w3.org/Graphics/SVG/1.1/DTD/svg11.dtd">
<svg version="1.1" id="Capa_1" xmlns="http://www.w3.org/2000/svg" xmlns:xlink="http://www.w3.org/1999/xlink" x="0px" y="0px"
	 width="2000px" height="2000px" viewBox="0 0 2000 2000" enable-background="new 0 0 2000 2000" xml:space="preserve">
<g>
	<g>
		<g>
			<linearGradient id="SVGID_1_" gradientUnits="userSpaceOnUse" x1="99.2297" y1="1000" x2="1774.3671" y2="1000">
				<stop  offset="0" style="stop-color:#00D78A"/>
				<stop  offset="1" style="stop-color:#079FA8"/>
			</linearGradient>
			<path fill="url(#SVGID_1_)" d="M1781.246,433.596c21.57,0,39.063-17.488,39.063-39.062V39.066
				c0-12.488-5.969-24.227-16.066-31.578c-10.094-7.355-23.102-9.438-34.984-5.602L1000,249.956L230.745,1.887
				c-11.902-3.836-24.891-1.754-34.984,5.602c-10.098,7.352-16.07,19.09-16.07,31.578v1669.935c0,16.953,10.938,31.973,27.074,37.18
				l781.247,251.933h0.004c3.875,1.25,7.918,1.887,11.988,1.887c4.02,0,8.063-0.621,11.984-1.883l781.246-251.933
				c16.137-5.207,27.074-20.223,27.074-37.18V711.614c0-21.574-17.492-39.063-39.063-39.063s-39.063,17.488-39.063,39.063v968.941
				l-703.122,226.737V319.444l703.122-226.738v301.827C1742.184,416.108,1759.676,433.596,1781.246,433.596z M960.938,1907.293
				l-703.122-226.737V92.707l703.122,226.738V1907.293z"/>
		</g>
	</g>
	<g>
		<g>
			<linearGradient id="SVGID_2_" gradientUnits="userSpaceOnUse" x1="99.2297" y1="550.7832" x2="1774.3671" y2="550.7832">
				<stop  offset="0" style="stop-color:#00D78A"/>
				<stop  offset="1" style="stop-color:#079FA8"/>
			</linearGradient>
			<path fill="url(#SVGID_2_)" d="M1808.86,523.166c-7.262-7.266-17.34-11.445-27.613-11.445s-20.352,4.18-27.617,11.445
				s-11.445,17.344-11.445,27.617s4.176,20.352,11.445,27.617s17.344,11.445,27.617,11.445s20.352-4.18,27.613-11.445
				c7.266-7.266,11.449-17.344,11.449-27.617S1816.129,530.432,1808.86,523.166z"/>
		</g>
	</g>
	<g>
		<g>
			<linearGradient id="SVGID_3_" gradientUnits="userSpaceOnUse" x1="99.2297" y1="654.0391" x2="1774.3669" y2="654.0391">
				<stop  offset="0" style="stop-color:#00D78A"/>
				<stop  offset="1" style="stop-color:#079FA8"/>
			</linearGradient>
			<path fill="url(#SVGID_3_)" d="M821.438,458.303L421.291,329.265c-11.902-3.832-24.891-1.754-34.984,5.601
				c-10.098,7.352-16.066,19.086-16.066,31.574v446.155c0,16.961,10.938,31.977,27.07,37.184l400.15,129.038
				c3.926,1.266,7.965,1.883,11.984,1.883c8.164,0,16.234-2.559,23-7.488c10.098-7.352,16.066-19.086,16.066-31.574V495.482
				C848.512,478.529,837.574,463.51,821.438,458.303z M770.391,887.996L448.365,784.153V420.084l322.025,103.843V887.996z"/>
		</g>
	</g>
	<g>
		<g>
			<linearGradient id="SVGID_4_" gradientUnits="userSpaceOnUse" x1="99.2297" y1="1116.5762" x2="1774.3669" y2="1116.5762">
				<stop  offset="0" style="stop-color:#00D78A"/>
				<stop  offset="1" style="stop-color:#079FA8"/>
			</linearGradient>
			<path fill="url(#SVGID_4_)" d="M821.442,1143.917l-400.15-129.038c-20.551-6.613-42.551,4.66-49.168,25.188
				c-6.617,20.531,4.656,42.547,25.188,49.168l400.15,129.038c3.988,1.285,8.027,1.895,11.996,1.895
				c16.5,0,31.832-10.539,37.172-27.086C853.25,1172.554,841.973,1150.538,821.442,1143.917z"/>
		</g>
	</g>
	<g>
		<g>
			<linearGradient id="SVGID_5_" gradientUnits="userSpaceOnUse" x1="99.2297" y1="1332.709" x2="1774.3669" y2="1332.709">
				<stop  offset="0" style="stop-color:#00D78A"/>
				<stop  offset="1" style="stop-color:#079FA8"/>
			</linearGradient>
			<path fill="url(#SVGID_5_)" d="M821.442,1360.05l-400.15-129.039c-20.551-6.613-42.551,4.66-49.168,25.188
				c-6.617,20.531,4.656,42.547,25.188,49.168l400.15,129.038c3.988,1.285,8.027,1.895,11.996,1.895
				c16.5,0,31.832-10.539,37.172-27.086C853.25,1388.686,841.973,1366.674,821.442,1360.05z"/>
		</g>
	</g>
	<g>
		<g>
			<linearGradient id="SVGID_6_" gradientUnits="userSpaceOnUse" x1="99.2297" y1="1548.8398" x2="1774.3669" y2="1548.8398">
				<stop  offset="0" style="stop-color:#00D78A"/>
				<stop  offset="1" style="stop-color:#079FA8"/>
			</linearGradient>
			<path fill="url(#SVGID_6_)" d="M821.442,1576.182l-400.15-129.039c-20.551-6.613-42.551,4.66-49.168,25.188
				c-6.617,20.531,4.656,42.547,25.188,49.168l400.15,129.038c3.988,1.286,8.027,1.895,11.996,1.895
				c16.5,0,31.832-10.539,37.172-27.085C853.25,1604.814,841.973,1582.803,821.442,1576.182z"/>
		</g>
	</g>
	<g>
		<g>
			<linearGradient id="SVGID_7_" gradientUnits="userSpaceOnUse" x1="99.2297" y1="1325.7598" x2="1774.3669" y2="1325.7598">
				<stop  offset="0" style="stop-color:#00D78A"/>
				<stop  offset="1" style="stop-color:#079FA8"/>
			</linearGradient>
			<path fill="url(#SVGID_7_)" d="M1613.091,1006.586c-10.094-7.352-23.105-9.434-34.984-5.602l-400.146,129.039
				c-16.137,5.207-27.074,20.223-27.074,37.179v446.155c0,12.488,5.969,24.227,16.066,31.574c6.762,4.926,14.832,7.488,23,7.488
				c4.02,0,8.063-0.621,11.984-1.883l400.146-129.039c16.137-5.207,27.074-20.223,27.074-37.18v-446.154
				C1629.157,1025.676,1623.189,1013.938,1613.091,1006.586z M1551.033,1455.873l-322.023,103.844v-364.069l322.022-103.843
				L1551.033,1455.873L1551.033,1455.873z"/>
		</g>
	</g>
	<g>
		<g>
			<linearGradient id="SVGID_8_" gradientUnits="userSpaceOnUse" x1="99.2297" y1="863.2266" x2="1774.3669" y2="863.2266">
				<stop  offset="0" style="stop-color:#00D78A"/>
				<stop  offset="1" style="stop-color:#079FA8"/>
			</linearGradient>
			<path fill="url(#SVGID_8_)" d="M1627.271,786.716c-6.621-20.531-28.629-31.809-49.168-25.188l-400.146,129.038
				c-20.531,6.621-31.813,28.637-25.188,49.168c5.336,16.547,20.672,27.086,37.172,27.086c3.973,0,8.012-0.613,11.996-1.895
				l400.146-129.038C1622.615,829.259,1633.896,807.247,1627.271,786.716z"/>
		</g>
	</g>
	<g>
		<g>
			<linearGradient id="SVGID_9_" gradientUnits="userSpaceOnUse" x1="99.2297" y1="647.0947" x2="1774.3669" y2="647.0947">
				<stop  offset="0" style="stop-color:#00D78A"/>
				<stop  offset="1" style="stop-color:#079FA8"/>
			</linearGradient>
			<path fill="url(#SVGID_9_)" d="M1627.271,570.584c-6.621-20.531-28.629-31.809-49.168-25.188l-400.146,129.038
				c-20.531,6.621-31.813,28.637-25.188,49.168c5.336,16.547,20.672,27.086,37.172,27.086c3.973,0,8.012-0.613,11.996-1.895
				l400.146-129.038C1622.615,613.131,1633.896,591.119,1627.271,570.584z"/>
		</g>
	</g>
	<g>
		<g>
			<linearGradient id="SVGID_10_" gradientUnits="userSpaceOnUse" x1="99.2297" y1="430.9668" x2="1774.3669" y2="430.9668">
				<stop  offset="0" style="stop-color:#00D78A"/>
				<stop  offset="1" style="stop-color:#079FA8"/>
			</linearGradient>
			<path fill="url(#SVGID_10_)" d="M1627.271,354.456c-6.621-20.531-28.629-31.808-49.168-25.187l-400.146,129.038
				c-20.531,6.621-31.813,28.637-25.188,49.168c5.336,16.547,20.672,27.086,37.172,27.086c3.973,0,8.012-0.613,11.996-1.895
				l400.146-129.039C1622.615,396.999,1633.896,374.987,1627.271,354.456z"/>
		</g>
	</g>
</g>
<g display="none">
	<g display="inline">
		<linearGradient id="SVGID_11_" gradientUnits="userSpaceOnUse" x1="14.0491" y1="995.499" x2="1981.0002" y2="995.499">
			<stop  offset="0" style="stop-color:#00D78A"/>
			<stop  offset="1" style="stop-color:#079FA8"/>
		</linearGradient>
		<path fill="url(#SVGID_11_)" d="M1953.526,290.941L1702.054,39.469c-36.628-36.628-96.229-36.624-132.857,0l-473.474,473.47
			c-11.855,11.859-11.855,31.076,0,42.936c11.855,11.852,31.076,11.852,42.933,0l473.47-473.47
			c6.277-6.277,14.622-9.731,23.496-9.731c8.875,0,17.22,3.454,23.496,9.731l251.477,251.472c6.273,6.273,9.731,14.618,9.731,23.497
			c0,8.875-3.458,17.219-9.731,23.493l-61.715,61.715l-161.697-161.694c-11.855-11.852-31.076-11.852-42.932,0
			c-11.856,11.86-11.856,31.077,0,42.936l161.693,161.694l-70.508,70.508l-71.066-71.065c-11.855-11.852-31.075-11.852-42.932,0
			c-11.855,11.86-11.855,31.076,0,42.936l71.065,71.062l-70.509,70.508l-71.065-71.065c-11.855-11.852-31.076-11.852-42.931,0
			c-11.856,11.86-11.856,31.076,0,42.936l71.064,71.062l-70.509,70.508l-161.697-161.7c-11.852-11.849-31.076-11.856-42.932,0
			c-11.856,11.859-11.856,31.076,0,42.936l161.697,161.697l-70.508,70.508l-71.065-71.065c-11.856-11.852-31.076-11.852-42.933,0
			c-11.855,11.859-11.855,31.076,0,42.936l71.062,71.062l-59.647,59.648L994.065,700.461l55.515-55.518
			c11.854-11.86,11.854-31.077,0-42.937c-11.856-11.852-31.077-11.852-42.934,0l-55.517,55.518L391.119,97.534
			c-38.948-38.948-90.731-60.397-145.812-60.397C190.229,37.141,138.445,58.59,99.5,97.538c-38.952,38.948-60.4,90.728-60.4,145.811
			c0,55.08,21.449,106.863,60.397,145.811l559.999,559.999L41.52,1567.146c-36.628,36.631-36.628,96.229,0,132.86l251.472,251.477
			c17.741,17.741,41.334,27.515,66.429,27.515c25.094,0,48.687-9.773,66.428-27.515l617.983-617.983l44.015,44.016
			c11.856,11.853,31.075,11.853,42.932,0c11.855-11.859,11.855-31.076,0-42.936l-60.754-60.754c-1.18-1.868-2.562-3.643-4.188-5.269
			c-1.625-1.624-3.4-3.008-5.263-4.187L402.772,606.567l81.412-81.411l50.335,50.335c5.928,5.924,13.696,8.89,21.467,8.89
			c7.772,0,15.541-2.966,21.468-8.89c11.856-11.859,11.856-31.076,0-42.936l-50.331-50.332l81.412-81.411l321.093,321.093
			c0.012,0.016,0.023,0.027,0.038,0.043c0.016,0.015,0.027,0.023,0.042,0.039l338.388,338.389c0.837,1.106,1.73,2.19,2.74,3.2
			c1.01,1.011,2.09,1.901,3.195,2.739l450.521,450.519l-81.412,81.412l-454.545-454.545c-0.273-0.297-0.521-0.608-0.808-0.893
			l-181.263-181.268c-0.3-0.299-0.626-0.561-0.935-0.845L685.404,640.514c-11.855-11.852-31.076-11.852-42.932,0
			c-11.855,11.859-11.855,31.076,0,42.936l957.726,957.725l-81.416,81.411l-288.503-288.507c-11.856-11.853-31.076-11.853-42.933,0
			c-11.855,11.859-11.855,31.076,0,42.936l309.971,309.972c2.947,2.946,6.597,5.324,10.481,6.831l366.806,142.411
			c5.786,2.243,11.817,3.334,17.804,3.334c12.839,0,25.447-5.024,34.856-14.44c13.796-13.804,18.137-34.473,11.064-52.659
			l-142.562-366.639c-1.506-3.872-3.884-7.529-6.827-10.468l-453.48-453.481l618.066-618.072
			C1990.157,387.17,1990.157,327.573,1953.526,290.941z M1000.911,1290.568l-59.575,59.56l-71.065-71.065
			c-11.855-11.853-31.076-11.853-42.932,0c-11.856,11.859-11.856,31.076,0,42.936l71.065,71.065l-70.508,70.508l-161.697-161.697
			c-11.856-11.852-31.077-11.852-42.932,0c-11.856,11.86-11.856,31.076,0,42.937l161.697,161.697l-70.508,70.508l-71.065-71.065
			c-11.856-11.852-31.076-11.852-42.932,0c-11.856,11.859-11.856,31.076,0,42.937l71.065,71.062l-70.508,70.509l-71.065-71.065
			c-11.856-11.853-31.077-11.853-42.932,0c-11.856,11.859-11.856,31.076,0,42.935l71.065,71.065l-70.509,70.509l-161.698-161.697
			c-11.855-11.852-31.075-11.852-42.931,0c-11.856,11.86-11.856,31.076,0,42.937l161.697,161.693l-61.714,61.714
			c-6.278,6.278-14.622,9.735-23.497,9.735s-17.219-3.457-23.497-9.735L84.464,1657.071c-12.954-12.955-12.954-34.034,0-46.989
			l617.979-617.983L1000.911,1290.568z M142.429,346.229c-56.728-56.728-56.728-149.031,0-205.758
			c56.728-56.732,149.031-56.732,205.758,0l95.953,95.952L238.382,442.181L142.429,346.229z M462.739,460.733
			c-0.008,0.007-0.016,0.011-0.02,0.019c-0.008,0.008-0.012,0.016-0.02,0.019l-102.86,102.86l-78.522-78.522l205.759-205.759
			l78.522,78.522L462.739,460.733z M1872.31,1870.202l-299.137-116.134l182.874-182.872L1872.31,1870.202z"/>
	</g>
</g>
<g display="none">
	<g display="inline">
		<g>
			<g>
				<linearGradient id="SVGID_12_" gradientUnits="userSpaceOnUse" x1="15.2214" y1="450.7939" x2="1669.9545" y2="450.7939">
					<stop  offset="0" style="stop-color:#00D78A"/>
					<stop  offset="1" style="stop-color:#079FA8"/>
				</linearGradient>
				<path fill="url(#SVGID_12_)" d="M1664.908,412.903c-20.916,0-37.89,16.975-37.89,37.891c0,20.915,16.974,37.89,37.89,37.89
					c20.915,0,37.891-16.975,37.891-37.89C1702.799,429.878,1685.823,412.903,1664.908,412.903z"/>
			</g>
		</g>
		<g>
			<g>
				<linearGradient id="SVGID_13_" gradientUnits="userSpaceOnUse" x1="15.2214" y1="450.7939" x2="1669.9546" y2="450.7939">
					<stop  offset="0" style="stop-color:#00D78A"/>
					<stop  offset="1" style="stop-color:#079FA8"/>
				</linearGradient>
				<path fill="url(#SVGID_13_)" d="M331.156,412.903c-20.916,0-37.891,16.975-37.891,37.891c0,20.915,16.975,37.89,37.891,37.89
					s37.891-16.975,37.891-37.89C369.047,429.878,352.072,412.903,331.156,412.903z"/>
			</g>
		</g>
		<g>
			<g>
				<linearGradient id="SVGID_14_" gradientUnits="userSpaceOnUse" x1="15.2214" y1="816.7373" x2="1669.9545" y2="816.7373">
					<stop  offset="0" style="stop-color:#00D78A"/>
					<stop  offset="1" style="stop-color:#079FA8"/>
				</linearGradient>
				<path fill="url(#SVGID_14_)" d="M1930.142,867.589h-45.317c-14.162-109.14-48.386-213.146-102.092-309.584
					c-10.181-18.278-33.252-24.853-51.538-14.671c-18.283,10.181-24.854,33.257-14.671,51.539
					c47.393,85.114,78.228,176.676,91.891,272.717h-29.834c-20.928,0-37.891,16.963-37.891,37.89v151.563
					c0,20.927,16.963,37.891,37.891,37.891h151.562c20.927,0,37.891-16.964,37.891-37.891V905.479
					C1968.032,884.553,1951.069,867.589,1930.142,867.589z M1892.251,1019.151h-75.781V943.37h34.397c0.012,0,0.026,0,0.038,0
					c0.016,0,0.026,0,0.041,0h41.305V1019.151z"/>
			</g>
		</g>
		<g>
			<g>
				<linearGradient id="SVGID_15_" gradientUnits="userSpaceOnUse" x1="15.2214" y1="1193.4473" x2="1669.9545" y2="1193.4473">
					<stop  offset="0" style="stop-color:#00D78A"/>
					<stop  offset="1" style="stop-color:#079FA8"/>
				</linearGradient>
				<path fill="url(#SVGID_15_)" d="M1414.76,1142.754c-0.023-0.587-0.039-1.175-0.088-1.761c-0.068-0.804-0.178-1.596-0.295-2.384
					c-0.073-0.485-0.13-0.971-0.225-1.455c-0.175-0.929-0.401-1.838-0.641-2.743c-0.09-0.346-0.163-0.689-0.265-1.031
					c-0.337-1.133-0.731-2.243-1.171-3.331c-0.049-0.116-0.083-0.242-0.133-0.359c-0.522-1.266-1.11-2.497-1.762-3.687
					l-378.898-693.381c-6.642-12.155-19.393-19.718-33.255-19.718c-13.856,0-26.606,7.563-33.249,19.722l-378.897,693.38
					c-0.652,1.19-1.239,2.422-1.762,3.688c-0.049,0.117-0.083,0.239-0.132,0.359c-0.439,1.088-0.833,2.198-1.17,3.331
					c-0.103,0.342-0.175,0.686-0.266,1.031c-0.243,0.904-0.466,1.811-0.641,2.742c-0.091,0.481-0.147,0.967-0.224,1.456
					c-0.118,0.788-0.227,1.58-0.295,2.383c-0.05,0.587-0.07,1.175-0.087,1.762c-0.019,0.478-0.072,0.947-0.072,1.433
					c0,0.25,0.034,0.489,0.038,0.739c0.011,0.594,0.049,1.186,0.091,1.78c0.049,0.755,0.11,1.504,0.205,2.247
					c0.068,0.522,0.15,1.041,0.239,1.564c0.137,0.818,0.3,1.629,0.489,2.429c0.106,0.451,0.224,0.902,0.349,1.35
					c0.239,0.863,0.511,1.712,0.807,2.55c0.083,0.239,0.136,0.481,0.227,0.721l136.648,362.115
					c-10.961,5.434-21.101,12.65-30.009,21.556c-21.476,21.477-33.302,50.02-33.302,80.369c0,49.395,31.681,91.514,75.781,107.154
					v207.337c0,20.927,16.963,37.891,37.891,37.891h454.693c20.927,0,37.891-16.964,37.891-37.891v-207.272
					c15.796-5.573,30.281-14.647,42.482-26.85c21.473-21.476,33.298-50.019,33.298-80.369c0-44.607-25.838-83.275-63.326-101.876
					l136.668-362.164c0.091-0.239,0.144-0.481,0.227-0.721c0.296-0.838,0.569-1.687,0.808-2.55c0.125-0.447,0.237-0.898,0.348-1.35
					c0.19-0.8,0.35-1.61,0.489-2.429c0.087-0.523,0.175-1.042,0.239-1.564c0.095-0.743,0.154-1.492,0.204-2.247
					c0.038-0.595,0.079-1.187,0.091-1.78c0.004-0.247,0.038-0.489,0.038-0.739
					C1414.831,1143.705,1414.778,1143.235,1414.76,1142.754z M998.029,1106.3c20.9,0,37.897,16.998,37.897,37.891
					s-16.997,37.891-37.897,37.891c-20.893,0-37.89-16.998-37.89-37.891S977.136,1106.3,998.029,1106.3z M1187.489,1898.211H808.576
					v-162.929h378.912V1898.211z M1252.164,1648.392c-7.162,7.165-16.676,11.109-26.785,11.109H770.686
					c-20.893,0-37.891-16.997-37.891-37.891c0-10.108,3.944-19.623,11.106-26.78c7.165-7.165,16.675-11.11,26.785-11.11h454.438
					c0.085,0,0.168,0.012,0.252,0.012c0.04,0,0.087-0.004,0.128-0.004c20.835,0.068,37.769,17.032,37.769,37.883
					C1263.27,1631.72,1259.324,1641.234,1252.164,1648.392z M1199.178,1507.939H796.887l-122.966-325.858h96.765
					c20.927,0,37.891-16.964,37.891-37.891s-16.963-37.891-37.891-37.891h-87.679L960.138,599.15v437.886
					c-44.101,15.641-75.781,57.757-75.781,107.154c0,62.679,50.993,113.672,113.671,113.672
					c62.686,0,113.679-50.993,113.679-113.672c0-49.395-31.68-91.514-75.781-107.154V599.15l277.131,507.149h-87.678
					c-20.928,0-37.891,16.964-37.891,37.891s16.963,37.891,37.891,37.891h96.765L1199.178,1507.939z"/>
			</g>
		</g>
		<g>
			<g>
				<linearGradient id="SVGID_16_" gradientUnits="userSpaceOnUse" x1="15.2214" y1="816.7354" x2="1669.9545" y2="816.7354">
					<stop  offset="0" style="stop-color:#00D78A"/>
					<stop  offset="1" style="stop-color:#079FA8"/>
				</linearGradient>
				<path fill="url(#SVGID_16_)" d="M264.866,543.333c-18.286-10.185-41.361-3.615-51.539,14.671
					c-53.702,96.439-87.929,200.445-102.088,309.584H65.923c-20.927,0-37.891,16.963-37.891,37.89v151.563
					c0,20.927,16.963,37.891,37.891,37.891h151.562c20.927,0,37.89-16.964,37.89-37.891V905.479c0-20.927-16.963-37.89-37.89-37.89
					h-29.839c13.667-96.041,44.499-187.604,91.892-272.717C289.719,576.59,283.153,553.515,264.866,543.333z M179.594,1019.151
					h-75.781V943.37h41.304c0.015,0,0.027,0,0.042,0c0.012,0,0.026,0,0.038,0h34.397V1019.151z"/>
			</g>
		</g>
	</g>
	<g display="inline">
		<g>
			<linearGradient id="SVGID_17_" gradientUnits="userSpaceOnUse" x1="15.2214" y1="207.7827" x2="1669.9545" y2="207.7827">
				<stop  offset="0" style="stop-color:#00D78A"/>
				<stop  offset="1" style="stop-color:#079FA8"/>
			</linearGradient>
			<path fill="url(#SVGID_17_)" d="M1854.361,33.998c-49.394,0-91.513,31.68-107.153,75.781h-635.5V71.889
				c0-20.927-16.964-37.891-37.891-37.891H922.248c-20.927,0-37.89,16.963-37.89,37.891v37.891h-635.5
				c-15.642-44.101-57.761-75.781-107.154-75.781c-62.679,0-113.672,50.993-113.672,113.672
				c0,62.678,50.993,113.671,113.672,113.671c49.394,0,91.513-31.681,107.154-75.781h380.928
				c-80.816,33.817-154.93,77.717-215.934,129.146c-16.001,13.489-18.036,37.395-4.547,53.392
				c7.495,8.893,18.207,13.47,28.987,13.47c8.624,0,17.292-2.925,24.401-8.919c108.715-91.649,263.862-157.105,421.665-179.06
				v29.862c0,20.927,16.963,37.891,37.89,37.891h151.569c20.927,0,37.891-16.964,37.891-37.891v-29.862
				c157.803,21.954,312.949,87.41,421.664,179.056c7.108,5.994,15.778,8.923,24.402,8.919c10.783,0,21.494-4.577,28.986-13.47
				c13.492-15.993,11.453-39.898-4.548-53.388c-61.003-51.429-135.117-95.329-215.934-129.146h380.929
				c15.641,44.1,57.756,75.781,107.153,75.781c62.679,0,113.672-50.993,113.672-113.671
				C1968.032,84.991,1917.039,33.998,1854.361,33.998z M141.704,185.561c-20.893,0-37.891-16.998-37.891-37.891
				c0-20.893,16.998-37.891,37.891-37.891c20.892,0,37.89,16.998,37.89,37.891C179.594,168.563,162.596,185.561,141.704,185.561z
				 M1035.926,147.67v3.41v34.48h-75.788v-34.48v-3.41v-37.891h75.788V147.67z M1854.361,185.561
				c-20.893,0-37.891-16.998-37.891-37.891c0-20.893,16.998-37.891,37.891-37.891s37.891,16.998,37.891,37.891
				C1892.251,168.563,1875.253,185.561,1854.361,185.561z"/>
		</g>
	</g>
</g>
</svg>
