<?xml version="1.0" encoding="utf-8"?>
<!-- Generator: Adobe Illustrator 16.0.0, SVG Export Plug-In . SVG Version: 6.00 Build 0)  -->
<!DOCTYPE svg PUBLIC "-//W3C//DTD SVG 1.1//EN" "http://www.w3.org/Graphics/SVG/1.1/DTD/svg11.dtd">
<svg version="1.1" id="Capa_1" xmlns="http://www.w3.org/2000/svg" xmlns:xlink="http://www.w3.org/1999/xlink" x="0px" y="0px"
	 width="2000px" height="2000px" viewBox="0 0 2000 2000" enable-background="new 0 0 2000 2000" xml:space="preserve">
<g>
	<g>
		<g>
			<path fill="#FFFFFF" d="M1781.246,433.596c21.569,0,39.063-17.488,39.063-39.062V39.066c0-12.488-5.969-24.227-16.066-31.578
				c-10.094-7.355-23.102-9.438-34.984-5.603L1000,249.956L230.745,1.887c-11.902-3.836-24.892-1.754-34.984,5.603
				c-10.098,7.352-16.07,19.09-16.07,31.578v1669.935c0,16.953,10.938,31.973,27.074,37.18l781.247,251.934h0.004
				c3.875,1.25,7.918,1.887,11.988,1.887c4.02,0,8.063-0.621,11.983-1.883l781.246-251.934c16.137-5.207,27.074-20.223,27.074-37.18
				V711.614c0-21.574-17.492-39.063-39.063-39.063c-21.57,0-39.063,17.488-39.063,39.063v968.94l-703.122,226.737V319.444
				l703.122-226.738v301.827C1742.184,416.108,1759.676,433.596,1781.246,433.596z M960.938,1907.293l-703.122-226.737V92.707
				l703.122,226.738V1907.293z"/>
		</g>
	</g>
	<g>
		<g>
			<path fill="#FFFFFF" d="M1808.86,523.166c-7.262-7.266-17.34-11.445-27.613-11.445c-10.272,0-20.352,4.181-27.617,11.445
				c-7.264,7.265-11.444,17.344-11.444,27.617c0,10.272,4.176,20.352,11.444,27.617c7.27,7.265,17.345,11.444,27.617,11.444
				c10.273,0,20.353-4.18,27.613-11.444c7.266-7.267,11.449-17.345,11.449-27.617C1820.309,540.51,1816.129,530.432,1808.86,523.166
				z"/>
		</g>
	</g>
	<g>
		<g>
			<path fill="#FFFFFF" d="M821.438,458.303L421.291,329.265c-11.902-3.832-24.892-1.754-34.984,5.601
				c-10.098,7.352-16.066,19.086-16.066,31.574v446.155c0,16.961,10.938,31.978,27.07,37.185l400.15,129.038
				c3.926,1.266,7.965,1.883,11.983,1.883c8.164,0,16.234-2.56,23-7.488c10.099-7.352,16.066-19.086,16.066-31.574V495.482
				C848.512,478.529,837.573,463.51,821.438,458.303z M770.391,887.996L448.365,784.153V420.084L770.39,523.927L770.391,887.996
				L770.391,887.996z"/>
		</g>
	</g>
	<g>
		<g>
			<path fill="#FFFFFF" d="M821.442,1143.917l-400.15-129.038c-20.551-6.613-42.551,4.66-49.168,25.188
				c-6.616,20.53,4.656,42.547,25.188,49.168l400.15,129.038c3.987,1.284,8.026,1.895,11.995,1.895
				c16.5,0,31.832-10.539,37.173-27.086C853.25,1172.554,841.973,1150.538,821.442,1143.917z"/>
		</g>
	</g>
	<g>
		<g>
			<path fill="#FFFFFF" d="M821.442,1360.05l-400.15-129.039c-20.551-6.612-42.551,4.66-49.168,25.188
				c-6.616,20.531,4.656,42.547,25.188,49.168l400.15,129.038c3.987,1.284,8.026,1.895,11.995,1.895
				c16.5,0,31.832-10.539,37.173-27.086C853.25,1388.686,841.973,1366.674,821.442,1360.05z"/>
		</g>
	</g>
	<g>
		<g>
			<path fill="#FFFFFF" d="M821.442,1576.182l-400.15-129.039c-20.551-6.612-42.551,4.66-49.168,25.188
				c-6.616,20.531,4.656,42.547,25.188,49.168l400.15,129.038c3.987,1.286,8.026,1.895,11.995,1.895
				c16.5,0,31.832-10.539,37.173-27.085C853.25,1604.814,841.973,1582.803,821.442,1576.182z"/>
		</g>
	</g>
	<g>
		<g>
			<path fill="#FFFFFF" d="M1613.09,1006.586c-10.094-7.352-23.104-9.434-34.983-5.602l-400.146,129.039
				c-16.138,5.207-27.074,20.223-27.074,37.179v446.155c0,12.487,5.969,24.227,16.065,31.573c6.763,4.927,14.832,7.488,23,7.488
				c4.021,0,8.063-0.621,11.984-1.883l400.146-129.039c16.138-5.207,27.074-20.224,27.074-37.181v-446.153
				C1629.156,1025.676,1623.189,1013.938,1613.09,1006.586z M1551.032,1455.873l-322.022,103.844v-364.068l322.021-103.844
				L1551.032,1455.873L1551.032,1455.873z"/>
		</g>
	</g>
	<g>
		<g>
			<path fill="#FFFFFF" d="M1627.271,786.716c-6.621-20.531-28.629-31.809-49.168-25.188l-400.146,129.038
				c-20.531,6.621-31.813,28.637-25.188,49.168c5.336,16.547,20.672,27.086,37.172,27.086c3.974,0,8.012-0.613,11.996-1.896
				l400.146-129.038C1622.615,829.259,1633.896,807.247,1627.271,786.716z"/>
		</g>
	</g>
	<g>
		<g>
			<path fill="#FFFFFF" d="M1627.271,570.584c-6.621-20.531-28.629-31.809-49.168-25.188l-400.146,129.037
				c-20.531,6.621-31.813,28.638-25.188,49.168c5.336,16.547,20.672,27.086,37.172,27.086c3.974,0,8.012-0.612,11.996-1.895
				l400.146-129.038C1622.615,613.131,1633.896,591.119,1627.271,570.584z"/>
		</g>
	</g>
	<g>
		<g>
			<path fill="#FFFFFF" d="M1627.271,354.456c-6.621-20.531-28.629-31.808-49.168-25.187l-400.146,129.038
				c-20.531,6.621-31.813,28.638-25.188,49.168c5.336,16.547,20.672,27.086,37.172,27.086c3.974,0,8.012-0.612,11.996-1.895
				l400.146-129.039C1622.615,396.999,1633.896,374.987,1627.271,354.456z"/>
		</g>
	</g>
</g>
<g display="none">
	<g display="inline">
		
			<linearGradient id="SVGID_1_" gradientUnits="userSpaceOnUse" x1="-688.3513" y1="1584.5117" x2="1278.5979" y2="1584.5117" gradientTransform="matrix(1 0 0 -1 702.3999 2580.0098)">
			<stop  offset="0" style="stop-color:#00D78A"/>
			<stop  offset="1" style="stop-color:#079FA8"/>
		</linearGradient>
		<path fill="url(#SVGID_1_)" d="M1953.526,290.941L1702.054,39.469c-36.628-36.628-96.229-36.624-132.857,0l-473.474,473.471
			c-11.855,11.858-11.855,31.075,0,42.936c11.854,11.852,31.076,11.852,42.933,0l473.47-473.47
			c6.277-6.277,14.623-9.731,23.496-9.731c8.875,0,17.221,3.454,23.496,9.731l251.478,251.472c6.272,6.273,9.73,14.618,9.73,23.497
			c0,8.875-3.458,17.219-9.73,23.493l-61.716,61.715l-161.696-161.694c-11.854-11.852-31.076-11.852-42.933,0
			c-11.855,11.86-11.855,31.077,0,42.936l161.693,161.693l-70.508,70.509l-71.066-71.065c-11.854-11.852-31.074-11.852-42.932,0
			c-11.855,11.86-11.855,31.076,0,42.937l71.064,71.062l-70.509,70.508l-71.064-71.064c-11.855-11.853-31.076-11.853-42.931,0
			c-11.856,11.859-11.856,31.076,0,42.936l71.063,71.063l-70.509,70.508l-161.697-161.7c-11.853-11.849-31.076-11.856-42.932,0
			c-11.856,11.859-11.856,31.076,0,42.936l161.696,161.697l-70.508,70.508l-71.065-71.064c-11.855-11.853-31.075-11.853-42.933,0
			c-11.854,11.858-11.854,31.076,0,42.936l71.062,71.063l-59.646,59.647L994.065,700.461l55.515-55.518
			c11.854-11.86,11.854-31.077,0-42.938c-11.855-11.852-31.077-11.852-42.934,0l-55.517,55.519L391.118,97.534
			c-38.947-38.948-90.73-60.397-145.812-60.397C190.229,37.141,138.445,58.59,99.5,97.538c-38.952,38.948-60.4,90.728-60.4,145.811
			c0,55.08,21.449,106.863,60.397,145.811l559.999,559.999L41.52,1567.146c-36.628,36.631-36.628,96.229,0,132.859l251.473,251.478
			c17.74,17.74,41.333,27.515,66.429,27.515c25.094,0,48.687-9.773,66.428-27.515l617.983-617.983l44.015,44.016
			c11.855,11.854,31.075,11.854,42.932,0c11.855-11.858,11.855-31.076,0-42.936l-60.754-60.754c-1.18-1.868-2.562-3.644-4.188-5.27
			c-1.625-1.624-3.4-3.008-5.264-4.187L402.772,606.567l81.412-81.411l50.335,50.335c5.928,5.924,13.696,8.89,21.467,8.89
			c7.772,0,15.541-2.966,21.468-8.89c11.856-11.859,11.856-31.076,0-42.937l-50.33-50.332l81.411-81.411l321.094,321.093
			c0.012,0.016,0.022,0.026,0.038,0.043c0.016,0.015,0.026,0.022,0.041,0.039l338.389,338.389c0.837,1.106,1.729,2.19,2.74,3.2
			c1.01,1.011,2.09,1.9,3.194,2.739l450.521,450.519l-81.412,81.412l-454.545-454.545c-0.273-0.297-0.521-0.608-0.809-0.893
			L1006.524,961.54c-0.3-0.299-0.626-0.561-0.935-0.845L685.404,640.514c-11.854-11.852-31.076-11.852-42.932,0
			c-11.855,11.859-11.855,31.076,0,42.937l957.726,957.725l-81.416,81.411l-288.503-288.507c-11.855-11.854-31.076-11.854-42.933,0
			c-11.855,11.858-11.855,31.076,0,42.936l309.971,309.973c2.947,2.946,6.598,5.323,10.481,6.831l366.806,142.411
			c5.786,2.243,11.817,3.334,17.805,3.334c12.838,0,25.446-5.024,34.855-14.44c13.796-13.804,18.137-34.473,11.064-52.659
			l-142.563-366.639c-1.506-3.872-3.885-7.529-6.827-10.468l-453.479-453.481l618.065-618.072
			C1990.156,387.17,1990.156,327.573,1953.526,290.941z M1000.91,1290.568l-59.574,59.56l-71.065-71.065
			c-11.854-11.853-31.076-11.853-42.932,0c-11.856,11.859-11.856,31.076,0,42.937l71.064,71.065l-70.508,70.508l-161.697-161.697
			c-11.855-11.852-31.077-11.852-42.932,0c-11.856,11.86-11.856,31.076,0,42.938l161.697,161.696l-70.509,70.509l-71.064-71.065
			c-11.856-11.853-31.076-11.853-42.932,0c-11.856,11.859-11.856,31.076,0,42.937l71.064,71.063l-70.508,70.509l-71.065-71.064
			c-11.855-11.854-31.077-11.854-42.932,0c-11.856,11.858-11.856,31.076,0,42.935l71.065,71.065l-70.51,70.509l-161.697-161.697
			c-11.855-11.852-31.075-11.852-42.932,0c-11.855,11.86-11.855,31.076,0,42.938l161.697,161.692l-61.714,61.714
			c-6.278,6.278-14.622,9.735-23.497,9.735s-17.219-3.457-23.497-9.735L84.464,1657.071c-12.954-12.955-12.954-34.034,0-46.989
			l617.979-617.983L1000.91,1290.568z M142.429,346.229c-56.728-56.728-56.728-149.031,0-205.758
			c56.728-56.731,149.031-56.731,205.758,0l95.953,95.952L238.382,442.181L142.429,346.229z M462.739,460.733
			c-0.008,0.007-0.016,0.011-0.02,0.019c-0.008,0.008-0.012,0.016-0.021,0.02L359.839,563.631l-78.522-78.521L487.075,279.35
			l78.522,78.522L462.739,460.733z M1872.31,1870.202l-299.137-116.134l182.874-182.872L1872.31,1870.202z"/>
	</g>
</g>
<g display="none">
	<g display="inline">
		<g>
			<g>
				
					<linearGradient id="SVGID_2_" gradientUnits="userSpaceOnUse" x1="-687.1785" y1="2129.2168" x2="967.5547" y2="2129.2168" gradientTransform="matrix(1 0 0 -1 702.3999 2580.0098)">
					<stop  offset="0" style="stop-color:#00D78A"/>
					<stop  offset="1" style="stop-color:#079FA8"/>
				</linearGradient>
				<path fill="url(#SVGID_2_)" d="M1664.907,412.903c-20.916,0-37.89,16.975-37.89,37.891c0,20.915,16.974,37.89,37.89,37.89
					c20.915,0,37.892-16.975,37.892-37.89C1702.799,429.878,1685.823,412.903,1664.907,412.903z"/>
			</g>
		</g>
		<g>
			<g>
				
					<linearGradient id="SVGID_3_" gradientUnits="userSpaceOnUse" x1="-687.179" y1="2129.2168" x2="967.5542" y2="2129.2168" gradientTransform="matrix(1 0 0 -1 702.3999 2580.0098)">
					<stop  offset="0" style="stop-color:#00D78A"/>
					<stop  offset="1" style="stop-color:#079FA8"/>
				</linearGradient>
				<path fill="url(#SVGID_3_)" d="M331.156,412.903c-20.916,0-37.891,16.975-37.891,37.891c0,20.915,16.975,37.89,37.891,37.89
					s37.892-16.975,37.892-37.89C369.047,429.878,352.072,412.903,331.156,412.903z"/>
			</g>
		</g>
		<g>
			<g>
				
					<linearGradient id="SVGID_4_" gradientUnits="userSpaceOnUse" x1="-687.179" y1="1763.2725" x2="967.5541" y2="1763.2725" gradientTransform="matrix(1 0 0 -1 702.3999 2580.0098)">
					<stop  offset="0" style="stop-color:#00D78A"/>
					<stop  offset="1" style="stop-color:#079FA8"/>
				</linearGradient>
				<path fill="url(#SVGID_4_)" d="M1930.142,867.589h-45.317c-14.162-109.14-48.386-213.146-102.092-309.584
					c-10.182-18.278-33.252-24.853-51.538-14.671c-18.282,10.181-24.854,33.257-14.671,51.539
					c47.393,85.114,78.229,176.676,91.891,272.717h-29.834c-20.928,0-37.891,16.963-37.891,37.891v151.563
					c0,20.927,16.963,37.891,37.891,37.891h151.563c20.927,0,37.891-16.964,37.891-37.891V905.479
					C1968.031,884.553,1951.069,867.589,1930.142,867.589z M1892.25,1019.151h-75.78V943.37h34.396c0.013,0,0.026,0,0.038,0
					c0.016,0,0.026,0,0.041,0h41.305V1019.151z"/>
			</g>
		</g>
		<g>
			<g>
				
					<linearGradient id="SVGID_5_" gradientUnits="userSpaceOnUse" x1="-687.1794" y1="1386.5605" x2="967.5546" y2="1386.5605" gradientTransform="matrix(1 0 0 -1 702.3999 2580.0098)">
					<stop  offset="0" style="stop-color:#00D78A"/>
					<stop  offset="1" style="stop-color:#079FA8"/>
				</linearGradient>
				<path fill="url(#SVGID_5_)" d="M1414.76,1142.754c-0.023-0.587-0.039-1.175-0.088-1.761c-0.068-0.804-0.178-1.596-0.295-2.384
					c-0.073-0.485-0.131-0.972-0.226-1.455c-0.175-0.93-0.401-1.838-0.641-2.743c-0.091-0.346-0.163-0.689-0.265-1.031
					c-0.338-1.133-0.731-2.243-1.172-3.331c-0.049-0.116-0.083-0.242-0.133-0.359c-0.521-1.266-1.109-2.496-1.762-3.687
					l-378.898-693.381c-6.642-12.155-19.393-19.718-33.255-19.718c-13.856,0-26.606,7.563-33.249,19.722l-378.896,693.38
					c-0.652,1.19-1.239,2.422-1.763,3.688c-0.049,0.116-0.083,0.238-0.132,0.358c-0.439,1.088-0.833,2.198-1.17,3.331
					c-0.104,0.343-0.175,0.687-0.266,1.031c-0.243,0.904-0.467,1.812-0.642,2.742c-0.091,0.48-0.146,0.967-0.224,1.456
					c-0.118,0.788-0.227,1.58-0.295,2.383c-0.05,0.587-0.07,1.175-0.087,1.762c-0.02,0.479-0.072,0.947-0.072,1.434
					c0,0.25,0.034,0.488,0.038,0.738c0.011,0.595,0.049,1.187,0.091,1.78c0.049,0.755,0.11,1.504,0.205,2.247
					c0.068,0.521,0.15,1.041,0.239,1.564c0.137,0.817,0.3,1.629,0.489,2.429c0.105,0.451,0.224,0.901,0.349,1.35
					c0.239,0.863,0.511,1.712,0.807,2.55c0.083,0.239,0.137,0.481,0.228,0.722l136.647,362.114
					c-10.961,5.435-21.101,12.65-30.009,21.557c-21.476,21.477-33.302,50.02-33.302,80.369c0,49.395,31.681,91.514,75.781,107.153
					v207.337c0,20.928,16.963,37.892,37.891,37.892h454.693c20.927,0,37.891-16.964,37.891-37.892V1728.83
					c15.796-5.573,30.281-14.646,42.482-26.85c21.473-21.477,33.298-50.02,33.298-80.369c0-44.607-25.838-83.275-63.326-101.876
					l136.668-362.164c0.091-0.239,0.144-0.481,0.228-0.722c0.295-0.838,0.568-1.687,0.808-2.55c0.125-0.446,0.237-0.897,0.348-1.35
					c0.19-0.8,0.351-1.61,0.489-2.429c0.087-0.523,0.175-1.042,0.239-1.564c0.095-0.743,0.153-1.492,0.204-2.247
					c0.037-0.595,0.078-1.187,0.091-1.78c0.004-0.246,0.038-0.488,0.038-0.738C1414.83,1143.705,1414.778,1143.235,1414.76,1142.754
					z M998.029,1106.3c20.9,0,37.897,16.998,37.897,37.892c0,20.893-16.997,37.891-37.897,37.891
					c-20.893,0-37.89-16.998-37.89-37.891C960.139,1123.298,977.136,1106.3,998.029,1106.3z M1187.489,1898.211H808.575v-162.929
					h378.912L1187.489,1898.211L1187.489,1898.211z M1252.163,1648.392c-7.161,7.165-16.676,11.109-26.784,11.109H770.686
					c-20.893,0-37.891-16.997-37.891-37.891c0-10.108,3.943-19.623,11.105-26.78c7.165-7.165,16.675-11.11,26.785-11.11h454.438
					c0.086,0,0.168,0.013,0.252,0.013c0.041,0,0.088-0.005,0.129-0.005c20.835,0.068,37.769,17.032,37.769,37.884
					C1263.27,1631.72,1259.323,1641.234,1252.163,1648.392z M1199.178,1507.939H796.887l-122.966-325.858h96.765
					c20.927,0,37.891-16.964,37.891-37.892c0-20.927-16.963-37.891-37.891-37.891h-87.679L960.138,599.15v437.886
					c-44.102,15.641-75.781,57.757-75.781,107.154c0,62.679,50.993,113.672,113.671,113.672c62.687,0,113.68-50.993,113.68-113.672
					c0-49.396-31.681-91.515-75.781-107.154V599.15l277.131,507.148h-87.678c-20.929,0-37.892,16.964-37.892,37.892
					c0,20.927,16.963,37.891,37.892,37.891h96.765L1199.178,1507.939z"/>
			</g>
		</g>
		<g>
			<g>
				
					<linearGradient id="SVGID_6_" gradientUnits="userSpaceOnUse" x1="-687.179" y1="1763.2754" x2="967.5541" y2="1763.2754" gradientTransform="matrix(1 0 0 -1 702.3999 2580.0098)">
					<stop  offset="0" style="stop-color:#00D78A"/>
					<stop  offset="1" style="stop-color:#079FA8"/>
				</linearGradient>
				<path fill="url(#SVGID_6_)" d="M264.865,543.333c-18.285-10.185-41.36-3.615-51.538,14.671
					c-53.702,96.439-87.93,200.445-102.089,309.584H65.923c-20.927,0-37.892,16.963-37.892,37.891v151.563
					c0,20.927,16.964,37.891,37.892,37.891h151.562c20.928,0,37.891-16.964,37.891-37.891V905.479
					c0-20.927-16.963-37.89-37.891-37.89h-29.839c13.667-96.041,44.499-187.604,91.893-272.717
					C289.719,576.59,283.153,553.515,264.865,543.333z M179.594,1019.151h-75.781V943.37h41.305c0.015,0,0.026,0,0.042,0
					c0.012,0,0.025,0,0.037,0h34.397V1019.151z"/>
			</g>
		</g>
	</g>
	<g display="inline">
		<g>
			
				<linearGradient id="SVGID_7_" gradientUnits="userSpaceOnUse" x1="-687.179" y1="2372.2266" x2="967.5541" y2="2372.2266" gradientTransform="matrix(1 0 0 -1 702.3999 2580.0098)">
				<stop  offset="0" style="stop-color:#00D78A"/>
				<stop  offset="1" style="stop-color:#079FA8"/>
			</linearGradient>
			<path fill="url(#SVGID_7_)" d="M1854.361,33.998c-49.394,0-91.513,31.68-107.153,75.781h-635.5v-37.89
				c0-20.927-16.964-37.891-37.891-37.891H922.248c-20.928,0-37.891,16.963-37.891,37.891v37.891h-635.5
				c-15.642-44.102-57.761-75.781-107.153-75.781c-62.68,0-113.673,50.993-113.673,113.672c0,62.678,50.993,113.671,113.673,113.671
				c49.394,0,91.513-31.681,107.153-75.781h380.928c-80.815,33.817-154.93,77.717-215.934,129.146
				c-16.001,13.489-18.036,37.395-4.547,53.392c7.495,8.893,18.207,13.47,28.986,13.47c8.625,0,17.293-2.925,24.401-8.919
				c108.715-91.649,263.862-157.105,421.665-179.06v29.862c0,20.927,16.963,37.891,37.891,37.891h151.568
				c20.927,0,37.891-16.964,37.891-37.891V193.59c157.804,21.954,312.949,87.41,421.664,179.056
				c7.108,5.994,15.778,8.923,24.402,8.919c10.783,0,21.494-4.577,28.986-13.47c13.492-15.993,11.453-39.897-4.549-53.388
				c-61.002-51.429-135.116-95.329-215.934-129.146h380.93c15.641,44.1,57.756,75.781,107.152,75.781
				c62.68,0,113.672-50.993,113.672-113.671C1968.031,84.991,1917.039,33.998,1854.361,33.998z M141.704,185.561
				c-20.894,0-37.892-16.998-37.892-37.891s16.998-37.891,37.892-37.891c20.892,0,37.89,16.998,37.89,37.891
				S162.596,185.561,141.704,185.561z M1035.926,147.67v3.41v34.48h-75.788v-34.48v-3.41v-37.891h75.788V147.67z M1854.361,185.561
				c-20.893,0-37.891-16.998-37.891-37.891s16.998-37.891,37.891-37.891c20.894,0,37.892,16.998,37.892,37.891
				C1892.25,168.563,1875.252,185.561,1854.361,185.561z"/>
		</g>
	</g>
</g>
</svg>
