<?xml version="1.0" encoding="utf-8"?>
<!-- Generator: Adobe Illustrator 16.0.0, SVG Export Plug-In . SVG Version: 6.00 Build 0)  -->
<!DOCTYPE svg PUBLIC "-//W3C//DTD SVG 1.1//EN" "http://www.w3.org/Graphics/SVG/1.1/DTD/svg11.dtd">
<svg version="1.1" id="Layer_1" xmlns="http://www.w3.org/2000/svg" xmlns:xlink="http://www.w3.org/1999/xlink" x="0px" y="0px"
	 width="2000px" height="2000px" viewBox="0 0 2000 2000" enable-background="new 0 0 2000 2000" xml:space="preserve">
<path fill="#666666" d="M192.81,461.046h1447.353c47.551,0,86.457,38.902,86.457,86.457v891.592H106.356V547.503
	C106.356,499.952,145.259,461.046,192.81,461.046z"/>
<path fill="#FFFFFF" d="M165.064,1380.383H1667.92v-832.88c0-15.141-12.605-27.746-27.746-27.746H192.822
	c-15.141,0-27.746,12.605-27.746,27.746v832.88H165.064L165.064,1380.383z"/>
<path fill="#ECF0F1" d="M196.165,638.574h1440.652v333.494H196.165V638.574z"/>
<path fill="#B6B6B8" d="M27.664,1439.095h1777.65v49.93c0,27.457-22.473,49.93-49.93,49.93H77.582
	c-27.457,0-49.93-22.473-49.93-49.93v-49.93H27.664z"/>
<path fill="#919191" d="M739.063,1457.341h354.846l-38.012,25.246h-278.83l-38.012-25.246H739.063z"/>
<path fill="#666666" d="M1293.476,774.989h531.62c16.859,0,30.523,13.664,30.523,30.523v702.914
	c0,16.859-13.664,30.523-30.523,30.523h-531.62c-16.859,0-30.523-13.664-30.523-30.523V805.513
	C1262.952,788.653,1276.62,774.989,1293.476,774.989z"/>
<path fill="#FFFFFF" d="M1300.062,829.056h518.456c1.957,0,3.543,1.586,3.543,3.543v631.285c0,1.957-1.586,3.543-3.543,3.543
	h-518.456c-1.957,0-3.543-1.586-3.543-3.543V832.603C1296.519,830.646,1298.105,829.056,1300.062,829.056z"/>
<circle fill="#B6B6B8" cx="1559.298" cy="1501.911" r="19.906"/>
<path fill="#ECF0F1" d="M1324.184,908.13h470.225v277.15h-470.225V908.13z"/>
<path fill="#666666" d="M1710.557,1048.428h246.294c8.559,0,15.492,6.938,15.492,15.492v459.542c0,8.559-6.938,15.492-15.492,15.492
	h-246.294c-8.559,0-15.492-6.938-15.492-15.492V1063.92C1695.065,1055.365,1701.998,1048.428,1710.557,1048.428z"/>
<path fill="#FFFFFF" d="M1722.092,1094.342h223.224c0.844,0,1.527,0.684,1.527,1.527v395.636c0,0.844-0.684,1.527-1.527,1.527
	h-223.224c-0.844,0-1.527-0.684-1.527-1.527v-395.639C1720.565,1095.026,1721.252,1094.342,1722.092,1094.342z"/>
<g>
	<circle fill="#B6B6B8" cx="1833.721" cy="1513.919" r="14.008"/>
	<path fill="#B6B6B8" d="M1796.233,1073.709h74.938c1.891,0,3.422,1.531,3.422,3.422v0.012c0,1.891-1.531,3.422-3.422,3.422h-74.938
		c-1.891,0-3.422-1.531-3.422-3.422v-0.012C1792.811,1075.24,1794.342,1073.709,1796.233,1073.709z"/>
</g>
<path fill="#1BBC9B" d="M1667.924,612.621H165.064v-65.118c0-15.141,12.605-27.746,27.746-27.746h1447.353
	c15.141,0,27.746,12.605,27.746,27.746v65.114h0.016V612.621z"/>
<path fill="#FFFFFF" d="M806.414,546.335h769.845c5.676,0,10.297,4.633,10.297,10.297v19.105c0,5.677-4.633,10.298-10.297,10.298
	H806.414c-5.676,0-10.297-4.633-10.297-10.298v-19.105C796.117,550.968,800.746,546.335,806.414,546.335z"/>
<g>
	<path fill="#ECF0F1" d="M229.001,545.628c12.859,0,23.289,10.422,23.289,23.289c0,12.868-10.43,23.29-23.289,23.29
		c-12.871,0-23.309-10.422-23.309-23.29C205.693,556.05,216.122,545.628,229.001,545.628z"/>
	<path fill="#ECF0F1" d="M320.939,545.628c12.872,0,23.29,10.422,23.29,23.289c0,12.868-10.422,23.29-23.29,23.29
		c-12.859,0-23.289-10.422-23.289-23.29C297.65,556.05,308.079,545.628,320.939,545.628z"/>
	<path fill="#ECF0F1" d="M412.901,545.628c12.859,0,23.289,10.422,23.289,23.289c0,12.868-10.43,23.29-23.289,23.29
		c-12.883,0-23.309-10.422-23.309-23.29C389.592,556.05,400.018,545.628,412.901,545.628z"/>
</g>
<path fill="#FF5B62" d="M356.053,1052.525c37.121,0,67.203,30.082,67.203,67.204c0,37.109-30.082,67.203-67.203,67.203
	c-37.11,0-67.192-30.094-67.192-67.203C288.861,1082.607,318.943,1052.525,356.053,1052.525z"/>
<path fill="#1BBC9B" d="M703.242,1052.525c37.109,0,67.191,30.082,67.191,67.204c0,37.109-30.082,67.203-67.191,67.203
	s-67.192-30.094-67.192-67.203C636.05,1082.607,666.133,1052.525,703.242,1052.525z"/>
<g>
	<path fill="#DCE3DB" d="M259.638,1215.745H452.49v10.461H259.638V1215.745L259.638,1215.745z M259.638,1281.488H389.17v10.461
		H259.638V1281.488L259.638,1281.488z M259.638,1248.621H452.49v10.453H259.638V1248.621L259.638,1248.621z"/>
	<path fill="#DCE3DB" d="M606.831,1215.745h192.841v10.461H606.831V1215.745z M606.831,1281.488h129.544v10.461H606.831V1281.488z
		 M606.831,1248.621h192.841v10.453H606.831V1248.621z"/>
</g>
<path fill="#FAD24D" d="M1071.78,1052.525c37.109,0,67.191,30.082,67.191,67.204c0,37.109-30.082,67.203-67.191,67.203
	s-67.191-30.094-67.191-67.203C1004.584,1082.607,1034.666,1052.525,1071.78,1052.525z"/>
<path fill="#DCE3DB" d="M975.365,1215.745h192.841v10.461H975.365V1215.745L975.365,1215.745z M975.365,1281.488h129.544v10.461
	H975.365L975.365,1281.488L975.365,1281.488z M975.365,1248.621h192.841v10.453H975.365V1248.621L975.365,1248.621z"/>
<path fill="#FF5B62" d="M1417.832,1225.206c23.031,0,41.711,18.681,41.711,41.712s-18.668,41.711-41.711,41.711
	c-23.031,0-41.711-18.68-41.711-41.711C1376.121,1243.883,1394.793,1225.206,1417.832,1225.206z"/>
<path fill="#DCE3DB" d="M1357.985,1326.52h119.695v8.465h-119.695V1326.52z M1357.985,1379.707h80.402v8.465h-80.402V1379.707z
	 M1357.985,1353.105h119.695v8.465h-119.695V1353.105z"/>
<path fill="#1BBC9B" d="M1580.634,1225.206c23.031,0,41.712,18.681,41.712,41.712s-18.681,41.711-41.712,41.711
	s-41.711-18.68-41.711-41.711C1538.923,1243.883,1557.603,1225.206,1580.634,1225.206z"/>
<path fill="#DCE3DB" d="M1520.785,1326.52h119.697v8.465h-119.697V1326.52z M1520.785,1379.707h80.403v8.465h-80.403V1379.707z
	 M1520.785,1353.105h119.697v8.465h-119.697V1353.105z"/>
<path fill="#1BBC9B" d="M1822.065,889.778h-525.558v-57.172c0-1.957,1.586-3.543,3.543-3.543h518.456
	c1.957,0,3.543,1.586,3.543,3.543v57.172H1822.065z"/>
<g>
	<path fill="#ECF0F1" d="M1335.465,846.333c7.563,0,13.68,6.117,13.68,13.668s-6.117,13.668-13.68,13.668
		c-7.551,0-13.668-6.117-13.668-13.668S1327.922,846.333,1335.465,846.333z"/>
	<path fill="#ECF0F1" d="M1373.949,846.333c7.551,0,13.668,6.117,13.668,13.668s-6.117,13.668-13.668,13.668
		s-13.668-6.117-13.668-13.668S1366.399,846.333,1373.949,846.333z"/>
	<path fill="#ECF0F1" d="M1412.434,846.333c7.551,0,13.668,6.117,13.668,13.668s-6.117,13.668-13.668,13.668
		s-13.668-6.117-13.668-13.668S1404.891,846.333,1412.434,846.333z"/>
</g>
<path fill="#FFFFFF" d="M1489.145,849.388h312.537c2.305,0,4.18,2.48,4.18,5.512v10.227c0,3.031-1.875,5.512-4.18,5.512h-312.537
	c-2.305,0-4.18-2.48-4.18-5.512v-10.227C1484.965,851.868,1486.84,849.388,1489.145,849.388z"/>
<path fill="#1BBC9B" d="M1946.843,1120.87h-226.278v-25c0-0.852,0.688-1.527,1.527-1.527h223.224c0.844,0,1.527,0.676,1.527,1.527
	V1120.87L1946.843,1120.87z"/>
<path fill="#FFFFFF" d="M1736.549,1098.831c4.324,0,7.816,3.492,7.816,7.816c0,4.313-3.492,7.816-7.816,7.816
	c-4.313,0-7.816-3.504-7.816-7.816C1728.733,1102.323,1732.237,1098.831,1736.549,1098.831z"/>
<g>
	<path fill="#ECF0F1" d="M1758.549,1098.831c4.324,0,7.816,3.492,7.816,7.816c0,4.313-3.492,7.816-7.816,7.816
		s-7.816-3.504-7.816-7.816C1750.733,1102.323,1754.233,1098.831,1758.549,1098.831z"/>
	<path fill="#ECF0F1" d="M1780.545,1098.831c4.324,0,7.816,3.492,7.816,7.816c0,4.313-3.492,7.816-7.816,7.816
		c-4.313,0-7.816-3.504-7.816-7.816C1772.729,1102.323,1776.233,1098.831,1780.545,1098.831z"/>
</g>
<path fill="#FFFFFF" d="M1812.319,1099.843h125.813c1.688,0,3.051,1.367,3.051,3.051v8.176c0,1.688-1.367,3.051-3.051,3.051
	h-125.813c-1.688,0-3.051-1.367-3.051-3.051v-8.176C1809.268,1101.214,1810.635,1099.843,1812.319,1099.843z"/>
<path fill="#ECF0F1" d="M1731.541,1129.437h204.329v120.435h-204.329V1129.437z"/>
<path fill="#FAD24D" d="M1839.705,1274.563c20.945,0,37.923,16.977,37.923,37.93c0,20.945-16.978,37.93-37.923,37.93
	s-37.922-16.977-37.922-37.93C1801.787,1291.547,1818.764,1274.563,1839.705,1274.563z"/>
<path fill="#DCE3DB" d="M1773.885,1378.039h131.642v9.301h-131.642V1378.039z M1773.885,1436.544h88.438v9.301h-88.438V1436.544z
	 M1773.885,1407.289h131.642v9.302h-131.642V1407.289z"/>
<path fill="#B6B6B8" d="M1492.824,796.708h132.942c1.891,0,3.422,1.531,3.422,3.422v0.012c0,1.891-1.531,3.422-3.422,3.422h-132.942
	c-1.891,0-3.422-1.531-3.422-3.422v-0.012C1489.403,798.243,1490.934,796.708,1492.824,796.708z"/>
</svg>
