<?xml version="1.0" encoding="utf-8"?>
<!-- Generator: Adobe Illustrator 16.0.0, SVG Export Plug-In . SVG Version: 6.00 Build 0)  -->
<!DOCTYPE svg PUBLIC "-//W3C//DTD SVG 1.1//EN" "http://www.w3.org/Graphics/SVG/1.1/DTD/svg11.dtd">
<svg version="1.1" id="Capa_1" xmlns="http://www.w3.org/2000/svg" xmlns:xlink="http://www.w3.org/1999/xlink" x="0px" y="0px"
	 width="2000px" height="2000px" viewBox="0 0 2000 2000" enable-background="new 0 0 2000 2000" xml:space="preserve">
<g>
	<g>
		<linearGradient id="SVGID_1_" gradientUnits="userSpaceOnUse" x1="10.7117" y1="1643.8125" x2="1799.8142" y2="1643.8125">
			<stop  offset="0" style="stop-color:#00D78A"/>
			<stop  offset="1" style="stop-color:#079FA8"/>
		</linearGradient>
		<path fill="url(#SVGID_1_)" d="M1672.66,1421.073l-111.862-113.843c-11.434-11.656-29.669-13.199-42.897-3.63l-487.378,359.017
			l-172.579-81.174l151.461-16.829c16.664-2.013,29.157-16.215,29.037-32.998v-142.551c0-18.223-14.774-32.998-32.997-32.998
			H840.455l-277.842-28.378c-5.635-0.549-11.318,0.359-16.499,2.64l-189.408,81.175H201.631l-35.139,65.996h197.144
			c4.533,0.037,9.029-0.862,13.199-2.641l187.758-82.164l270.912,27.718h138.261v81.835l-122.092,15.179l-177.198-18.809
			c-15.963-1.538-30.721,8.625-34.978,24.089c-4.298,15.405,3.072,31.678,17.488,38.607l365.946,168.289
			c10.795,4.908,23.392,3.65,32.998-3.3l479.789-352.417l65.995,68.635l-551.394,481.769h-149.48l-526.315-195.677
			c-3.68-1.456-7.594-2.24-11.55-2.31H36.639l-30.411,65.995h351.138l525.985,196.008c3.7,1.344,7.61,2.013,11.55,1.979h167.629
			c8.022-0.013,15.765-2.945,21.778-8.249l586.702-512.787c0.557-0.486,1.097-0.99,1.617-1.51
			C1685.526,1454.863,1685.538,1433.967,1672.66,1421.073z"/>
	</g>
</g>
<g>
	<g>
		<linearGradient id="SVGID_2_" gradientUnits="userSpaceOnUse" x1="4.5002" y1="658.8877" x2="1800.2507" y2="658.8877">
			<stop  offset="0" style="stop-color:#00D78A"/>
			<stop  offset="1" style="stop-color:#079FA8"/>
		</linearGradient>
		<path fill="url(#SVGID_2_)" d="M1760.436,835.361l-174.229-181.158c-5.548-5.882-13.063-9.524-21.118-10.229l-356.377-32.998
			H1072.76l6.6-98.993l129.021-26.068l180.168,40.258c3.713,0.639,7.508,0.639,11.22,0l175.219-20.789l-7.92-65.996l-169.608,18.149
			l-181.488-40.258c-4.438-1.146-9.091-1.146-13.529,0l-160.699,32.998c-14.796,2.834-25.792,15.323-26.729,30.358l-10.56,160.699
			c-0.041,0.681-0.062,1.357-0.058,2.037c0.033,18.224,14.832,32.974,33.056,32.94h168.289l341.198,31.019l175.548,183.798
			c6.2,6.5,14.779,10.196,23.759,10.229h233.625v-65.996H1760.436z"/>
	</g>
</g>
<g>
	<g>
		<linearGradient id="SVGID_3_" gradientUnits="userSpaceOnUse" x1="4.5002" y1="221.085" x2="1800.2507" y2="221.085">
			<stop  offset="0" style="stop-color:#00D78A"/>
			<stop  offset="1" style="stop-color:#079FA8"/>
		</linearGradient>
		<path fill="url(#SVGID_3_)" d="M1703.019,148.346c-3.646-2.953-7.944-4.991-12.539-5.939L1129.516,10.415
			c-9.503-1.992-19.398,0.301-27.058,6.27L739.482,280.667l38.938,53.457l350.767-255.073l539.186,126.711l291.371,226.695
			L2000,379.331L1703.019,148.346z"/>
	</g>
</g>
<g>
	<g>
		<linearGradient id="SVGID_4_" gradientUnits="userSpaceOnUse" x1="4.5002" y1="289.4458" x2="1800.2507" y2="289.4458">
			<stop  offset="0" style="stop-color:#00D78A"/>
			<stop  offset="1" style="stop-color:#079FA8"/>
		</linearGradient>
		<path fill="url(#SVGID_4_)" d="M1167.134,212.032c-8.604-3.869-18.454-3.869-27.059,0l-197.987,98.994l29.698,58.736
			l184.788-92.064l151.13,61.706l24.419-61.376L1167.134,212.032z"/>
	</g>
</g>
<g>
	<g>
		<linearGradient id="SVGID_5_" gradientUnits="userSpaceOnUse" x1="4.5002" y1="604.376" x2="1800.2507" y2="604.376">
			<stop  offset="0" style="stop-color:#00D78A"/>
			<stop  offset="1" style="stop-color:#079FA8"/>
		</linearGradient>
		<path fill="url(#SVGID_5_)" d="M825.936,577.648l-58.076-8.58c-26.398-3.959-41.907-14.188-41.907-30.688
			s23.099-32.998,54.116-31.349h23.759c31.019,0,54.116,16.499,54.116,31.349v8.909h65.996v-8.909
			c0-56.097-52.797-98.994-120.112-98.994h-23.759c-67.315,0-120.111,42.897-120.111,98.994
			c5.415,51.464,47.326,91.425,98.993,94.374l57.086,8.579c26.398,3.96,41.907,15.839,41.907,30.688
			c0,14.85-23.098,31.349-54.116,31.349h-23.759c-31.018,0-54.116-16.499-54.116-31.349v-8.909h-65.995v8.909
			c0,54.447,54.116,97.344,120.111,97.344h23.759c67.315,0,120.112-42.896,121.103-95.693
			C920.277,621.56,878.167,580.713,825.936,577.648z"/>
	</g>
</g>
<g>
	<g>
		<linearGradient id="SVGID_6_" gradientUnits="userSpaceOnUse" x1="4.5002" y1="604.377" x2="1800.2507" y2="604.377">
			<stop  offset="0" style="stop-color:#00D78A"/>
			<stop  offset="1" style="stop-color:#079FA8"/>
		</linearGradient>
		<path fill="url(#SVGID_6_)" d="M1053.621,639.024c-11.999,89.754-69.164,167.093-151.443,204.896
			c-132.479,60.869-289.219,2.813-350.087-129.665c-60.869-132.478-2.813-289.218,129.665-350.086s289.218-2.813,350.087,129.666
			l59.726-27.719c-53.931-116.87-170.896-191.717-299.612-191.717c-182.243-0.004-329.982,147.731-329.982,329.974
			c-0.004,182.243,147.731,329.979,329.975,329.983c165.624,0.288,305.808-122.245,327.669-286.422L1053.621,639.024z"/>
	</g>
</g>
<g>
	<g>
		<linearGradient id="SVGID_7_" gradientUnits="userSpaceOnUse" x1="4.5002" y1="439.4072" x2="1800.2507" y2="439.4072">
			<stop  offset="0" style="stop-color:#00D78A"/>
			<stop  offset="1" style="stop-color:#079FA8"/>
		</linearGradient>
		<rect x="758.95" y="406.41" fill="url(#SVGID_7_)" width="65.995" height="65.996"/>
	</g>
</g>
</svg>
