<?xml version="1.0" encoding="utf-8"?>
<!-- Generator: Adobe Illustrator 16.0.0, SVG Export Plug-In . SVG Version: 6.00 Build 0)  -->
<!DOCTYPE svg PUBLIC "-//W3C//DTD SVG 1.1//EN" "http://www.w3.org/Graphics/SVG/1.1/DTD/svg11.dtd">
<svg version="1.1" id="Layer_1" xmlns="http://www.w3.org/2000/svg" xmlns:xlink="http://www.w3.org/1999/xlink" x="0px" y="0px"
	 width="2000px" height="2000px" viewBox="0 0 2000 2000" enable-background="new 0 0 2000 2000" xml:space="preserve">
<path fill="#F7CB4F" d="M676.264,931.437c-6.508-20.012-23.484-34.32-44.309-37.348l-133.434-19.391l-59.671-120.91
	c-9.316-18.871-28.176-30.594-49.223-30.594c-21.043,0-39.902,11.723-49.219,30.594l-59.664,120.91l-133.43,19.391
	c-20.828,3.023-37.804,17.332-44.312,37.348c-6.508,20.012-1.184,41.574,13.886,56.277l96.555,94.113l-22.789,132.891
	c-3.559,20.746,4.809,41.313,21.828,53.688c9.625,6.991,20.879,10.538,32.215,10.538c8.723,0,17.488-2.105,25.594-6.363
	l119.344-62.741l119.343,62.741c18.629,9.793,40.773,8.191,57.797-4.175c17.027-12.367,25.395-32.941,21.836-53.688l-22.793-132.891
	l96.555-94.121C677.451,973.015,682.768,951.452,676.264,931.437z"/>
<path fill="#FBAB00" d="M631.959,894.089l-2.965-0.43l-150.87,148.918c-7.75,7.555-11.285,18.438-9.457,29.102l35.546,198.387
	l4.77,2.507c18.629,9.793,40.773,8.191,57.797-4.175c17.027-12.367,25.395-32.941,21.836-53.688l-22.793-132.891l96.555-94.121
	c15.074-14.691,20.395-36.254,13.891-56.273C669.756,911.417,652.78,897.108,631.959,894.089z"/>
<path fill="#F7CB4F" d="M1293.556,716.242c-6.508-20.012-23.484-34.32-44.309-37.348l-133.434-19.39l-59.663-120.91
	c-9.317-18.871-28.176-30.594-49.219-30.594c-21.047,0-39.902,11.723-49.219,30.594l-59.672,120.91l-133.43,19.39
	c-20.828,3.02-37.805,17.332-44.313,37.348s-1.184,41.574,13.887,56.277l96.559,94.117l-22.793,132.887
	c-3.559,20.746,4.809,41.313,21.828,53.688c17.027,12.371,39.168,13.969,57.805,4.18l119.343-62.742l119.344,62.742
	c8.102,4.262,16.867,6.363,25.594,6.363c11.336,0,22.59-3.555,32.215-10.539c17.023-12.371,25.391-32.941,21.828-53.684
	l-22.793-132.89l96.563-94.121C1294.743,757.82,1300.064,736.257,1293.556,716.242z"/>
<path fill="#FBAB00" d="M1184.079,1053.202c17.023-12.371,25.391-32.941,21.828-53.684l-22.793-132.891l96.563-94.121
	c15.066-14.695,20.391-36.258,13.883-56.273c-6.508-20.012-23.484-34.32-44.309-37.347l-1.223-0.176l-152.616,148.66
	c-7.746,7.551-11.285,18.438-9.457,29.101l27.629,161.074l6.617,36.633l6.069,3.188c8.102,4.262,16.867,6.363,25.594,6.363
	C1163.2,1063.741,1174.458,1060.19,1184.079,1053.202z"/>
<path fill="#F7CB4F" d="M1909.715,931.437c-6.508-20.012-23.484-34.32-44.309-37.348l-133.434-19.391l-59.672-120.91
	c-9.316-18.871-28.172-30.594-49.219-30.594s-39.902,11.723-49.219,30.594l-59.672,120.91l-133.429,19.391
	c-20.828,3.023-37.805,17.332-44.313,37.348c-6.504,20.016-1.188,41.578,13.891,56.273l96.555,94.121l-22.793,132.887
	c-3.559,20.746,4.809,41.313,21.828,53.688c17.027,12.371,39.164,13.972,57.805,4.18l119.343-62.742l119.344,62.742
	c8.102,4.262,16.867,6.363,25.594,6.363c11.336,0,22.59-3.556,32.215-10.539c17.023-12.371,25.391-32.941,21.828-53.684
	l-22.793-132.891l96.563-94.121C1910.903,973.011,1916.223,951.448,1909.715,931.437z"/>
<path fill="#FBAB00" d="M1909.715,931.437c-6.508-20.012-23.484-34.32-44.309-37.348l-2.367-0.344l-151.473,148.832
	c-7.746,7.555-11.285,18.438-9.457,29.102l32.066,196.563l8.246,4.336c8.102,4.262,16.867,6.363,25.594,6.363
	c11.336,0,22.59-3.556,32.215-10.539c17.023-12.371,25.391-32.941,21.828-53.684l-22.793-132.891l96.563-94.121
	C1910.903,973.011,1916.223,951.448,1909.715,931.437z"/>
</svg>
