<?xml version="1.0" encoding="utf-8"?>
<!-- Generator: Adobe Illustrator 16.0.0, SVG Export Plug-In . SVG Version: 6.00 Build 0)  -->
<!DOCTYPE svg PUBLIC "-//W3C//DTD SVG 1.1//EN" "http://www.w3.org/Graphics/SVG/1.1/DTD/svg11.dtd">
<svg version="1.1" id="Capa_1" xmlns="http://www.w3.org/2000/svg" xmlns:xlink="http://www.w3.org/1999/xlink" x="0px" y="0px"
	 width="2000px" height="2000px" viewBox="0 0 2000 2000" enable-background="new 0 0 2000 2000" xml:space="preserve">
<path fill="#F29F5C" d="M1633.814,973.055l-50.805-412.705l-95.202,11.719l0.039-0.066l-184.57-103.871
	c-19.688-11.078-42.281-15.898-64.776-13.82l-291.429,26.953c-35.824,3.313-67.836,23.754-85.91,54.863L655.755,889.672
	c-15.168,26.105-3.262,59.586,24.984,70.254l8.402,3.172c16.164,6.105,32.777,9.641,49.382,11.023l-26.026,22.668l-52.07,45.367
	L512.33,1168.483c-26.363,22.965-29.102,62.926-6.137,89.289l15.023,17.207c29.491,33.82,80.823,37.332,114.706,7.832l56.602,64.922
	c18.402,21.132,45.363,30.479,71.265,27.292c15.566-1.914,30.754-8.367,43.438-19.46l56.539,64.925
	c18.469,21.188,45.426,30.473,71.328,27.285c15.566-1.918,30.758-8.309,43.445-19.398l30.727,26.555
	c29.499,33.879,80.89,37.383,114.772,7.883l41.77-36.441l351.155-273.483l0.379-0.348l138.546-0.137L1633.814,973.055z"/>
<path fill="#D37D42" d="M1483.319,1046.219l-0.379,0.348l-351.155,273.483l-41.77,36.441
	c-33.879,29.499-85.272,25.995-114.772-7.883l-30.727-26.555c-12.688,11.09-27.883,17.484-43.445,19.398
	c-25.902,3.188-52.855-6.098-71.328-27.285l-56.539-64.926c-12.688,11.09-27.874,17.543-43.437,19.461
	c-25.902,3.188-52.863-6.156-71.266-27.293l-56.602-64.922c-29.008,25.258-70.772,26.242-100.706,4.793
	c-15.352,23.148-14.125,54.523,5.012,76.492l15.023,17.207c29.491,33.82,80.823,37.332,114.706,7.832l56.602,64.922
	c18.402,21.132,45.363,30.479,71.265,27.292c15.566-1.914,30.75-8.367,43.438-19.46l56.539,64.929
	c18.469,21.188,45.426,30.473,71.328,27.285c15.566-1.918,30.758-8.309,43.445-19.398l30.727,26.555
	c29.499,33.879,80.89,37.383,114.772,7.883l41.77-36.441l351.155-273.483l0.378-0.348l138.547-0.137l-15.328-124.515
	L1483.319,1046.219z"/>
<path fill="#F9C295" d="M1547.264,1224.733l-188.145-162.226l-52.32-45.078l-37.438-32.242l-160.964-138.749l18.59-158.242
	c6.289-53.52-27.402-103.624-79.34-117.995l-350.877-97.09c-37.125-10.273-76.363,6.953-93.926,41.238l-44.125,86.133
	l-189.405-12.855l-48.516,412.982l-21.086,179.472l184.367,12.262l0.383,0.348l385.162,332.003l41.973,36.211
	c34.043,29.313,85.414,25.523,114.726-8.52l56.172-65.18c12.746,11.02,27.977,17.328,43.555,19.16
	c25.918,3.047,52.824-6.391,71.176-27.68l56.179-65.238c12.746,11.02,27.969,17.391,43.547,19.219
	c25.918,3.047,52.828-6.449,71.113-27.688l56.238-65.233c34.043,29.312,85.355,25.515,114.659-8.469l14.93-17.293
	C1576.712,1287.499,1573.751,1247.554,1547.264,1224.733z"/>
<g>
	<path fill="#E59F6A" d="M1547.264,1224.733l-57.309-49.414c18.625,24.699,18.242,59.836-2.777,84.234l-15.848,18.355
		c-31.109,36.074-85.578,40.105-121.719,8.988l-59.703,69.249c-19.41,22.543-47.977,32.621-75.491,29.391
		c-16.535-1.941-32.695-8.703-46.227-20.402l-59.641,69.258c-19.48,22.598-48.039,32.613-75.554,29.383
		c-16.535-1.941-32.703-8.641-46.234-20.34l-59.633,69.195c-11.234,13.051-25.543,21.844-40.914,26.375l25.387,21.902
		c34.043,29.313,85.414,25.523,114.727-8.52l56.171-65.18c12.746,11.02,27.977,17.328,43.555,19.16
		c25.918,3.043,52.824-6.391,71.176-27.68l56.18-65.238c12.745,11.02,27.968,17.391,43.546,19.219
		c25.918,3.047,52.828-6.449,71.113-27.688l56.238-65.233c34.043,29.312,85.355,25.515,114.66-8.469l14.93-17.293
		C1576.712,1287.499,1573.751,1247.554,1547.264,1224.733z"/>
	<path fill="#E59F6A" d="M1443.354,1318.026l-103.094-88.891c-12.246-10.563-30.75-9.195-41.32,3.059
		c-10.566,12.254-9.195,30.754,3.059,41.32l102.91,88.733l19.398-22.5c7.742,6.668,16.402,11.531,25.469,14.809
		C1456.467,1342.647,1454.096,1327.288,1443.354,1318.026z"/>
	<path fill="#E59F6A" d="M1278.522,1428.225c7.059-11.973,4.797-27.633-6.102-37.031l-92.608-79.847
		c-12.254-10.563-30.75-9.195-41.32,3.059c-10.566,12.254-9.195,30.753,3.059,41.319l92.608,79.848
		c0.039,0.031,0.078,0.059,0.117,0.09l19.133-22.219C1261.037,1420.041,1269.569,1424.936,1278.522,1428.225z"/>
</g>
<g>
	<path fill="#F29F5C" d="M493.69,1191.929l-22.316,29.469c-24.301,32.09-17.988,77.805,14.102,102.109l0,0
		c32.09,24.301,77.804,17.988,102.108-14.102l22.316-29.469c24.301-32.09,17.988-77.805-14.102-102.109l0,0
		C563.708,1153.526,517.99,1159.839,493.69,1191.929z"/>
	<path fill="#F29F5C" d="M629.611,1253.909l-42.027,55.496c-24.301,32.09-17.988,77.804,14.102,102.108l0,0
		c32.09,24.301,77.805,17.988,102.109-14.102l42.026-55.495c24.301-32.09,17.988-77.805-14.102-102.109l0,0
		C699.626,1215.507,653.911,1221.819,629.611,1253.909z"/>
	<path fill="#F29F5C" d="M761.067,1321.78l-57.276,75.632c-24.301,32.09-17.988,77.805,14.102,102.109l0,0
		c32.089,24.301,77.804,17.988,102.108-14.102l57.277-75.633c24.301-32.089,17.988-77.804-14.102-102.108l0,0
		C831.086,1283.374,785.371,1289.69,761.067,1321.78z"/>
	<path fill="#F29F5C" d="M880.602,1405.396L820,1485.416c-24.301,32.09-17.988,77.805,14.102,102.109l0,0
		c32.09,24.301,77.805,17.988,102.109-14.102l60.602-80.02c24.301-32.09,17.988-77.805-14.102-102.108l0,0
		C950.617,1366.994,904.903,1373.307,880.602,1405.396z"/>
	<path fill="#F29F5C" d="M1487.846,572.002l-184.57-103.871c-19.688-11.078-42.281-15.898-64.776-13.82l-291.429,26.953
		c-35.824,3.313-67.836,23.754-85.91,54.863L655.755,889.672c-15.168,26.109-3.262,59.586,24.984,70.254l8.402,3.172
		c75.292,28.438,160.323,4.238,209.358-59.578l78.699-102.421c0,0,189.175,219.034,397.455-36.758"/>
</g>
<path fill="#5C9CEE" d="M1999.778,1207.593l-96.535-784.181c-0.949-7.711-4.922-14.73-11.047-19.511s-13.895-6.93-21.609-5.984
	l-225.733,27.789c-58.629,7.219-100.453,60.789-93.234,119.414l77.516,629.685c6.672,54.207,52.964,94.047,106.249,94.047
	c4.344,0,8.746-0.266,13.164-0.809l225.734-27.789C1990.336,1238.272,2001.754,1223.651,1999.778,1207.593z"/>
<path fill="#3580D3" d="M1999.778,1207.593l-10.598-86.078c-4.805,7.051-12.477,12.09-21.609,13.215l-236.629,29.129
	c-4.633,0.57-9.246,0.848-13.801,0.848c-39.843,0-75.94-21.258-95.909-54.062l7.898,64.155
	c6.672,54.207,52.965,94.047,106.249,94.047c4.344,0,8.746-0.266,13.164-0.809l225.734-27.789
	C1990.336,1238.272,2001.754,1223.651,1999.778,1207.593z"/>
<path fill="#ED5575" d="M355.147,425.701l-225.733-27.789c-7.723-0.949-15.484,1.203-21.609,5.984s-10.098,11.801-11.047,19.511
	L0.223,1207.593c-1.977,16.059,9.441,30.68,25.496,32.656l225.733,27.789c4.422,0.543,8.816,0.809,13.164,0.809
	c53.28,0,99.577-39.844,106.249-94.047l77.516-629.685C455.6,486.49,413.776,432.92,355.147,425.701z"/>
<path fill="#CC3A60" d="M0.223,1207.593l10.598-86.078c4.805,7.051,12.477,12.09,21.609,13.215l236.628,29.129
	c4.633,0.57,9.246,0.848,13.801,0.848c39.843,0,75.94-21.258,95.909-54.062l-7.898,64.155
	c-6.672,54.207-52.965,94.047-106.249,94.047c-4.344,0-8.746-0.266-13.164-0.809l-225.733-27.789
	C9.66,1238.272-1.754,1223.651,0.223,1207.593z"/>
<g>
	<circle fill="#EBEEF2" cx="1812.492" cy="1082.031" r="56.632"/>
	<circle fill="#EBEEF2" cx="184.335" cy="1082.031" r="56.632"/>
</g>
</svg>
