<?xml version="1.0" encoding="utf-8"?>
<!-- Generator: Adobe Illustrator 16.0.0, SVG Export Plug-In . SVG Version: 6.00 Build 0)  -->
<!DOCTYPE svg PUBLIC "-//W3C//DTD SVG 1.1//EN" "http://www.w3.org/Graphics/SVG/1.1/DTD/svg11.dtd">
<svg version="1.1" id="Capa_1" xmlns="http://www.w3.org/2000/svg" xmlns:xlink="http://www.w3.org/1999/xlink" x="0px" y="0px"
	 width="2000px" height="2000px" viewBox="0 0 2000 2000" enable-background="new 0 0 2000 2000" xml:space="preserve">
<g display="none">
	<g display="inline">
		<g>
			
				<linearGradient id="SVGID_1_" gradientUnits="userSpaceOnUse" x1="-603.1707" y1="1580.0098" x2="1071.9667" y2="1580.0098" gradientTransform="matrix(1 0 0 -1 702.3999 2580.0098)">
				<stop  offset="0" style="stop-color:#00D78A"/>
				<stop  offset="1" style="stop-color:#079FA8"/>
			</linearGradient>
			<path fill="url(#SVGID_1_)" d="M1781.246,433.596c21.569,0,39.063-17.488,39.063-39.062V39.066
				c0-12.488-5.969-24.227-16.066-31.578c-10.094-7.355-23.102-9.438-34.984-5.603L1000,249.956L230.745,1.887
				c-11.902-3.836-24.892-1.754-34.984,5.603c-10.098,7.352-16.07,19.09-16.07,31.578v1669.935c0,16.953,10.938,31.973,27.074,37.18
				l781.247,251.934h0.004c3.875,1.25,7.918,1.887,11.988,1.887c4.02,0,8.063-0.621,11.983-1.883l781.246-251.934
				c16.137-5.207,27.074-20.223,27.074-37.18V711.614c0-21.574-17.492-39.063-39.063-39.063c-21.57,0-39.063,17.488-39.063,39.063
				v968.94l-703.122,226.737V319.444l703.122-226.738v301.827C1742.184,416.108,1759.676,433.596,1781.246,433.596z
				 M960.938,1907.293l-703.122-226.737V92.707l703.122,226.738V1907.293z"/>
		</g>
	</g>
	<g display="inline">
		<g>
			
				<linearGradient id="SVGID_2_" gradientUnits="userSpaceOnUse" x1="-603.1707" y1="2029.2266" x2="1071.9667" y2="2029.2266" gradientTransform="matrix(1 0 0 -1 702.3999 2580.0098)">
				<stop  offset="0" style="stop-color:#00D78A"/>
				<stop  offset="1" style="stop-color:#079FA8"/>
			</linearGradient>
			<path fill="url(#SVGID_2_)" d="M1808.86,523.166c-7.262-7.266-17.34-11.445-27.613-11.445c-10.272,0-20.352,4.181-27.617,11.445
				c-7.264,7.265-11.444,17.344-11.444,27.617c0,10.272,4.176,20.352,11.444,27.617c7.27,7.265,17.345,11.444,27.617,11.444
				c10.273,0,20.353-4.18,27.613-11.444c7.266-7.267,11.449-17.345,11.449-27.617C1820.309,540.51,1816.129,530.432,1808.86,523.166
				z"/>
		</g>
	</g>
	<g display="inline">
		<g>
			
				<linearGradient id="SVGID_3_" gradientUnits="userSpaceOnUse" x1="-603.1707" y1="1925.9697" x2="1071.9666" y2="1925.9697" gradientTransform="matrix(1 0 0 -1 702.3999 2580.0098)">
				<stop  offset="0" style="stop-color:#00D78A"/>
				<stop  offset="1" style="stop-color:#079FA8"/>
			</linearGradient>
			<path fill="url(#SVGID_3_)" d="M821.438,458.303L421.291,329.265c-11.902-3.832-24.892-1.754-34.984,5.601
				c-10.098,7.352-16.066,19.086-16.066,31.574v446.155c0,16.961,10.938,31.978,27.07,37.185l400.15,129.038
				c3.926,1.266,7.965,1.883,11.983,1.883c8.164,0,16.234-2.56,23-7.488c10.099-7.352,16.066-19.086,16.066-31.574V495.482
				C848.512,478.529,837.573,463.51,821.438,458.303z M770.391,887.996L448.365,784.153V420.084L770.39,523.927L770.391,887.996
				L770.391,887.996z"/>
		</g>
	</g>
	<g display="inline">
		<g>
			
				<linearGradient id="SVGID_4_" gradientUnits="userSpaceOnUse" x1="-603.1707" y1="1463.4326" x2="1071.9666" y2="1463.4326" gradientTransform="matrix(1 0 0 -1 702.3999 2580.0098)">
				<stop  offset="0" style="stop-color:#00D78A"/>
				<stop  offset="1" style="stop-color:#079FA8"/>
			</linearGradient>
			<path fill="url(#SVGID_4_)" d="M821.442,1143.917l-400.15-129.038c-20.551-6.613-42.551,4.66-49.168,25.188
				c-6.616,20.53,4.656,42.547,25.188,49.168l400.15,129.038c3.987,1.284,8.026,1.895,11.995,1.895
				c16.5,0,31.832-10.539,37.173-27.086C853.25,1172.554,841.973,1150.538,821.442,1143.917z"/>
		</g>
	</g>
	<g display="inline">
		<g>
			
				<linearGradient id="SVGID_5_" gradientUnits="userSpaceOnUse" x1="-603.1707" y1="1247.3008" x2="1071.9666" y2="1247.3008" gradientTransform="matrix(1 0 0 -1 702.3999 2580.0098)">
				<stop  offset="0" style="stop-color:#00D78A"/>
				<stop  offset="1" style="stop-color:#079FA8"/>
			</linearGradient>
			<path fill="url(#SVGID_5_)" d="M821.442,1360.05l-400.15-129.039c-20.551-6.612-42.551,4.66-49.168,25.188
				c-6.616,20.531,4.656,42.547,25.188,49.168l400.15,129.038c3.987,1.284,8.026,1.895,11.995,1.895
				c16.5,0,31.832-10.539,37.173-27.086C853.25,1388.686,841.973,1366.674,821.442,1360.05z"/>
		</g>
	</g>
	<g display="inline">
		<g>
			
				<linearGradient id="SVGID_6_" gradientUnits="userSpaceOnUse" x1="-603.1707" y1="1031.168" x2="1071.9666" y2="1031.168" gradientTransform="matrix(1 0 0 -1 702.3999 2580.0098)">
				<stop  offset="0" style="stop-color:#00D78A"/>
				<stop  offset="1" style="stop-color:#079FA8"/>
			</linearGradient>
			<path fill="url(#SVGID_6_)" d="M821.442,1576.182l-400.15-129.039c-20.551-6.612-42.551,4.66-49.168,25.188
				c-6.616,20.531,4.656,42.547,25.188,49.168l400.15,129.038c3.987,1.286,8.026,1.895,11.995,1.895
				c16.5,0,31.832-10.539,37.173-27.085C853.25,1604.814,841.973,1582.803,821.442,1576.182z"/>
		</g>
	</g>
	<g display="inline">
		<g>
			
				<linearGradient id="SVGID_7_" gradientUnits="userSpaceOnUse" x1="-603.1702" y1="1254.25" x2="1071.967" y2="1254.25" gradientTransform="matrix(1 0 0 -1 702.3999 2580.0098)">
				<stop  offset="0" style="stop-color:#00D78A"/>
				<stop  offset="1" style="stop-color:#079FA8"/>
			</linearGradient>
			<path fill="url(#SVGID_7_)" d="M1613.09,1006.586c-10.094-7.352-23.104-9.434-34.983-5.602l-400.146,129.039
				c-16.138,5.207-27.074,20.223-27.074,37.179v446.155c0,12.487,5.969,24.227,16.065,31.573c6.763,4.927,14.832,7.488,23,7.488
				c4.021,0,8.063-0.621,11.984-1.883l400.146-129.039c16.138-5.207,27.074-20.224,27.074-37.181v-446.153
				C1629.156,1025.676,1623.189,1013.938,1613.09,1006.586z M1551.032,1455.873l-322.022,103.844v-364.068l322.021-103.844
				L1551.032,1455.873L1551.032,1455.873z"/>
		</g>
	</g>
	<g display="inline">
		<g>
			
				<linearGradient id="SVGID_8_" gradientUnits="userSpaceOnUse" x1="-603.1687" y1="1716.7832" x2="1071.9651" y2="1716.7832" gradientTransform="matrix(1 0 0 -1 702.3999 2580.0098)">
				<stop  offset="0" style="stop-color:#00D78A"/>
				<stop  offset="1" style="stop-color:#079FA8"/>
			</linearGradient>
			<path fill="url(#SVGID_8_)" d="M1627.271,786.716c-6.621-20.531-28.629-31.809-49.168-25.188l-400.146,129.038
				c-20.531,6.621-31.813,28.637-25.188,49.168c5.336,16.547,20.672,27.086,37.172,27.086c3.974,0,8.012-0.613,11.996-1.896
				l400.146-129.038C1622.615,829.259,1633.896,807.247,1627.271,786.716z"/>
		</g>
	</g>
	<g display="inline">
		<g>
			
				<linearGradient id="SVGID_9_" gradientUnits="userSpaceOnUse" x1="-603.1687" y1="1932.916" x2="1071.9651" y2="1932.916" gradientTransform="matrix(1 0 0 -1 702.3999 2580.0098)">
				<stop  offset="0" style="stop-color:#00D78A"/>
				<stop  offset="1" style="stop-color:#079FA8"/>
			</linearGradient>
			<path fill="url(#SVGID_9_)" d="M1627.271,570.584c-6.621-20.531-28.629-31.809-49.168-25.188l-400.146,129.037
				c-20.531,6.621-31.813,28.638-25.188,49.168c5.336,16.547,20.672,27.086,37.172,27.086c3.974,0,8.012-0.612,11.996-1.895
				l400.146-129.038C1622.615,613.131,1633.896,591.119,1627.271,570.584z"/>
		</g>
	</g>
	<g display="inline">
		<g>
			
				<linearGradient id="SVGID_10_" gradientUnits="userSpaceOnUse" x1="-603.1687" y1="2149.043" x2="1071.9651" y2="2149.043" gradientTransform="matrix(1 0 0 -1 702.3999 2580.0098)">
				<stop  offset="0" style="stop-color:#00D78A"/>
				<stop  offset="1" style="stop-color:#079FA8"/>
			</linearGradient>
			<path fill="url(#SVGID_10_)" d="M1627.271,354.456c-6.621-20.531-28.629-31.808-49.168-25.187l-400.146,129.038
				c-20.531,6.621-31.813,28.638-25.188,49.168c5.336,16.547,20.672,27.086,37.172,27.086c3.974,0,8.012-0.612,11.996-1.895
				l400.146-129.039C1622.615,396.999,1633.896,374.987,1627.271,354.456z"/>
		</g>
	</g>
</g>
<g display="none">
	<g display="inline">
		
			<linearGradient id="SVGID_11_" gradientUnits="userSpaceOnUse" x1="-688.3513" y1="1584.5117" x2="1278.5979" y2="1584.5117" gradientTransform="matrix(1 0 0 -1 702.3999 2580.0098)">
			<stop  offset="0" style="stop-color:#00D78A"/>
			<stop  offset="1" style="stop-color:#079FA8"/>
		</linearGradient>
		<path fill="url(#SVGID_11_)" d="M1953.526,290.941L1702.054,39.469c-36.628-36.628-96.229-36.624-132.857,0l-473.474,473.471
			c-11.855,11.858-11.855,31.075,0,42.936c11.854,11.852,31.076,11.852,42.933,0l473.47-473.47
			c6.277-6.277,14.623-9.731,23.496-9.731c8.875,0,17.221,3.454,23.496,9.731l251.478,251.472c6.272,6.273,9.73,14.618,9.73,23.497
			c0,8.875-3.458,17.219-9.73,23.493l-61.716,61.715l-161.696-161.694c-11.854-11.852-31.076-11.852-42.933,0
			c-11.855,11.86-11.855,31.077,0,42.936l161.693,161.693l-70.508,70.509l-71.066-71.065c-11.854-11.852-31.074-11.852-42.932,0
			c-11.855,11.86-11.855,31.076,0,42.937l71.064,71.062l-70.509,70.508l-71.064-71.064c-11.855-11.853-31.076-11.853-42.931,0
			c-11.856,11.859-11.856,31.076,0,42.936l71.063,71.063l-70.509,70.508l-161.697-161.7c-11.853-11.849-31.076-11.856-42.932,0
			c-11.856,11.859-11.856,31.076,0,42.936l161.696,161.697l-70.508,70.508l-71.065-71.064c-11.855-11.853-31.075-11.853-42.933,0
			c-11.854,11.858-11.854,31.076,0,42.936l71.062,71.063l-59.646,59.647L994.065,700.461l55.515-55.518
			c11.854-11.86,11.854-31.077,0-42.938c-11.855-11.852-31.077-11.852-42.934,0l-55.517,55.519L391.118,97.534
			c-38.947-38.948-90.73-60.397-145.812-60.397C190.229,37.141,138.445,58.59,99.5,97.538c-38.952,38.948-60.4,90.728-60.4,145.811
			c0,55.08,21.449,106.863,60.397,145.811l559.999,559.999L41.52,1567.146c-36.628,36.631-36.628,96.229,0,132.859l251.473,251.478
			c17.74,17.74,41.333,27.515,66.429,27.515c25.094,0,48.687-9.773,66.428-27.515l617.983-617.983l44.015,44.016
			c11.855,11.854,31.075,11.854,42.932,0c11.855-11.858,11.855-31.076,0-42.936l-60.754-60.754c-1.18-1.868-2.562-3.644-4.188-5.27
			c-1.625-1.624-3.4-3.008-5.264-4.187L402.772,606.567l81.412-81.411l50.335,50.335c5.928,5.924,13.696,8.89,21.467,8.89
			c7.772,0,15.541-2.966,21.468-8.89c11.856-11.859,11.856-31.076,0-42.937l-50.33-50.332l81.411-81.411l321.094,321.093
			c0.012,0.016,0.022,0.026,0.038,0.043c0.016,0.015,0.026,0.022,0.041,0.039l338.389,338.389c0.837,1.106,1.729,2.19,2.74,3.2
			c1.01,1.011,2.09,1.9,3.194,2.739l450.521,450.519l-81.412,81.412l-454.545-454.545c-0.273-0.297-0.521-0.608-0.809-0.893
			L1006.524,961.54c-0.3-0.299-0.626-0.561-0.935-0.845L685.404,640.514c-11.854-11.852-31.076-11.852-42.932,0
			c-11.855,11.859-11.855,31.076,0,42.937l957.726,957.725l-81.416,81.411l-288.503-288.507c-11.855-11.854-31.076-11.854-42.933,0
			c-11.855,11.858-11.855,31.076,0,42.936l309.971,309.973c2.947,2.946,6.598,5.323,10.481,6.831l366.806,142.411
			c5.786,2.243,11.817,3.334,17.805,3.334c12.838,0,25.446-5.024,34.855-14.44c13.796-13.804,18.137-34.473,11.064-52.659
			l-142.563-366.639c-1.506-3.872-3.885-7.529-6.827-10.468l-453.479-453.481l618.065-618.072
			C1990.156,387.17,1990.156,327.573,1953.526,290.941z M1000.91,1290.568l-59.574,59.56l-71.065-71.065
			c-11.854-11.853-31.076-11.853-42.932,0c-11.856,11.859-11.856,31.076,0,42.937l71.064,71.065l-70.508,70.508l-161.697-161.697
			c-11.855-11.852-31.077-11.852-42.932,0c-11.856,11.86-11.856,31.076,0,42.938l161.697,161.696l-70.509,70.509l-71.064-71.065
			c-11.856-11.853-31.076-11.853-42.932,0c-11.856,11.859-11.856,31.076,0,42.937l71.064,71.063l-70.508,70.509l-71.065-71.064
			c-11.855-11.854-31.077-11.854-42.932,0c-11.856,11.858-11.856,31.076,0,42.935l71.065,71.065l-70.51,70.509l-161.697-161.697
			c-11.855-11.852-31.075-11.852-42.932,0c-11.855,11.86-11.855,31.076,0,42.938l161.697,161.692l-61.714,61.714
			c-6.278,6.278-14.622,9.735-23.497,9.735s-17.219-3.457-23.497-9.735L84.464,1657.071c-12.954-12.955-12.954-34.034,0-46.989
			l617.979-617.983L1000.91,1290.568z M142.429,346.229c-56.728-56.728-56.728-149.031,0-205.758
			c56.728-56.731,149.031-56.731,205.758,0l95.953,95.952L238.382,442.181L142.429,346.229z M462.739,460.733
			c-0.008,0.007-0.016,0.011-0.02,0.019c-0.008,0.008-0.012,0.016-0.021,0.02L359.839,563.631l-78.522-78.521L487.075,279.35
			l78.522,78.522L462.739,460.733z M1872.31,1870.202l-299.137-116.134l182.874-182.872L1872.31,1870.202z"/>
	</g>
</g>
<g display="none">
	<g display="inline">
		<g>
			<g>
				
					<linearGradient id="SVGID_12_" gradientUnits="userSpaceOnUse" x1="-687.1785" y1="2129.2168" x2="967.5547" y2="2129.2168" gradientTransform="matrix(1 0 0 -1 702.3999 2580.0098)">
					<stop  offset="0" style="stop-color:#00D78A"/>
					<stop  offset="1" style="stop-color:#079FA8"/>
				</linearGradient>
				<path fill="url(#SVGID_12_)" d="M1664.907,412.903c-20.916,0-37.89,16.975-37.89,37.891c0,20.915,16.974,37.89,37.89,37.89
					c20.915,0,37.892-16.975,37.892-37.89C1702.799,429.878,1685.823,412.903,1664.907,412.903z"/>
			</g>
		</g>
		<g>
			<g>
				
					<linearGradient id="SVGID_13_" gradientUnits="userSpaceOnUse" x1="-687.179" y1="2129.2168" x2="967.5542" y2="2129.2168" gradientTransform="matrix(1 0 0 -1 702.3999 2580.0098)">
					<stop  offset="0" style="stop-color:#00D78A"/>
					<stop  offset="1" style="stop-color:#079FA8"/>
				</linearGradient>
				<path fill="url(#SVGID_13_)" d="M331.156,412.903c-20.916,0-37.891,16.975-37.891,37.891c0,20.915,16.975,37.89,37.891,37.89
					s37.892-16.975,37.892-37.89C369.047,429.878,352.072,412.903,331.156,412.903z"/>
			</g>
		</g>
		<g>
			<g>
				
					<linearGradient id="SVGID_14_" gradientUnits="userSpaceOnUse" x1="-687.179" y1="1763.2725" x2="967.5541" y2="1763.2725" gradientTransform="matrix(1 0 0 -1 702.3999 2580.0098)">
					<stop  offset="0" style="stop-color:#00D78A"/>
					<stop  offset="1" style="stop-color:#079FA8"/>
				</linearGradient>
				<path fill="url(#SVGID_14_)" d="M1930.142,867.589h-45.317c-14.162-109.14-48.386-213.146-102.092-309.584
					c-10.182-18.278-33.252-24.853-51.538-14.671c-18.282,10.181-24.854,33.257-14.671,51.539
					c47.393,85.114,78.229,176.676,91.891,272.717h-29.834c-20.928,0-37.891,16.963-37.891,37.891v151.563
					c0,20.927,16.963,37.891,37.891,37.891h151.563c20.927,0,37.891-16.964,37.891-37.891V905.479
					C1968.031,884.553,1951.069,867.589,1930.142,867.589z M1892.25,1019.151h-75.78V943.37h34.396c0.013,0,0.026,0,0.038,0
					c0.016,0,0.026,0,0.041,0h41.305V1019.151z"/>
			</g>
		</g>
		<g>
			<g>
				
					<linearGradient id="SVGID_15_" gradientUnits="userSpaceOnUse" x1="-687.1794" y1="1386.5605" x2="967.5546" y2="1386.5605" gradientTransform="matrix(1 0 0 -1 702.3999 2580.0098)">
					<stop  offset="0" style="stop-color:#00D78A"/>
					<stop  offset="1" style="stop-color:#079FA8"/>
				</linearGradient>
				<path fill="url(#SVGID_15_)" d="M1414.76,1142.754c-0.023-0.587-0.039-1.175-0.088-1.761c-0.068-0.804-0.178-1.596-0.295-2.384
					c-0.073-0.485-0.131-0.972-0.226-1.455c-0.175-0.93-0.401-1.838-0.641-2.743c-0.091-0.346-0.163-0.689-0.265-1.031
					c-0.338-1.133-0.731-2.243-1.172-3.331c-0.049-0.116-0.083-0.242-0.133-0.359c-0.521-1.266-1.109-2.496-1.762-3.687
					l-378.898-693.381c-6.642-12.155-19.393-19.718-33.255-19.718c-13.856,0-26.606,7.563-33.249,19.722l-378.896,693.38
					c-0.652,1.19-1.239,2.422-1.763,3.688c-0.049,0.116-0.083,0.238-0.132,0.358c-0.439,1.088-0.833,2.198-1.17,3.331
					c-0.104,0.343-0.175,0.687-0.266,1.031c-0.243,0.904-0.467,1.812-0.642,2.742c-0.091,0.48-0.146,0.967-0.224,1.456
					c-0.118,0.788-0.227,1.58-0.295,2.383c-0.05,0.587-0.07,1.175-0.087,1.762c-0.02,0.479-0.072,0.947-0.072,1.434
					c0,0.25,0.034,0.488,0.038,0.738c0.011,0.595,0.049,1.187,0.091,1.78c0.049,0.755,0.11,1.504,0.205,2.247
					c0.068,0.521,0.15,1.041,0.239,1.564c0.137,0.817,0.3,1.629,0.489,2.429c0.105,0.451,0.224,0.901,0.349,1.35
					c0.239,0.863,0.511,1.712,0.807,2.55c0.083,0.239,0.137,0.481,0.228,0.722l136.647,362.114
					c-10.961,5.435-21.101,12.65-30.009,21.557c-21.476,21.477-33.302,50.02-33.302,80.369c0,49.395,31.681,91.514,75.781,107.153
					v207.337c0,20.928,16.963,37.892,37.891,37.892h454.693c20.927,0,37.891-16.964,37.891-37.892V1728.83
					c15.796-5.573,30.281-14.646,42.482-26.85c21.473-21.477,33.298-50.02,33.298-80.369c0-44.607-25.838-83.275-63.326-101.876
					l136.668-362.164c0.091-0.239,0.144-0.481,0.228-0.722c0.295-0.838,0.568-1.687,0.808-2.55c0.125-0.446,0.237-0.897,0.348-1.35
					c0.19-0.8,0.351-1.61,0.489-2.429c0.087-0.523,0.175-1.042,0.239-1.564c0.095-0.743,0.153-1.492,0.204-2.247
					c0.037-0.595,0.078-1.187,0.091-1.78c0.004-0.246,0.038-0.488,0.038-0.738C1414.83,1143.705,1414.778,1143.235,1414.76,1142.754
					z M998.029,1106.3c20.9,0,37.897,16.998,37.897,37.892c0,20.893-16.997,37.891-37.897,37.891
					c-20.893,0-37.89-16.998-37.89-37.891C960.139,1123.298,977.136,1106.3,998.029,1106.3z M1187.489,1898.211H808.575v-162.929
					h378.912L1187.489,1898.211L1187.489,1898.211z M1252.163,1648.392c-7.161,7.165-16.676,11.109-26.784,11.109H770.686
					c-20.893,0-37.891-16.997-37.891-37.891c0-10.108,3.943-19.623,11.105-26.78c7.165-7.165,16.675-11.11,26.785-11.11h454.438
					c0.086,0,0.168,0.013,0.252,0.013c0.041,0,0.088-0.005,0.129-0.005c20.835,0.068,37.769,17.032,37.769,37.884
					C1263.27,1631.72,1259.323,1641.234,1252.163,1648.392z M1199.178,1507.939H796.887l-122.966-325.858h96.765
					c20.927,0,37.891-16.964,37.891-37.892c0-20.927-16.963-37.891-37.891-37.891h-87.679L960.138,599.15v437.886
					c-44.102,15.641-75.781,57.757-75.781,107.154c0,62.679,50.993,113.672,113.671,113.672c62.687,0,113.68-50.993,113.68-113.672
					c0-49.396-31.681-91.515-75.781-107.154V599.15l277.131,507.148h-87.678c-20.929,0-37.892,16.964-37.892,37.892
					c0,20.927,16.963,37.891,37.892,37.891h96.765L1199.178,1507.939z"/>
			</g>
		</g>
		<g>
			<g>
				
					<linearGradient id="SVGID_16_" gradientUnits="userSpaceOnUse" x1="-687.179" y1="1763.2754" x2="967.5541" y2="1763.2754" gradientTransform="matrix(1 0 0 -1 702.3999 2580.0098)">
					<stop  offset="0" style="stop-color:#00D78A"/>
					<stop  offset="1" style="stop-color:#079FA8"/>
				</linearGradient>
				<path fill="url(#SVGID_16_)" d="M264.865,543.333c-18.285-10.185-41.36-3.615-51.538,14.671
					c-53.702,96.439-87.93,200.445-102.089,309.584H65.923c-20.927,0-37.892,16.963-37.892,37.891v151.563
					c0,20.927,16.964,37.891,37.892,37.891h151.562c20.928,0,37.891-16.964,37.891-37.891V905.479
					c0-20.927-16.963-37.89-37.891-37.89h-29.839c13.667-96.041,44.499-187.604,91.893-272.717
					C289.719,576.59,283.153,553.515,264.865,543.333z M179.594,1019.151h-75.781V943.37h41.305c0.015,0,0.026,0,0.042,0
					c0.012,0,0.025,0,0.037,0h34.397V1019.151z"/>
			</g>
		</g>
	</g>
	<g display="inline">
		<g>
			
				<linearGradient id="SVGID_17_" gradientUnits="userSpaceOnUse" x1="-687.179" y1="2372.2266" x2="967.5541" y2="2372.2266" gradientTransform="matrix(1 0 0 -1 702.3999 2580.0098)">
				<stop  offset="0" style="stop-color:#00D78A"/>
				<stop  offset="1" style="stop-color:#079FA8"/>
			</linearGradient>
			<path fill="url(#SVGID_17_)" d="M1854.361,33.998c-49.394,0-91.513,31.68-107.153,75.781h-635.5v-37.89
				c0-20.927-16.964-37.891-37.891-37.891H922.248c-20.928,0-37.891,16.963-37.891,37.891v37.891h-635.5
				c-15.642-44.102-57.761-75.781-107.153-75.781c-62.68,0-113.673,50.993-113.673,113.672c0,62.678,50.993,113.671,113.673,113.671
				c49.394,0,91.513-31.681,107.153-75.781h380.928c-80.815,33.817-154.93,77.717-215.934,129.146
				c-16.001,13.489-18.036,37.395-4.547,53.392c7.495,8.893,18.207,13.47,28.986,13.47c8.625,0,17.293-2.925,24.401-8.919
				c108.715-91.649,263.862-157.105,421.665-179.06v29.862c0,20.927,16.963,37.891,37.891,37.891h151.568
				c20.927,0,37.891-16.964,37.891-37.891V193.59c157.804,21.954,312.949,87.41,421.664,179.056
				c7.108,5.994,15.778,8.923,24.402,8.919c10.783,0,21.494-4.577,28.986-13.47c13.492-15.993,11.453-39.897-4.549-53.388
				c-61.002-51.429-135.116-95.329-215.934-129.146h380.93c15.641,44.1,57.756,75.781,107.152,75.781
				c62.68,0,113.672-50.993,113.672-113.671C1968.031,84.991,1917.039,33.998,1854.361,33.998z M141.704,185.561
				c-20.894,0-37.892-16.998-37.892-37.891s16.998-37.891,37.892-37.891c20.892,0,37.89,16.998,37.89,37.891
				S162.596,185.561,141.704,185.561z M1035.926,147.67v3.41v34.48h-75.788v-34.48v-3.41v-37.891h75.788V147.67z M1854.361,185.561
				c-20.893,0-37.891-16.998-37.891-37.891s16.998-37.891,37.891-37.891c20.894,0,37.892,16.998,37.892,37.891
				C1892.25,168.563,1875.252,185.561,1854.361,185.561z"/>
		</g>
	</g>
</g>
<g display="none">
	<g display="inline">
		<g>
			
				<linearGradient id="SVGID_18_" gradientUnits="userSpaceOnUse" x1="-687.179" y1="2374.6816" x2="846.33" y2="2374.6816" gradientTransform="matrix(1 0 0 -1 702.3999 2580.0098)">
				<stop  offset="0" style="stop-color:#00D78A"/>
				<stop  offset="1" style="stop-color:#079FA8"/>
			</linearGradient>
			<path fill="url(#SVGID_18_)" d="M799.211,168.148h-267.7c-20.53,0-37.179,16.646-37.179,37.18
				c0,20.535,16.648,37.18,37.179,37.18h267.7c20.53,0,37.18-16.645,37.18-37.18S819.741,168.148,799.211,168.148z"/>
		</g>
	</g>
	<g display="inline">
		<g>
			
				<linearGradient id="SVGID_19_" gradientUnits="userSpaceOnUse" x1="-687.179" y1="806.563" x2="846.33" y2="806.563" gradientTransform="matrix(1 0 0 -1 702.3999 2580.0098)">
				<stop  offset="0" style="stop-color:#00D78A"/>
				<stop  offset="1" style="stop-color:#079FA8"/>
			</linearGradient>
			<path fill="url(#SVGID_19_)" d="M691.643,1747.16c-6.913-6.92-16.503-10.896-26.284-10.896s-19.371,3.979-26.288,10.896
				c-6.917,6.918-10.892,16.508-10.892,26.289c0,9.779,3.976,19.371,10.892,26.287c6.917,6.918,16.507,10.893,26.288,10.893
				s19.371-3.979,26.284-10.893c6.917-6.916,10.896-16.509,10.896-26.287C702.539,1763.631,698.564,1754.074,691.643,1747.16z"/>
		</g>
	</g>
	<g display="inline">
		<g>
			
				<linearGradient id="SVGID_20_" gradientUnits="userSpaceOnUse" x1="-687.1785" y1="1579.0205" x2="846.3301" y2="1579.0205" gradientTransform="matrix(1 0 0 -1 702.3999 2580.0098)">
				<stop  offset="0" style="stop-color:#00D78A"/>
				<stop  offset="1" style="stop-color:#079FA8"/>
			</linearGradient>
			<path fill="url(#SVGID_20_)" d="M1727.66,1231.045l-136.796-236.931c56.093-51.97,71.056-137.728,31.242-206.685
				c-22.383-38.764-58.515-66.494-101.756-78.078c-30.988-8.308-62.97-7.553-92.879,1.76l-136.769-236.887
				c-6.176-10.694-17.262-17.63-29.586-18.497c-12.33-0.881-24.271,4.444-31.883,14.165l-425.823,543.781L624.705,1116.85
				c-101.975,58.871-137.033,189.732-78.159,291.707c28.522,49.4,74.567,84.734,129.668,99.494
				c18.396,4.933,37.063,7.371,55.612,7.371c37.001,0,73.52-9.703,106.426-28.705l21.282-12.285l74.23,128.566H137.398V361.484
				h1055.923v11.152c0,20.535,16.648,37.18,37.18,37.18c20.532,0,37.181-16.645,37.181-37.18V195.143
				c0-80.488-65.482-145.975-145.976-145.975H209.013c-80.492,0-145.975,65.483-145.975,145.975v1611.693
				c0,80.488,65.482,145.975,145.975,145.975h912.7c80.487,0,145.975-65.481,145.975-145.975V1347.99l433.008-61.549
				c12.229-1.736,22.795-9.431,28.199-20.537C1734.293,1254.803,1733.838,1241.74,1727.66,1231.045z M137.398,195.143
				c0-39.489,32.126-71.612,71.612-71.612h912.699c39.486,0,71.611,32.123,71.611,71.612v91.979H137.398V195.143z M1501.108,781.179
				c24.053,6.445,44.152,21.87,56.604,43.436c19.093,33.069,15.537,73.095-5.801,102.03l-85.485-148.068
				C1477.895,777.271,1489.621,778.1,1501.108,781.179z M801.073,1422.32c-32.196,18.59-69.715,23.522-105.614,13.903
				c-35.908-9.625-65.922-32.649-84.512-64.852c-38.371-66.463-15.519-151.758,50.942-190.129l152.75-88.191l139.169,241.082
				L801.073,1422.32z M923.937,1437.25l67.052-38.711l87.839,152.137l-67.051,38.711L923.937,1437.25z M1193.321,1806.832
				c0,39.49-32.125,71.611-71.61,71.611H209.013c-39.485,0-71.612-32.121-71.612-71.611v-129.475h1055.923v129.475H1193.321z
				 M1193.321,1602.998h-56.399l11.276-6.516c17.783-10.265,23.879-33.004,13.607-50.789l-97.457-168.805l128.973-18.334V1602.998z
				 M1024.297,1307.475L872.998,1045.42l270.418-345.328l315.045,545.669L1024.297,1307.475z M1537.811,1234.482L1192.84,636.975
				l60.998-77.894l381.906,661.479L1537.811,1234.482z"/>
		</g>
	</g>
	<g display="inline">
		<g>
			
				<linearGradient id="SVGID_21_" gradientUnits="userSpaceOnUse" x1="-687.179" y1="1916.3438" x2="846.33" y2="1916.3438" gradientTransform="matrix(1 0 0 -1 702.3999 2580.0098)">
				<stop  offset="0" style="stop-color:#00D78A"/>
				<stop  offset="1" style="stop-color:#079FA8"/>
			</linearGradient>
			<path fill="url(#SVGID_21_)" d="M1962.031,592.45c-10.268-17.779-32.998-23.878-50.786-13.607l-182.302,105.255
				c-17.782,10.265-23.879,33.004-13.606,50.787c6.891,11.925,19.383,18.594,32.233,18.594c6.308,0,12.699-1.606,18.554-4.986
				l182.301-105.254C1966.209,632.973,1972.303,610.233,1962.031,592.45z"/>
		</g>
	</g>
	<g display="inline">
		<g>
			
				<linearGradient id="SVGID_22_" gradientUnits="userSpaceOnUse" x1="-687.1716" y1="2065.2891" x2="846.3298" y2="2065.2891" gradientTransform="matrix(1 0 0 -1 702.3999 2580.0098)">
				<stop  offset="0" style="stop-color:#00D78A"/>
				<stop  offset="1" style="stop-color:#079FA8"/>
			</linearGradient>
			<path fill="url(#SVGID_22_)" d="M1625.51,429.209c-19.84-5.317-40.217,6.459-45.535,26.292l-26.578,99.193
				c-5.316,19.839,6.455,40.226,26.291,45.539c3.225,0.862,6.459,1.275,9.646,1.275c16.414,0,31.438-10.956,35.889-27.566
				l26.58-99.193C1657.116,454.909,1645.346,434.523,1625.51,429.209z"/>
		</g>
	</g>
	<g display="inline">
		<g>
			
				<linearGradient id="SVGID_23_" gradientUnits="userSpaceOnUse" x1="-687.179" y1="1642.2344" x2="846.33" y2="1642.2344" gradientTransform="matrix(1 0 0 -1 702.3999 2580.0098)">
				<stop  offset="0" style="stop-color:#00D78A"/>
				<stop  offset="1" style="stop-color:#079FA8"/>
			</linearGradient>
			<path fill="url(#SVGID_23_)" d="M1909.471,915.595l-102.51-27.47c-19.838-5.317-40.218,6.459-45.535,26.292
				c-5.318,19.835,6.455,40.222,26.291,45.539l102.51,27.471c3.225,0.863,6.459,1.275,9.646,1.275
				c16.413,0,31.438-10.956,35.889-27.568C1941.076,941.296,1929.307,920.906,1909.471,915.595z"/>
		</g>
	</g>
	<g display="inline">
		<g>
			
				<linearGradient id="SVGID_24_" gradientUnits="userSpaceOnUse" x1="-687.1785" y1="2072.8965" x2="846.3291" y2="2072.8965" gradientTransform="matrix(1 0 0 -1 702.3999 2580.0098)">
				<stop  offset="0" style="stop-color:#00D78A"/>
				<stop  offset="1" style="stop-color:#079FA8"/>
			</linearGradient>
			<path fill="url(#SVGID_24_)" d="M768.227,469.933H255.181c-20.531,0-37.179,16.646-37.179,37.181s16.647,37.18,37.179,37.18
				H768.23c20.532,0,37.18-16.645,37.18-37.18S788.758,469.933,768.227,469.933z"/>
		</g>
	</g>
	<g display="inline">
		<g>
			
				<linearGradient id="SVGID_25_" gradientUnits="userSpaceOnUse" x1="-687.179" y1="1894.4258" x2="846.33" y2="1894.4258" gradientTransform="matrix(1 0 0 -1 702.3999 2580.0098)">
				<stop  offset="0" style="stop-color:#00D78A"/>
				<stop  offset="1" style="stop-color:#079FA8"/>
			</linearGradient>
			<path fill="url(#SVGID_25_)" d="M794.526,659.298c-6.917-6.954-16.508-10.896-26.288-10.896c-9.817,0-19.371,3.941-26.288,10.896
				c-6.954,6.917-10.892,16.507-10.892,26.287s3.942,19.371,10.892,26.288c6.917,6.913,16.471,10.892,26.288,10.892
				c9.78,0,19.371-3.979,26.288-10.892c6.913-6.917,10.893-16.508,10.893-26.288S801.443,666.215,794.526,659.298z"/>
		</g>
	</g>
	<g display="inline">
		<g>
			
				<linearGradient id="SVGID_26_" gradientUnits="userSpaceOnUse" x1="-687.1785" y1="1894.4316" x2="846.3287" y2="1894.4316" gradientTransform="matrix(1 0 0 -1 702.3999 2580.0098)">
				<stop  offset="0" style="stop-color:#00D78A"/>
				<stop  offset="1" style="stop-color:#079FA8"/>
			</linearGradient>
			<path fill="url(#SVGID_26_)" d="M614.547,648.398H255.181c-20.531,0-37.179,16.645-37.179,37.18
				c0,20.534,16.647,37.179,37.179,37.179h359.366c20.53,0,37.18-16.645,37.18-37.179
				C651.727,665.043,635.077,648.398,614.547,648.398z"/>
		</g>
	</g>
	<g display="inline">
		<g>
			
				<linearGradient id="SVGID_27_" gradientUnits="userSpaceOnUse" x1="-687.179" y1="1715.9668" x2="846.33" y2="1715.9668" gradientTransform="matrix(1 0 0 -1 702.3999 2580.0098)">
				<stop  offset="0" style="stop-color:#00D78A"/>
				<stop  offset="1" style="stop-color:#079FA8"/>
			</linearGradient>
			<path fill="url(#SVGID_27_)" d="M679.896,826.863H397.998c-20.53,0-37.18,16.645-37.18,37.18s16.646,37.179,37.18,37.179h281.895
				c20.531,0,37.18-16.645,37.18-37.179C717.072,843.508,700.427,826.863,679.896,826.863z"/>
		</g>
	</g>
	<g display="inline">
		<g>
			
				<linearGradient id="SVGID_28_" gradientUnits="userSpaceOnUse" x1="-687.179" y1="1715.9668" x2="846.3301" y2="1715.9668" gradientTransform="matrix(1 0 0 -1 702.3999 2580.0098)">
				<stop  offset="0" style="stop-color:#00D78A"/>
				<stop  offset="1" style="stop-color:#079FA8"/>
			</linearGradient>
			<path fill="url(#SVGID_28_)" d="M256.594,826.863h-1.726c-20.531,0-37.181,16.645-37.181,37.18s16.649,37.179,37.181,37.179
				h1.726c20.531,0,37.18-16.645,37.18-37.179C293.774,843.508,277.125,826.863,256.594,826.863z"/>
		</g>
	</g>
</g>
<g display="none">
	
		<linearGradient id="SVGID_29_" gradientUnits="userSpaceOnUse" x1="-741.1829" y1="1419.1816" x2="987.0817" y2="1419.1816" gradientTransform="matrix(1 0 0 -1 702.3999 2580.0098)">
		<stop  offset="0" style="stop-color:#00D78A"/>
		<stop  offset="1" style="stop-color:#079FA8"/>
	</linearGradient>
	<path display="inline" fill="url(#SVGID_29_)" d="M716.495,927.393c-8.856-14.868-28.086-19.743-42.95-10.883l-364.999,217.401
		c-9.487,5.649-15.303,15.876-15.303,26.915c0,11.043,5.815,21.27,15.298,26.919l364.998,217.401
		c5.026,2.994,10.549,4.421,16.004,4.421c10.679,0,21.09-5.466,26.946-15.305c8.855-14.868,3.98-34.099-10.883-42.949
		l-319.806-190.487L705.61,970.343C720.478,961.491,725.353,942.261,716.495,927.393L716.495,927.393z"/>
	
		<linearGradient id="SVGID_30_" gradientUnits="userSpaceOnUse" x1="-741.1838" y1="1419.1797" x2="987.0826" y2="1419.1797" gradientTransform="matrix(1 0 0 -1 702.3999 2580.0098)">
		<stop  offset="0" style="stop-color:#00D78A"/>
		<stop  offset="1" style="stop-color:#079FA8"/>
	</linearGradient>
	<path display="inline" fill="url(#SVGID_30_)" d="M1282.047,1394.264c5.861,9.843,16.269,15.305,26.945,15.305
		c5.456,0,10.979-1.427,16.004-4.42l365-217.402c9.487-5.653,15.299-15.876,15.299-26.919c0-11.039-5.816-21.267-15.299-26.915
		l-365-217.402c-14.862-8.855-34.102-3.985-42.949,10.883c-8.856,14.868-3.98,34.1,10.885,42.95l319.803,190.483l-319.803,190.486
		C1278.062,1360.165,1273.187,1379.396,1282.047,1394.264z"/>
	
		<linearGradient id="SVGID_31_" gradientUnits="userSpaceOnUse" x1="-741.1824" y1="1419.1816" x2="987.0819" y2="1419.1816" gradientTransform="matrix(1 0 0 -1 702.3999 2580.0098)">
		<stop  offset="0" style="stop-color:#00D78A"/>
		<stop  offset="1" style="stop-color:#079FA8"/>
	</linearGradient>
	<path display="inline" fill="url(#SVGID_31_)" d="M1119.252,925.96l-291.99,434.803c-9.646,14.362-5.823,33.831,8.543,43.481
		c5.363,3.601,11.435,5.323,17.441,5.323c10.09,0,19.994-4.868,26.039-13.871l291.989-434.804c9.646-14.362,5.824-33.83-8.543-43.48
		C1148.359,907.766,1128.895,911.597,1119.252,925.96L1119.252,925.96z"/>
	
		<linearGradient id="SVGID_32_" gradientUnits="userSpaceOnUse" x1="-741.1838" y1="1544.5117" x2="987.0828" y2="1544.5117" gradientTransform="matrix(1 0 0 -1 702.3999 2580.0098)">
		<stop  offset="0" style="stop-color:#00D78A"/>
		<stop  offset="1" style="stop-color:#079FA8"/>
	</linearGradient>
	<path display="inline" fill="url(#SVGID_32_)" d="M1949.688,147.744H48.851c-17.308,0-31.332,14.028-31.332,31.333v1712.842
		c0,17.304,14.024,31.332,31.332,31.332h1900.836c17.31,0,31.334-14.028,31.334-31.332v-334.213
		c0-17.304-14.024-31.332-31.334-31.332c-17.308,0-31.332,14.028-31.332,31.332v302.882H80.183V461.069h1838.172v971.307
		c0,17.305,14.024,31.333,31.332,31.333c17.31,0,31.334-14.028,31.334-31.333V179.077
		C1981.022,161.772,1966.996,147.744,1949.688,147.744z M80.183,210.409h1159.303v187.996H80.183V210.409z M1302.151,398.404
		V210.409h616.205v187.996h-616.205V398.404z"/>
	
		<linearGradient id="SVGID_33_" gradientUnits="userSpaceOnUse" x1="-741.1833" y1="2275.6035" x2="987.083" y2="2275.6035" gradientTransform="matrix(1 0 0 -1 702.3999 2580.0098)">
		<stop  offset="0" style="stop-color:#00D78A"/>
		<stop  offset="1" style="stop-color:#079FA8"/>
	</linearGradient>
	<path display="inline" fill="url(#SVGID_33_)" d="M1611.299,270.985c-18.43,0-33.424,14.994-33.424,33.422
		c0,18.427,14.994,33.421,33.424,33.421c18.427,0,33.42-14.994,33.42-33.421C1644.719,285.979,1629.726,270.985,1611.299,270.985z"
		/>
	
		<linearGradient id="SVGID_34_" gradientUnits="userSpaceOnUse" x1="-741.1624" y1="2275.6035" x2="987.0789" y2="2275.6035" gradientTransform="matrix(1 0 0 -1 702.3999 2580.0098)">
		<stop  offset="0" style="stop-color:#00D78A"/>
		<stop  offset="1" style="stop-color:#079FA8"/>
	</linearGradient>
	<path display="inline" fill="url(#SVGID_34_)" d="M1440.014,270.985c-18.428,0-33.422,14.994-33.422,33.422
		c0,18.427,14.994,33.421,33.422,33.421s33.421-14.994,33.421-33.421C1473.435,285.979,1458.442,270.985,1440.014,270.985z"/>
	
		<linearGradient id="SVGID_35_" gradientUnits="userSpaceOnUse" x1="-741.1838" y1="2275.6035" x2="987.0828" y2="2275.6035" gradientTransform="matrix(1 0 0 -1 702.3999 2580.0098)">
		<stop  offset="0" style="stop-color:#00D78A"/>
		<stop  offset="1" style="stop-color:#079FA8"/>
	</linearGradient>
	<path display="inline" fill="url(#SVGID_35_)" d="M1782.582,270.985c-18.429,0-33.422,14.994-33.422,33.422
		c0,18.427,14.993,33.421,33.422,33.421c18.428,0,33.42-14.994,33.42-33.421C1816.002,285.979,1801.01,270.985,1782.582,270.985z"/>
</g>
<g>
	<path fill="#FFFFFF" d="M1888.871,464.987c-0.197-0.725-0.593-1.382-0.822-2.104c-0.689-2.039-1.446-4.012-2.532-5.854
		c-0.525-0.921-1.249-1.71-1.874-2.599c-1.053-1.479-2.139-2.927-3.42-4.21c-0.856-0.854-1.811-1.546-2.73-2.302
		c-0.888-0.724-1.645-1.545-2.599-2.171c-0.525-0.329-1.15-0.493-1.677-0.789c-0.493-0.263-0.855-0.691-1.35-0.921L1016.758,16.483
		c-0.297-0.131-0.624-0.065-0.92-0.23c-4.244-1.973-8.849-3.256-13.813-3.256s-9.571,1.283-13.78,3.256
		c-0.297,0.132-0.625,0.066-0.921,0.23L132.214,444.038c-0.494,0.263-0.855,0.658-1.349,0.921c-0.559,0.296-1.15,0.46-1.678,0.789
		c-0.986,0.625-1.71,1.48-2.598,2.171c-0.954,0.756-1.875,1.447-2.729,2.269c-1.284,1.284-2.369,2.731-3.421,4.212
		c-0.625,0.887-1.349,1.677-1.875,2.598c-1.085,1.842-1.841,3.849-2.532,5.887c-0.229,0.725-0.625,1.349-0.821,2.104
		c-0.756,2.729-1.185,5.559-1.185,8.453v1052.441c0,0.198,0.099,0.396,0.099,0.594c0,0.657,0.229,1.281,0.263,1.906
		c0.263,3.354,1.053,6.579,2.269,9.604c0.23,0.524,0.133,1.116,0.396,1.644c0.263,0.592,0.724,1.021,1.052,1.578
		c0.823,1.516,1.743,2.896,2.796,4.276c0.854,1.149,1.71,2.271,2.697,3.257c1.118,1.117,2.334,2.104,3.617,3.059
		c1.184,0.921,2.368,1.811,3.65,2.532c0.493,0.264,0.855,0.688,1.35,0.921l855.108,427.557c0.493,0.229,1.021,0.131,1.514,0.359
		c4.209,1.907,8.649,3.158,13.188,3.158c4.538,0,8.979-1.251,13.188-3.126c0.491-0.229,1.052-0.131,1.512-0.36l855.111-427.556
		c11.147-5.558,18.188-16.938,18.188-29.403V473.44C1890.024,470.545,1889.627,467.717,1888.871,464.987z M236.503,1484.542
		c-7.599-16.479-27.133-23.68-43.645-16.083l-13.057,6.02V524.845l789.333,364.311v1011.068l-746.807-373.421
		C237.26,1518.55,243.772,1500.296,236.503,1484.542z M1002.025,111.662c11.61,0,21.313-6.348,27.166-15.425l752.036,376.019
		L1034.912,816.7v-14.372c0-18.155-14.733-32.889-32.889-32.889s-32.89,14.732-32.89,32.889V816.7L222.822,472.256L974.858,96.237
		C980.711,105.314,990.414,111.662,1002.025,111.662z M1034.912,1182.623l53.807,24.83c4.473,2.071,9.144,3.025,13.748,3.025
		c12.432,0,24.338-7.104,29.896-19.143c7.599-16.477,0.396-36.046-16.082-43.643l-59.727-27.563
		c-7.071-3.257-14.603-3.322-21.642-1.545V889.155l789.332-364.311v949.634l-51.011-23.551
		c-16.478-7.596-36.046-0.426-43.644,16.084c-7.631,16.478-0.428,36.015,16.082,43.646l35.554,16.411l-746.313,373.155V1182.623
		L1034.912,1182.623z"/>
	<path fill="#FFFFFF" d="M684.448,1310.689c4.638,0,9.309-0.953,13.748-3.024l59.727-27.562
		c16.478-7.597,23.713-27.167,16.083-43.644c-7.598-16.479-27.166-23.681-43.645-16.083l-59.726,27.562
		c-16.479,7.598-23.713,27.166-16.083,43.646C660.113,1303.62,672.018,1310.689,684.448,1310.689z"/>
	<path fill="#FFFFFF" d="M505.271,1393.374c4.604,0,9.307-0.954,13.747-3.025l59.727-27.562c16.478-7.6,23.681-27.166,16.082-43.646
		c-7.597-16.477-27.133-23.713-43.644-16.081l-59.726,27.562c-16.478,7.597-23.681,27.167-16.084,43.643
		C480.933,1386.302,492.839,1393.374,505.271,1393.374z"/>
	<path fill="#FFFFFF" d="M326.092,1476.088c4.638,0,9.308-0.984,13.748-3.058l59.726-27.563
		c16.478-7.597,23.712-27.166,16.083-43.643c-7.597-16.478-27.232-23.681-43.643-16.083l-59.728,27.561
		c-16.477,7.6-23.713,27.166-16.083,43.646C301.755,1469.018,313.659,1476.088,326.092,1476.088z"/>
	<path fill="#FFFFFF" d="M1474.604,1313.092l-59.727-27.562c-16.479-7.597-36.047-0.396-43.645,16.084
		c-7.596,16.477-0.395,36.046,16.084,43.643l59.727,27.563c4.474,2.07,9.144,3.024,13.746,3.024c12.434,0,24.338-7.07,29.896-19.108
		C1498.283,1340.258,1491.115,1320.723,1474.604,1313.092z"/>
	<path fill="#FFFFFF" d="M1653.781,1395.808l-59.726-27.561c-16.444-7.632-36.046-0.428-43.644,16.081
		c-7.632,16.479-0.429,36.014,16.082,43.645l59.727,27.563c4.473,2.071,9.143,3.025,13.748,3.025
		c12.432,0,24.337-7.07,29.861-19.109C1677.494,1422.974,1670.259,1403.438,1653.781,1395.808z"/>
	<path fill="#FFFFFF" d="M1295.426,1230.443l-59.728-27.563c-16.478-7.664-36.046-0.428-43.644,16.082
		c-7.63,16.479-0.428,36.014,16.083,43.646l59.726,27.561c4.475,2.072,9.143,3.025,13.748,3.025
		c12.432,0,24.338-7.072,29.863-19.108C1319.138,1257.576,1311.936,1238.04,1295.426,1230.443z"/>
	<path fill="#FFFFFF" d="M863.627,1227.977c4.604,0,9.309-0.953,13.748-3.026l59.727-27.561
		c16.479-7.599,23.68-27.166,16.083-43.645c-7.631-16.478-27.133-23.713-43.646-16.081l-59.726,27.559
		c-16.478,7.6-23.68,27.168-16.083,43.646C839.289,1220.904,851.196,1227.977,863.627,1227.977z"/>
	<path fill="#FFFFFF" d="M1002.025,308.995c18.154,0,32.89-14.734,32.89-32.889v-65.778c0-18.154-14.734-32.889-32.89-32.889
		s-32.89,14.735-32.89,32.889v65.778C969.135,294.261,983.869,308.995,1002.025,308.995z"/>
	<path fill="#FFFFFF" d="M1002.025,506.328c18.154,0,32.89-14.734,32.89-32.888v-65.778c0-18.155-14.734-32.889-32.89-32.889
		s-32.89,14.734-32.89,32.889v65.778C969.135,491.594,983.869,506.328,1002.025,506.328z"/>
	<path fill="#FFFFFF" d="M1002.025,703.662c18.154,0,32.89-14.734,32.89-32.889v-65.778c0-18.155-14.734-32.889-32.89-32.889
		s-32.89,14.732-32.89,32.889v65.778C969.135,688.927,983.869,703.662,1002.025,703.662z"/>
</g>
</svg>
