<?xml version="1.0" encoding="utf-8"?>
<!-- Generator: Adobe Illustrator 16.0.0, SVG Export Plug-In . SVG Version: 6.00 Build 0)  -->
<!DOCTYPE svg PUBLIC "-//W3C//DTD SVG 1.1//EN" "http://www.w3.org/Graphics/SVG/1.1/DTD/svg11.dtd">
<svg version="1.1" id="Capa_1" xmlns="http://www.w3.org/2000/svg" xmlns:xlink="http://www.w3.org/1999/xlink" x="0px" y="0px"
	 width="2000px" height="2000px" viewBox="0 0 2000 2000" enable-background="new 0 0 2000 2000" xml:space="preserve">
<g display="none">
	<g display="inline">
		<g>
			<linearGradient id="SVGID_1_" gradientUnits="userSpaceOnUse" x1="99.2297" y1="1000" x2="1774.3671" y2="1000">
				<stop  offset="0" style="stop-color:#00D78A"/>
				<stop  offset="1" style="stop-color:#079FA8"/>
			</linearGradient>
			<path fill="url(#SVGID_1_)" d="M1781.246,433.596c21.57,0,39.063-17.488,39.063-39.062V39.066
				c0-12.488-5.969-24.227-16.066-31.578c-10.094-7.355-23.102-9.438-34.984-5.602L1000,249.956L230.745,1.887
				c-11.902-3.836-24.891-1.754-34.984,5.602c-10.098,7.352-16.07,19.09-16.07,31.578v1669.935c0,16.953,10.938,31.973,27.074,37.18
				l781.247,251.933h0.004c3.875,1.25,7.918,1.887,11.988,1.887c4.02,0,8.063-0.621,11.984-1.883l781.246-251.933
				c16.137-5.207,27.074-20.223,27.074-37.18V711.614c0-21.574-17.492-39.063-39.063-39.063s-39.063,17.488-39.063,39.063v968.941
				l-703.122,226.737V319.444l703.122-226.738v301.827C1742.184,416.108,1759.676,433.596,1781.246,433.596z M960.938,1907.293
				l-703.122-226.737V92.707l703.122,226.738V1907.293z"/>
		</g>
	</g>
	<g display="inline">
		<g>
			<linearGradient id="SVGID_2_" gradientUnits="userSpaceOnUse" x1="99.2297" y1="550.7832" x2="1774.3671" y2="550.7832">
				<stop  offset="0" style="stop-color:#00D78A"/>
				<stop  offset="1" style="stop-color:#079FA8"/>
			</linearGradient>
			<path fill="url(#SVGID_2_)" d="M1808.86,523.166c-7.262-7.266-17.34-11.445-27.613-11.445s-20.352,4.18-27.617,11.445
				s-11.445,17.344-11.445,27.617s4.176,20.352,11.445,27.617s17.344,11.445,27.617,11.445s20.352-4.18,27.613-11.445
				c7.266-7.266,11.449-17.344,11.449-27.617S1816.129,530.432,1808.86,523.166z"/>
		</g>
	</g>
	<g display="inline">
		<g>
			<linearGradient id="SVGID_3_" gradientUnits="userSpaceOnUse" x1="99.2297" y1="654.0391" x2="1774.3669" y2="654.0391">
				<stop  offset="0" style="stop-color:#00D78A"/>
				<stop  offset="1" style="stop-color:#079FA8"/>
			</linearGradient>
			<path fill="url(#SVGID_3_)" d="M821.438,458.303L421.291,329.265c-11.902-3.832-24.891-1.754-34.984,5.601
				c-10.098,7.352-16.066,19.086-16.066,31.574v446.155c0,16.961,10.938,31.977,27.07,37.184l400.15,129.038
				c3.926,1.266,7.965,1.883,11.984,1.883c8.164,0,16.234-2.559,23-7.488c10.098-7.352,16.066-19.086,16.066-31.574V495.482
				C848.512,478.529,837.574,463.51,821.438,458.303z M770.391,887.996L448.365,784.153V420.084l322.025,103.843V887.996z"/>
		</g>
	</g>
	<g display="inline">
		<g>
			<linearGradient id="SVGID_4_" gradientUnits="userSpaceOnUse" x1="99.2297" y1="1116.5762" x2="1774.3669" y2="1116.5762">
				<stop  offset="0" style="stop-color:#00D78A"/>
				<stop  offset="1" style="stop-color:#079FA8"/>
			</linearGradient>
			<path fill="url(#SVGID_4_)" d="M821.442,1143.917l-400.15-129.038c-20.551-6.613-42.551,4.66-49.168,25.188
				c-6.617,20.531,4.656,42.547,25.188,49.168l400.15,129.038c3.988,1.285,8.027,1.895,11.996,1.895
				c16.5,0,31.832-10.539,37.172-27.086C853.25,1172.554,841.973,1150.538,821.442,1143.917z"/>
		</g>
	</g>
	<g display="inline">
		<g>
			<linearGradient id="SVGID_5_" gradientUnits="userSpaceOnUse" x1="99.2297" y1="1332.709" x2="1774.3669" y2="1332.709">
				<stop  offset="0" style="stop-color:#00D78A"/>
				<stop  offset="1" style="stop-color:#079FA8"/>
			</linearGradient>
			<path fill="url(#SVGID_5_)" d="M821.442,1360.05l-400.15-129.039c-20.551-6.613-42.551,4.66-49.168,25.188
				c-6.617,20.531,4.656,42.547,25.188,49.168l400.15,129.038c3.988,1.285,8.027,1.895,11.996,1.895
				c16.5,0,31.832-10.539,37.172-27.086C853.25,1388.686,841.973,1366.674,821.442,1360.05z"/>
		</g>
	</g>
	<g display="inline">
		<g>
			<linearGradient id="SVGID_6_" gradientUnits="userSpaceOnUse" x1="99.2297" y1="1548.8398" x2="1774.3669" y2="1548.8398">
				<stop  offset="0" style="stop-color:#00D78A"/>
				<stop  offset="1" style="stop-color:#079FA8"/>
			</linearGradient>
			<path fill="url(#SVGID_6_)" d="M821.442,1576.182l-400.15-129.039c-20.551-6.613-42.551,4.66-49.168,25.188
				c-6.617,20.531,4.656,42.547,25.188,49.168l400.15,129.038c3.988,1.286,8.027,1.895,11.996,1.895
				c16.5,0,31.832-10.539,37.172-27.085C853.25,1604.814,841.973,1582.803,821.442,1576.182z"/>
		</g>
	</g>
	<g display="inline">
		<g>
			<linearGradient id="SVGID_7_" gradientUnits="userSpaceOnUse" x1="99.2297" y1="1325.7598" x2="1774.3669" y2="1325.7598">
				<stop  offset="0" style="stop-color:#00D78A"/>
				<stop  offset="1" style="stop-color:#079FA8"/>
			</linearGradient>
			<path fill="url(#SVGID_7_)" d="M1613.091,1006.586c-10.094-7.352-23.105-9.434-34.984-5.602l-400.146,129.039
				c-16.137,5.207-27.074,20.223-27.074,37.179v446.155c0,12.488,5.969,24.227,16.066,31.574c6.762,4.926,14.832,7.488,23,7.488
				c4.02,0,8.063-0.621,11.984-1.883l400.146-129.039c16.137-5.207,27.074-20.223,27.074-37.18v-446.154
				C1629.157,1025.676,1623.189,1013.938,1613.091,1006.586z M1551.033,1455.873l-322.023,103.844v-364.069l322.022-103.843
				L1551.033,1455.873L1551.033,1455.873z"/>
		</g>
	</g>
	<g display="inline">
		<g>
			<linearGradient id="SVGID_8_" gradientUnits="userSpaceOnUse" x1="99.2297" y1="863.2266" x2="1774.3669" y2="863.2266">
				<stop  offset="0" style="stop-color:#00D78A"/>
				<stop  offset="1" style="stop-color:#079FA8"/>
			</linearGradient>
			<path fill="url(#SVGID_8_)" d="M1627.271,786.716c-6.621-20.531-28.629-31.809-49.168-25.188l-400.146,129.038
				c-20.531,6.621-31.813,28.637-25.188,49.168c5.336,16.547,20.672,27.086,37.172,27.086c3.973,0,8.012-0.613,11.996-1.895
				l400.146-129.038C1622.615,829.259,1633.896,807.247,1627.271,786.716z"/>
		</g>
	</g>
	<g display="inline">
		<g>
			<linearGradient id="SVGID_9_" gradientUnits="userSpaceOnUse" x1="99.2297" y1="647.0947" x2="1774.3669" y2="647.0947">
				<stop  offset="0" style="stop-color:#00D78A"/>
				<stop  offset="1" style="stop-color:#079FA8"/>
			</linearGradient>
			<path fill="url(#SVGID_9_)" d="M1627.271,570.584c-6.621-20.531-28.629-31.809-49.168-25.188l-400.146,129.038
				c-20.531,6.621-31.813,28.637-25.188,49.168c5.336,16.547,20.672,27.086,37.172,27.086c3.973,0,8.012-0.613,11.996-1.895
				l400.146-129.038C1622.615,613.131,1633.896,591.119,1627.271,570.584z"/>
		</g>
	</g>
	<g display="inline">
		<g>
			<linearGradient id="SVGID_10_" gradientUnits="userSpaceOnUse" x1="99.2297" y1="430.9668" x2="1774.3669" y2="430.9668">
				<stop  offset="0" style="stop-color:#00D78A"/>
				<stop  offset="1" style="stop-color:#079FA8"/>
			</linearGradient>
			<path fill="url(#SVGID_10_)" d="M1627.271,354.456c-6.621-20.531-28.629-31.808-49.168-25.187l-400.146,129.038
				c-20.531,6.621-31.813,28.637-25.188,49.168c5.336,16.547,20.672,27.086,37.172,27.086c3.973,0,8.012-0.613,11.996-1.895
				l400.146-129.039C1622.615,396.999,1633.896,374.987,1627.271,354.456z"/>
		</g>
	</g>
</g>
<g display="none">
	<g display="inline">
		<linearGradient id="SVGID_11_" gradientUnits="userSpaceOnUse" x1="14.0491" y1="995.499" x2="1981.0002" y2="995.499">
			<stop  offset="0" style="stop-color:#00D78A"/>
			<stop  offset="1" style="stop-color:#079FA8"/>
		</linearGradient>
		<path fill="url(#SVGID_11_)" d="M1953.526,290.941L1702.054,39.469c-36.628-36.628-96.229-36.624-132.857,0l-473.474,473.47
			c-11.855,11.859-11.855,31.076,0,42.936c11.855,11.852,31.076,11.852,42.933,0l473.47-473.47
			c6.277-6.277,14.622-9.731,23.496-9.731c8.875,0,17.22,3.454,23.496,9.731l251.477,251.472c6.273,6.273,9.731,14.618,9.731,23.497
			c0,8.875-3.458,17.219-9.731,23.493l-61.715,61.715l-161.697-161.694c-11.855-11.852-31.076-11.852-42.932,0
			c-11.856,11.86-11.856,31.077,0,42.936l161.693,161.694l-70.508,70.508l-71.066-71.065c-11.855-11.852-31.075-11.852-42.932,0
			c-11.855,11.86-11.855,31.076,0,42.936l71.065,71.062l-70.509,70.508l-71.065-71.065c-11.855-11.852-31.076-11.852-42.931,0
			c-11.856,11.86-11.856,31.076,0,42.936l71.064,71.062l-70.509,70.508l-161.697-161.7c-11.852-11.849-31.076-11.856-42.932,0
			c-11.856,11.859-11.856,31.076,0,42.936l161.697,161.697l-70.508,70.508l-71.065-71.065c-11.856-11.852-31.076-11.852-42.933,0
			c-11.855,11.859-11.855,31.076,0,42.936l71.062,71.062l-59.647,59.648L994.065,700.461l55.515-55.518
			c11.854-11.86,11.854-31.077,0-42.937c-11.856-11.852-31.077-11.852-42.934,0l-55.517,55.518L391.119,97.534
			c-38.948-38.948-90.731-60.397-145.812-60.397C190.229,37.141,138.445,58.59,99.5,97.538c-38.952,38.948-60.4,90.728-60.4,145.811
			c0,55.08,21.449,106.863,60.397,145.811l559.999,559.999L41.52,1567.146c-36.628,36.631-36.628,96.229,0,132.86l251.472,251.477
			c17.741,17.741,41.334,27.515,66.429,27.515c25.094,0,48.687-9.773,66.428-27.515l617.983-617.983l44.015,44.016
			c11.856,11.853,31.075,11.853,42.932,0c11.855-11.859,11.855-31.076,0-42.936l-60.754-60.754c-1.18-1.868-2.562-3.643-4.188-5.269
			c-1.625-1.624-3.4-3.008-5.263-4.187L402.772,606.567l81.412-81.411l50.335,50.335c5.928,5.924,13.696,8.89,21.467,8.89
			c7.772,0,15.541-2.966,21.468-8.89c11.856-11.859,11.856-31.076,0-42.936l-50.331-50.332l81.412-81.411l321.093,321.093
			c0.012,0.016,0.023,0.027,0.038,0.043c0.016,0.015,0.027,0.023,0.042,0.039l338.388,338.389c0.837,1.106,1.73,2.19,2.74,3.2
			c1.01,1.011,2.09,1.901,3.195,2.739l450.521,450.519l-81.412,81.412l-454.545-454.545c-0.273-0.297-0.521-0.608-0.808-0.893
			l-181.263-181.268c-0.3-0.299-0.626-0.561-0.935-0.845L685.404,640.514c-11.855-11.852-31.076-11.852-42.932,0
			c-11.855,11.859-11.855,31.076,0,42.936l957.726,957.725l-81.416,81.411l-288.503-288.507c-11.856-11.853-31.076-11.853-42.933,0
			c-11.855,11.859-11.855,31.076,0,42.936l309.971,309.972c2.947,2.946,6.597,5.324,10.481,6.831l366.806,142.411
			c5.786,2.243,11.817,3.334,17.804,3.334c12.839,0,25.447-5.024,34.856-14.44c13.796-13.804,18.137-34.473,11.064-52.659
			l-142.562-366.639c-1.506-3.872-3.884-7.529-6.827-10.468l-453.48-453.481l618.066-618.072
			C1990.157,387.17,1990.157,327.573,1953.526,290.941z M1000.911,1290.568l-59.575,59.56l-71.065-71.065
			c-11.855-11.853-31.076-11.853-42.932,0c-11.856,11.859-11.856,31.076,0,42.936l71.065,71.065l-70.508,70.508l-161.697-161.697
			c-11.856-11.852-31.077-11.852-42.932,0c-11.856,11.86-11.856,31.076,0,42.937l161.697,161.697l-70.508,70.508l-71.065-71.065
			c-11.856-11.852-31.076-11.852-42.932,0c-11.856,11.859-11.856,31.076,0,42.937l71.065,71.062l-70.508,70.509l-71.065-71.065
			c-11.856-11.853-31.077-11.853-42.932,0c-11.856,11.859-11.856,31.076,0,42.935l71.065,71.065l-70.509,70.509l-161.698-161.697
			c-11.855-11.852-31.075-11.852-42.931,0c-11.856,11.86-11.856,31.076,0,42.937l161.697,161.693l-61.714,61.714
			c-6.278,6.278-14.622,9.735-23.497,9.735s-17.219-3.457-23.497-9.735L84.464,1657.071c-12.954-12.955-12.954-34.034,0-46.989
			l617.979-617.983L1000.911,1290.568z M142.429,346.229c-56.728-56.728-56.728-149.031,0-205.758
			c56.728-56.732,149.031-56.732,205.758,0l95.953,95.952L238.382,442.181L142.429,346.229z M462.739,460.733
			c-0.008,0.007-0.016,0.011-0.02,0.019c-0.008,0.008-0.012,0.016-0.02,0.019l-102.86,102.86l-78.522-78.522l205.759-205.759
			l78.522,78.522L462.739,460.733z M1872.31,1870.202l-299.137-116.134l182.874-182.872L1872.31,1870.202z"/>
	</g>
</g>
<g display="none">
	<g display="inline">
		<g>
			<g>
				<linearGradient id="SVGID_12_" gradientUnits="userSpaceOnUse" x1="15.2214" y1="450.7939" x2="1669.9545" y2="450.7939">
					<stop  offset="0" style="stop-color:#00D78A"/>
					<stop  offset="1" style="stop-color:#079FA8"/>
				</linearGradient>
				<path fill="url(#SVGID_12_)" d="M1664.908,412.903c-20.916,0-37.89,16.975-37.89,37.891c0,20.915,16.974,37.89,37.89,37.89
					c20.915,0,37.891-16.975,37.891-37.89C1702.799,429.878,1685.823,412.903,1664.908,412.903z"/>
			</g>
		</g>
		<g>
			<g>
				<linearGradient id="SVGID_13_" gradientUnits="userSpaceOnUse" x1="15.2214" y1="450.7939" x2="1669.9546" y2="450.7939">
					<stop  offset="0" style="stop-color:#00D78A"/>
					<stop  offset="1" style="stop-color:#079FA8"/>
				</linearGradient>
				<path fill="url(#SVGID_13_)" d="M331.156,412.903c-20.916,0-37.891,16.975-37.891,37.891c0,20.915,16.975,37.89,37.891,37.89
					s37.891-16.975,37.891-37.89C369.047,429.878,352.072,412.903,331.156,412.903z"/>
			</g>
		</g>
		<g>
			<g>
				<linearGradient id="SVGID_14_" gradientUnits="userSpaceOnUse" x1="15.2214" y1="816.7373" x2="1669.9545" y2="816.7373">
					<stop  offset="0" style="stop-color:#00D78A"/>
					<stop  offset="1" style="stop-color:#079FA8"/>
				</linearGradient>
				<path fill="url(#SVGID_14_)" d="M1930.142,867.589h-45.317c-14.162-109.14-48.386-213.146-102.092-309.584
					c-10.181-18.278-33.252-24.853-51.538-14.671c-18.283,10.181-24.854,33.257-14.671,51.539
					c47.393,85.114,78.228,176.676,91.891,272.717h-29.834c-20.928,0-37.891,16.963-37.891,37.89v151.563
					c0,20.927,16.963,37.891,37.891,37.891h151.562c20.927,0,37.891-16.964,37.891-37.891V905.479
					C1968.032,884.553,1951.069,867.589,1930.142,867.589z M1892.251,1019.151h-75.781V943.37h34.397c0.012,0,0.026,0,0.038,0
					c0.016,0,0.026,0,0.041,0h41.305V1019.151z"/>
			</g>
		</g>
		<g>
			<g>
				<linearGradient id="SVGID_15_" gradientUnits="userSpaceOnUse" x1="15.2214" y1="1193.4473" x2="1669.9545" y2="1193.4473">
					<stop  offset="0" style="stop-color:#00D78A"/>
					<stop  offset="1" style="stop-color:#079FA8"/>
				</linearGradient>
				<path fill="url(#SVGID_15_)" d="M1414.76,1142.754c-0.023-0.587-0.039-1.175-0.088-1.761c-0.068-0.804-0.178-1.596-0.295-2.384
					c-0.073-0.485-0.13-0.971-0.225-1.455c-0.175-0.929-0.401-1.838-0.641-2.743c-0.09-0.346-0.163-0.689-0.265-1.031
					c-0.337-1.133-0.731-2.243-1.171-3.331c-0.049-0.116-0.083-0.242-0.133-0.359c-0.522-1.266-1.11-2.497-1.762-3.687
					l-378.898-693.381c-6.642-12.155-19.393-19.718-33.255-19.718c-13.856,0-26.606,7.563-33.249,19.722l-378.897,693.38
					c-0.652,1.19-1.239,2.422-1.762,3.688c-0.049,0.117-0.083,0.239-0.132,0.359c-0.439,1.088-0.833,2.198-1.17,3.331
					c-0.103,0.342-0.175,0.686-0.266,1.031c-0.243,0.904-0.466,1.811-0.641,2.742c-0.091,0.481-0.147,0.967-0.224,1.456
					c-0.118,0.788-0.227,1.58-0.295,2.383c-0.05,0.587-0.07,1.175-0.087,1.762c-0.019,0.478-0.072,0.947-0.072,1.433
					c0,0.25,0.034,0.489,0.038,0.739c0.011,0.594,0.049,1.186,0.091,1.78c0.049,0.755,0.11,1.504,0.205,2.247
					c0.068,0.522,0.15,1.041,0.239,1.564c0.137,0.818,0.3,1.629,0.489,2.429c0.106,0.451,0.224,0.902,0.349,1.35
					c0.239,0.863,0.511,1.712,0.807,2.55c0.083,0.239,0.136,0.481,0.227,0.721l136.648,362.115
					c-10.961,5.434-21.101,12.65-30.009,21.556c-21.476,21.477-33.302,50.02-33.302,80.369c0,49.395,31.681,91.514,75.781,107.154
					v207.337c0,20.927,16.963,37.891,37.891,37.891h454.693c20.927,0,37.891-16.964,37.891-37.891v-207.272
					c15.796-5.573,30.281-14.647,42.482-26.85c21.473-21.476,33.298-50.019,33.298-80.369c0-44.607-25.838-83.275-63.326-101.876
					l136.668-362.164c0.091-0.239,0.144-0.481,0.227-0.721c0.296-0.838,0.569-1.687,0.808-2.55c0.125-0.447,0.237-0.898,0.348-1.35
					c0.19-0.8,0.35-1.61,0.489-2.429c0.087-0.523,0.175-1.042,0.239-1.564c0.095-0.743,0.154-1.492,0.204-2.247
					c0.038-0.595,0.079-1.187,0.091-1.78c0.004-0.247,0.038-0.489,0.038-0.739
					C1414.831,1143.705,1414.778,1143.235,1414.76,1142.754z M998.029,1106.3c20.9,0,37.897,16.998,37.897,37.891
					s-16.997,37.891-37.897,37.891c-20.893,0-37.89-16.998-37.89-37.891S977.136,1106.3,998.029,1106.3z M1187.489,1898.211H808.576
					v-162.929h378.912V1898.211z M1252.164,1648.392c-7.162,7.165-16.676,11.109-26.785,11.109H770.686
					c-20.893,0-37.891-16.997-37.891-37.891c0-10.108,3.944-19.623,11.106-26.78c7.165-7.165,16.675-11.11,26.785-11.11h454.438
					c0.085,0,0.168,0.012,0.252,0.012c0.04,0,0.087-0.004,0.128-0.004c20.835,0.068,37.769,17.032,37.769,37.883
					C1263.27,1631.72,1259.324,1641.234,1252.164,1648.392z M1199.178,1507.939H796.887l-122.966-325.858h96.765
					c20.927,0,37.891-16.964,37.891-37.891s-16.963-37.891-37.891-37.891h-87.679L960.138,599.15v437.886
					c-44.101,15.641-75.781,57.757-75.781,107.154c0,62.679,50.993,113.672,113.671,113.672
					c62.686,0,113.679-50.993,113.679-113.672c0-49.395-31.68-91.514-75.781-107.154V599.15l277.131,507.149h-87.678
					c-20.928,0-37.891,16.964-37.891,37.891s16.963,37.891,37.891,37.891h96.765L1199.178,1507.939z"/>
			</g>
		</g>
		<g>
			<g>
				<linearGradient id="SVGID_16_" gradientUnits="userSpaceOnUse" x1="15.2214" y1="816.7354" x2="1669.9545" y2="816.7354">
					<stop  offset="0" style="stop-color:#00D78A"/>
					<stop  offset="1" style="stop-color:#079FA8"/>
				</linearGradient>
				<path fill="url(#SVGID_16_)" d="M264.866,543.333c-18.286-10.185-41.361-3.615-51.539,14.671
					c-53.702,96.439-87.929,200.445-102.088,309.584H65.923c-20.927,0-37.891,16.963-37.891,37.89v151.563
					c0,20.927,16.963,37.891,37.891,37.891h151.562c20.927,0,37.89-16.964,37.89-37.891V905.479c0-20.927-16.963-37.89-37.89-37.89
					h-29.839c13.667-96.041,44.499-187.604,91.892-272.717C289.719,576.59,283.153,553.515,264.866,543.333z M179.594,1019.151
					h-75.781V943.37h41.304c0.015,0,0.027,0,0.042,0c0.012,0,0.026,0,0.038,0h34.397V1019.151z"/>
			</g>
		</g>
	</g>
	<g display="inline">
		<g>
			<linearGradient id="SVGID_17_" gradientUnits="userSpaceOnUse" x1="15.2214" y1="207.7827" x2="1669.9545" y2="207.7827">
				<stop  offset="0" style="stop-color:#00D78A"/>
				<stop  offset="1" style="stop-color:#079FA8"/>
			</linearGradient>
			<path fill="url(#SVGID_17_)" d="M1854.361,33.998c-49.394,0-91.513,31.68-107.153,75.781h-635.5V71.889
				c0-20.927-16.964-37.891-37.891-37.891H922.248c-20.927,0-37.89,16.963-37.89,37.891v37.891h-635.5
				c-15.642-44.101-57.761-75.781-107.154-75.781c-62.679,0-113.672,50.993-113.672,113.672
				c0,62.678,50.993,113.671,113.672,113.671c49.394,0,91.513-31.681,107.154-75.781h380.928
				c-80.816,33.817-154.93,77.717-215.934,129.146c-16.001,13.489-18.036,37.395-4.547,53.392
				c7.495,8.893,18.207,13.47,28.987,13.47c8.624,0,17.292-2.925,24.401-8.919c108.715-91.649,263.862-157.105,421.665-179.06
				v29.862c0,20.927,16.963,37.891,37.89,37.891h151.569c20.927,0,37.891-16.964,37.891-37.891v-29.862
				c157.803,21.954,312.949,87.41,421.664,179.056c7.108,5.994,15.778,8.923,24.402,8.919c10.783,0,21.494-4.577,28.986-13.47
				c13.492-15.993,11.453-39.898-4.548-53.388c-61.003-51.429-135.117-95.329-215.934-129.146h380.929
				c15.641,44.1,57.756,75.781,107.153,75.781c62.679,0,113.672-50.993,113.672-113.671
				C1968.032,84.991,1917.039,33.998,1854.361,33.998z M141.704,185.561c-20.893,0-37.891-16.998-37.891-37.891
				c0-20.893,16.998-37.891,37.891-37.891c20.892,0,37.89,16.998,37.89,37.891C179.594,168.563,162.596,185.561,141.704,185.561z
				 M1035.926,147.67v3.41v34.48h-75.788v-34.48v-3.41v-37.891h75.788V147.67z M1854.361,185.561
				c-20.893,0-37.891-16.998-37.891-37.891c0-20.893,16.998-37.891,37.891-37.891s37.891,16.998,37.891,37.891
				C1892.251,168.563,1875.253,185.561,1854.361,185.561z"/>
		</g>
	</g>
</g>
<g display="none">
	<g display="inline">
		<g>
			<linearGradient id="SVGID_18_" gradientUnits="userSpaceOnUse" x1="15.2214" y1="205.3281" x2="1548.7303" y2="205.3281">
				<stop  offset="0" style="stop-color:#00D78A"/>
				<stop  offset="1" style="stop-color:#079FA8"/>
			</linearGradient>
			<path fill="url(#SVGID_18_)" d="M799.211,168.148h-267.7c-20.53,0-37.179,16.646-37.179,37.18
				c0,20.535,16.649,37.18,37.179,37.18h267.7c20.531,0,37.18-16.645,37.18-37.18C836.391,184.793,819.742,168.148,799.211,168.148z
				"/>
		</g>
	</g>
	<g display="inline">
		<g>
			<linearGradient id="SVGID_19_" gradientUnits="userSpaceOnUse" x1="15.2214" y1="1773.4473" x2="1548.7303" y2="1773.4473">
				<stop  offset="0" style="stop-color:#00D78A"/>
				<stop  offset="1" style="stop-color:#079FA8"/>
			</linearGradient>
			<path fill="url(#SVGID_19_)" d="M691.643,1747.16c-6.913-6.92-16.503-10.895-26.284-10.895s-19.371,3.979-26.288,10.895
				c-6.917,6.918-10.892,16.508-10.892,26.289c0,9.779,3.976,19.371,10.892,26.287c6.917,6.918,16.507,10.893,26.288,10.893
				s19.371-3.979,26.284-10.893c6.917-6.916,10.896-16.508,10.896-26.287C702.539,1763.631,698.564,1754.074,691.643,1747.16z"/>
		</g>
	</g>
	<g display="inline">
		<g>
			<linearGradient id="SVGID_20_" gradientUnits="userSpaceOnUse" x1="15.2214" y1="1000.9893" x2="1548.7303" y2="1000.9893">
				<stop  offset="0" style="stop-color:#00D78A"/>
				<stop  offset="1" style="stop-color:#079FA8"/>
			</linearGradient>
			<path fill="url(#SVGID_20_)" d="M1727.66,1231.045l-136.795-236.931c56.092-51.97,71.055-137.727,31.242-206.684
				c-22.383-38.764-58.514-66.494-101.756-78.078c-30.988-8.308-62.969-7.553-92.879,1.759l-136.768-236.886
				c-6.176-10.695-17.262-17.63-29.586-18.497c-12.33-0.881-24.271,4.444-31.883,14.165l-425.823,543.781L624.706,1116.85
				c-101.975,58.871-137.034,189.732-78.16,291.707c28.523,49.4,74.568,84.734,129.668,99.494
				c18.396,4.932,37.064,7.371,55.613,7.371c37.001,0,73.519-9.703,106.426-28.705l21.282-12.285l74.23,128.566H137.398V361.484
				h1055.923v11.152c0,20.535,16.648,37.18,37.18,37.18s37.18-16.645,37.18-37.18V195.143c0-80.488-65.482-145.975-145.975-145.975
				H209.013c-80.492,0-145.975,65.483-145.975,145.975v1611.693c0,80.488,65.483,145.975,145.975,145.975h912.7
				c80.488,0,145.975-65.482,145.975-145.975V1347.99l433.008-61.549c12.229-1.736,22.795-9.43,28.199-20.537
				C1734.293,1254.803,1733.838,1241.74,1727.66,1231.045z M137.398,195.143c0-39.489,32.126-71.612,71.612-71.612h912.7
				c39.486,0,71.611,32.123,71.611,71.612v91.979H137.398V195.143z M1501.108,781.179c24.053,6.445,44.152,21.87,56.604,43.435
				c19.092,33.07,15.537,73.095-5.801,102.03l-85.486-148.068C1477.895,777.271,1489.621,778.1,1501.108,781.179z M801.074,1422.32
				c-32.196,18.59-69.715,23.523-105.615,13.904c-35.908-9.625-65.921-32.65-84.511-64.852
				c-38.371-66.463-15.519-151.758,50.942-190.129l152.75-88.191l139.169,241.082L801.074,1422.32z M923.937,1437.25l67.052-38.711
				l87.839,152.137l-67.051,38.711L923.937,1437.25z M1193.321,1806.832c0,39.49-32.125,71.611-71.611,71.611H209.013
				c-39.485,0-71.612-32.121-71.612-71.611v-129.475h1055.923v129.475H1193.321z M1193.321,1602.998h-56.4l11.277-6.516
				c17.783-10.264,23.879-33.004,13.607-50.789l-97.457-168.805l128.973-18.334V1602.998z M1024.297,1307.475L872.998,1045.42
				l270.418-345.328l315.045,545.669L1024.297,1307.475z M1537.811,1234.482L1192.84,636.975l60.998-77.894l381.906,661.479
				L1537.811,1234.482z"/>
		</g>
	</g>
	<g display="inline">
		<g>
			<linearGradient id="SVGID_21_" gradientUnits="userSpaceOnUse" x1="15.2214" y1="663.666" x2="1548.7303" y2="663.666">
				<stop  offset="0" style="stop-color:#00D78A"/>
				<stop  offset="1" style="stop-color:#079FA8"/>
			</linearGradient>
			<path fill="url(#SVGID_21_)" d="M1962.031,592.45c-10.268-17.779-32.998-23.878-50.787-13.607l-182.301,105.255
				c-17.783,10.264-23.879,33.004-13.607,50.787c6.891,11.925,19.383,18.594,32.234,18.594c6.307,0,12.699-1.607,18.553-4.987
				l182.301-105.254C1966.209,632.973,1972.303,610.233,1962.031,592.45z"/>
		</g>
	</g>
	<g display="inline">
		<g>
			<linearGradient id="SVGID_22_" gradientUnits="userSpaceOnUse" x1="15.2214" y1="514.7207" x2="1548.7303" y2="514.7207">
				<stop  offset="0" style="stop-color:#00D78A"/>
				<stop  offset="1" style="stop-color:#079FA8"/>
			</linearGradient>
			<path fill="url(#SVGID_22_)" d="M1625.51,429.209c-19.84-5.317-40.217,6.459-45.535,26.292l-26.578,99.193
				c-5.316,19.839,6.455,40.226,26.291,45.539c3.225,0.863,6.459,1.276,9.646,1.276c16.414,0,31.438-10.956,35.889-27.567
				l26.58-99.193C1657.117,454.909,1645.346,434.523,1625.51,429.209z"/>
		</g>
	</g>
	<g display="inline">
		<g>
			<linearGradient id="SVGID_23_" gradientUnits="userSpaceOnUse" x1="15.2214" y1="937.7754" x2="1548.7303" y2="937.7754">
				<stop  offset="0" style="stop-color:#00D78A"/>
				<stop  offset="1" style="stop-color:#079FA8"/>
			</linearGradient>
			<path fill="url(#SVGID_23_)" d="M1909.471,915.595l-102.51-27.47c-19.838-5.317-40.217,6.459-45.535,26.292
				c-5.318,19.835,6.455,40.222,26.291,45.539l102.51,27.471c3.225,0.863,6.459,1.275,9.646,1.275
				c16.414,0,31.438-10.956,35.889-27.568C1941.076,941.296,1929.307,920.906,1909.471,915.595z"/>
		</g>
	</g>
	<g display="inline">
		<g>
			<linearGradient id="SVGID_24_" gradientUnits="userSpaceOnUse" x1="15.2214" y1="507.1133" x2="1548.7303" y2="507.1133">
				<stop  offset="0" style="stop-color:#00D78A"/>
				<stop  offset="1" style="stop-color:#079FA8"/>
			</linearGradient>
			<path fill="url(#SVGID_24_)" d="M768.227,469.933H255.181c-20.531,0-37.179,16.645-37.179,37.18
				c0,20.535,16.648,37.18,37.179,37.18H768.23c20.532,0,37.18-16.645,37.18-37.18C805.41,486.578,788.758,469.933,768.227,469.933z
				"/>
		</g>
	</g>
	<g display="inline">
		<g>
			<linearGradient id="SVGID_25_" gradientUnits="userSpaceOnUse" x1="15.2214" y1="685.584" x2="1548.7303" y2="685.584">
				<stop  offset="0" style="stop-color:#00D78A"/>
				<stop  offset="1" style="stop-color:#079FA8"/>
			</linearGradient>
			<path fill="url(#SVGID_25_)" d="M794.526,659.298c-6.917-6.954-16.508-10.896-26.288-10.896c-9.817,0-19.371,3.942-26.288,10.896
				c-6.954,6.917-10.892,16.507-10.892,26.287s3.942,19.371,10.892,26.288c6.917,6.913,16.471,10.892,26.288,10.892
				c9.78,0,19.371-3.979,26.288-10.892c6.913-6.917,10.892-16.508,10.892-26.288S801.443,666.215,794.526,659.298z"/>
		</g>
	</g>
	<g display="inline">
		<g>
			<linearGradient id="SVGID_26_" gradientUnits="userSpaceOnUse" x1="15.2214" y1="685.5781" x2="1548.7303" y2="685.5781">
				<stop  offset="0" style="stop-color:#00D78A"/>
				<stop  offset="1" style="stop-color:#079FA8"/>
			</linearGradient>
			<path fill="url(#SVGID_26_)" d="M614.547,648.398H255.181c-20.531,0-37.179,16.645-37.179,37.18
				c0,20.534,16.648,37.179,37.179,37.179h359.366c20.531,0,37.18-16.645,37.18-37.179
				C651.727,665.043,635.078,648.398,614.547,648.398z"/>
		</g>
	</g>
	<g display="inline">
		<g>
			<linearGradient id="SVGID_27_" gradientUnits="userSpaceOnUse" x1="15.2214" y1="864.043" x2="1548.7303" y2="864.043">
				<stop  offset="0" style="stop-color:#00D78A"/>
				<stop  offset="1" style="stop-color:#079FA8"/>
			</linearGradient>
			<path fill="url(#SVGID_27_)" d="M679.896,826.863H397.999c-20.531,0-37.18,16.645-37.18,37.18
				c0,20.535,16.645,37.179,37.18,37.179h281.894c20.531,0,37.18-16.645,37.18-37.179
				C717.072,843.508,700.427,826.863,679.896,826.863z"/>
		</g>
	</g>
	<g display="inline">
		<g>
			<linearGradient id="SVGID_28_" gradientUnits="userSpaceOnUse" x1="15.2214" y1="864.043" x2="1548.7305" y2="864.043">
				<stop  offset="0" style="stop-color:#00D78A"/>
				<stop  offset="1" style="stop-color:#079FA8"/>
			</linearGradient>
			<path fill="url(#SVGID_28_)" d="M256.594,826.863h-1.726c-20.531,0-37.18,16.645-37.18,37.18
				c0,20.535,16.649,37.179,37.18,37.179h1.726c20.531,0,37.18-16.645,37.18-37.179
				C293.774,843.508,277.125,826.863,256.594,826.863z"/>
		</g>
	</g>
</g>
<g display="none">
	<linearGradient id="SVGID_29_" gradientUnits="userSpaceOnUse" x1="-38.7839" y1="1160.8281" x2="1689.4827" y2="1160.8281">
		<stop  offset="0" style="stop-color:#00D78A"/>
		<stop  offset="1" style="stop-color:#079FA8"/>
	</linearGradient>
	<path display="inline" fill="url(#SVGID_29_)" d="M716.496,927.393c-8.857-14.869-28.086-19.744-42.951-10.883l-364.999,217.401
		c-9.487,5.649-15.303,15.876-15.303,26.915c0,11.043,5.816,21.27,15.298,26.919l364.999,217.402
		c5.026,2.994,10.548,4.42,16.004,4.42c10.678,0,21.089-5.466,26.946-15.304c8.855-14.868,3.98-34.099-10.883-42.95
		l-319.806-190.487L705.61,970.343C720.478,961.491,725.353,942.261,716.496,927.393L716.496,927.393z"/>
	<linearGradient id="SVGID_30_" gradientUnits="userSpaceOnUse" x1="-38.7839" y1="1160.8291" x2="1689.4825" y2="1160.8291">
		<stop  offset="0" style="stop-color:#00D78A"/>
		<stop  offset="1" style="stop-color:#079FA8"/>
	</linearGradient>
	<path display="inline" fill="url(#SVGID_30_)" d="M1282.047,1394.264c5.862,9.842,16.269,15.304,26.946,15.304
		c5.456,0,10.979-1.426,16.004-4.42l364.999-217.402c9.488-5.653,15.299-15.876,15.299-26.919c0-11.039-5.816-21.266-15.299-26.915
		L1324.997,916.51c-14.863-8.856-34.102-3.986-42.95,10.883c-8.856,14.868-3.98,34.099,10.885,42.95l319.803,190.483
		l-319.803,190.487C1278.062,1360.165,1273.187,1379.396,1282.047,1394.264z"/>
	<linearGradient id="SVGID_31_" gradientUnits="userSpaceOnUse" x1="-38.7839" y1="1160.8291" x2="1689.4827" y2="1160.8291">
		<stop  offset="0" style="stop-color:#00D78A"/>
		<stop  offset="1" style="stop-color:#079FA8"/>
	</linearGradient>
	<path display="inline" fill="url(#SVGID_31_)" d="M1119.252,925.96l-291.99,434.803c-9.646,14.362-5.823,33.831,8.543,43.481
		c5.364,3.601,11.435,5.323,17.442,5.323c10.089,0,19.994-4.868,26.039-13.871l291.989-434.803
		c9.646-14.363,5.824-33.831-8.543-43.481C1148.359,907.766,1128.895,911.597,1119.252,925.96L1119.252,925.96z"/>
	<linearGradient id="SVGID_32_" gradientUnits="userSpaceOnUse" x1="-38.7839" y1="1035.498" x2="1689.4827" y2="1035.498">
		<stop  offset="0" style="stop-color:#00D78A"/>
		<stop  offset="1" style="stop-color:#079FA8"/>
	</linearGradient>
	<path display="inline" fill="url(#SVGID_32_)" d="M1949.688,147.744H48.851c-17.308,0-31.332,14.028-31.332,31.333v1712.842
		c0,17.304,14.024,31.332,31.332,31.332h1900.836c17.31,0,31.334-14.028,31.334-31.332v-334.213
		c0-17.304-14.024-31.332-31.334-31.332c-17.307,0-31.332,14.028-31.332,31.332v302.882H80.183V461.069h1838.172v971.307
		c0,17.305,14.025,31.333,31.332,31.333c17.31,0,31.334-14.028,31.334-31.333V179.077
		C1981.022,161.772,1966.997,147.744,1949.688,147.744z M80.183,210.409h1159.303v187.996H80.183V210.409z M1302.151,398.404
		V210.409h616.205v187.996H1302.151z"/>
	<linearGradient id="SVGID_33_" gradientUnits="userSpaceOnUse" x1="-38.7839" y1="304.4063" x2="1689.4825" y2="304.4063">
		<stop  offset="0" style="stop-color:#00D78A"/>
		<stop  offset="1" style="stop-color:#079FA8"/>
	</linearGradient>
	<path display="inline" fill="url(#SVGID_33_)" d="M1611.299,270.985c-18.429,0-33.423,14.994-33.423,33.422
		c0,18.427,14.994,33.421,33.423,33.421c18.427,0,33.42-14.994,33.42-33.421C1644.719,285.979,1629.726,270.985,1611.299,270.985z"
		/>
	<linearGradient id="SVGID_34_" gradientUnits="userSpaceOnUse" x1="-38.7839" y1="304.4063" x2="1689.4825" y2="304.4063">
		<stop  offset="0" style="stop-color:#00D78A"/>
		<stop  offset="1" style="stop-color:#079FA8"/>
	</linearGradient>
	<path display="inline" fill="url(#SVGID_34_)" d="M1440.014,270.985c-18.428,0-33.422,14.994-33.422,33.422
		c0,18.427,14.994,33.421,33.422,33.421s33.421-14.994,33.421-33.421C1473.435,285.979,1458.442,270.985,1440.014,270.985z"/>
	<linearGradient id="SVGID_35_" gradientUnits="userSpaceOnUse" x1="-38.7839" y1="304.4063" x2="1689.4827" y2="304.4063">
		<stop  offset="0" style="stop-color:#00D78A"/>
		<stop  offset="1" style="stop-color:#079FA8"/>
	</linearGradient>
	<path display="inline" fill="url(#SVGID_35_)" d="M1782.582,270.985c-18.428,0-33.422,14.994-33.422,33.422
		c0,18.427,14.994,33.421,33.422,33.421s33.42-14.994,33.42-33.421C1816.002,285.979,1801.01,270.985,1782.582,270.985z"/>
</g>
<g>
	<linearGradient id="SVGID_36_" gradientUnits="userSpaceOnUse" x1="27.2224" y1="999.6611" x2="1636.1918" y2="999.6611">
		<stop  offset="0" style="stop-color:#00D78A"/>
		<stop  offset="1" style="stop-color:#079FA8"/>
	</linearGradient>
	<path fill="url(#SVGID_36_)" d="M1888.872,464.987c-0.197-0.724-0.593-1.381-0.822-2.104c-0.69-2.039-1.447-4.012-2.533-5.854
		c-0.525-0.921-1.249-1.71-1.874-2.598c-1.053-1.48-2.138-2.927-3.42-4.21c-0.856-0.855-1.81-1.546-2.73-2.302
		c-0.888-0.724-1.645-1.545-2.599-2.171c-0.525-0.329-1.15-0.493-1.676-0.789c-0.494-0.263-0.856-0.691-1.35-0.921l-855.11-427.555
		c-0.296-0.131-0.624-0.065-0.92-0.23c-4.244-1.973-8.848-3.256-13.813-3.256s-9.571,1.283-13.78,3.256
		c-0.297,0.132-0.625,0.066-0.921,0.23l-855.11,427.555c-0.494,0.263-0.855,0.658-1.348,0.921c-0.559,0.296-1.151,0.46-1.678,0.789
		c-0.986,0.625-1.71,1.48-2.598,2.171c-0.954,0.756-1.875,1.447-2.729,2.269c-1.284,1.284-2.369,2.731-3.421,4.211
		c-0.625,0.887-1.349,1.677-1.875,2.598c-1.085,1.842-1.841,3.849-2.532,5.887c-0.23,0.724-0.625,1.348-0.822,2.104
		c-0.756,2.73-1.184,5.559-1.184,8.453v1052.442c0,0.198,0.098,0.396,0.098,0.594c0,0.657,0.23,1.281,0.263,1.906
		c0.263,3.354,1.053,6.579,2.269,9.604c0.23,0.525,0.132,1.117,0.395,1.644c0.263,0.592,0.724,1.02,1.052,1.578
		c0.823,1.515,1.743,2.895,2.796,4.276c0.854,1.15,1.71,2.271,2.697,3.257c1.118,1.117,2.334,2.104,3.617,3.059
		c1.184,0.921,2.368,1.81,3.651,2.532c0.493,0.264,0.855,0.689,1.349,0.921l855.109,427.556c0.493,0.229,1.02,0.131,1.513,0.36
		c4.21,1.907,8.65,3.158,13.189,3.158c4.538,0,8.979-1.251,13.188-3.126c0.492-0.229,1.052-0.131,1.512-0.36l855.111-427.556
		c11.148-5.558,18.188-16.937,18.188-29.403V473.44C1890.024,470.545,1889.628,467.717,1888.872,464.987z M236.503,1484.542
		c-7.598-16.479-27.133-23.68-43.644-16.083l-13.057,6.019V524.845l789.333,364.31v1011.069l-746.807-373.421
		C237.26,1518.55,243.772,1500.296,236.503,1484.542z M1002.025,111.662c11.61,0,21.312-6.348,27.166-15.425l752.036,376.019
		L1034.913,816.7v-14.372c0-18.155-14.734-32.889-32.889-32.889c-18.155,0-32.89,14.733-32.89,32.889V816.7L222.822,472.256
		L974.858,96.237C980.712,105.314,990.414,111.662,1002.025,111.662z M1034.913,1182.623l53.806,24.83
		c4.473,2.071,9.144,3.025,13.748,3.025c12.432,0,24.338-7.104,29.896-19.142c7.598-16.477,0.396-36.046-16.082-43.643
		l-59.727-27.562c-7.071-3.257-14.602-3.322-21.641-1.545V889.155l789.332-364.31v949.633l-51.011-23.55
		c-16.477-7.596-36.046-0.426-43.644,16.084c-7.63,16.477-0.427,36.014,16.083,43.645l35.553,16.411l-746.313,373.156V1182.623z"/>
	<linearGradient id="SVGID_37_" gradientUnits="userSpaceOnUse" x1="27.2224" y1="1264.0215" x2="1636.1918" y2="1264.0215">
		<stop  offset="0" style="stop-color:#00D78A"/>
		<stop  offset="1" style="stop-color:#079FA8"/>
	</linearGradient>
	<path fill="url(#SVGID_37_)" d="M684.449,1310.69c4.638,0,9.308-0.954,13.748-3.025l59.726-27.561
		c16.478-7.597,23.713-27.167,16.083-43.644c-7.597-16.478-27.166-23.68-43.644-16.083l-59.726,27.562
		c-16.478,7.597-23.713,27.166-16.083,43.645C660.113,1303.62,672.018,1310.69,684.449,1310.69z"/>
	<linearGradient id="SVGID_38_" gradientUnits="userSpaceOnUse" x1="27.2224" y1="1346.6973" x2="1636.1918" y2="1346.6973">
		<stop  offset="0" style="stop-color:#00D78A"/>
		<stop  offset="1" style="stop-color:#079FA8"/>
	</linearGradient>
	<path fill="url(#SVGID_38_)" d="M505.271,1393.374c4.604,0,9.307-0.954,13.747-3.025l59.727-27.562
		c16.477-7.599,23.68-27.166,16.082-43.645c-7.597-16.477-27.133-23.713-43.644-16.081l-59.726,27.561
		c-16.477,7.597-23.68,27.167-16.083,43.643C480.933,1386.302,492.839,1393.374,505.271,1393.374z"/>
	<linearGradient id="SVGID_39_" gradientUnits="userSpaceOnUse" x1="27.2224" y1="1429.4023" x2="1636.1918" y2="1429.4023">
		<stop  offset="0" style="stop-color:#00D78A"/>
		<stop  offset="1" style="stop-color:#079FA8"/>
	</linearGradient>
	<path fill="url(#SVGID_39_)" d="M326.092,1476.088c4.638,0,9.308-0.984,13.748-3.058l59.726-27.562
		c16.478-7.597,23.712-27.166,16.083-43.643c-7.597-16.477-27.232-23.68-43.643-16.083l-59.727,27.561
		c-16.477,7.599-23.713,27.166-16.083,43.645C301.755,1469.018,313.66,1476.088,326.092,1476.088z"/>
	<linearGradient id="SVGID_40_" gradientUnits="userSpaceOnUse" x1="27.2224" y1="1329.1738" x2="1636.1918" y2="1329.1738">
		<stop  offset="0" style="stop-color:#00D78A"/>
		<stop  offset="1" style="stop-color:#079FA8"/>
	</linearGradient>
	<path fill="url(#SVGID_40_)" d="M1474.604,1313.092l-59.726-27.562c-16.479-7.596-36.047-0.395-43.645,16.084
		c-7.596,16.477-0.394,36.046,16.084,43.643l59.726,27.562c4.474,2.071,9.144,3.025,13.747,3.025
		c12.433,0,24.338-7.071,29.896-19.109C1498.284,1340.258,1491.115,1320.723,1474.604,1313.092z"/>
	<linearGradient id="SVGID_41_" gradientUnits="userSpaceOnUse" x1="27.2224" y1="1411.8809" x2="1636.1918" y2="1411.8809">
		<stop  offset="0" style="stop-color:#00D78A"/>
		<stop  offset="1" style="stop-color:#079FA8"/>
	</linearGradient>
	<path fill="url(#SVGID_41_)" d="M1653.782,1395.808l-59.726-27.561c-16.444-7.632-36.046-0.428-43.644,16.081
		c-7.631,16.479-0.428,36.014,16.082,43.645l59.727,27.562c4.473,2.071,9.143,3.025,13.748,3.025
		c12.432,0,24.337-7.07,29.862-19.109C1677.495,1422.974,1670.259,1403.438,1653.782,1395.808z"/>
	<linearGradient id="SVGID_42_" gradientUnits="userSpaceOnUse" x1="27.2224" y1="1246.5078" x2="1636.1918" y2="1246.5078">
		<stop  offset="0" style="stop-color:#00D78A"/>
		<stop  offset="1" style="stop-color:#079FA8"/>
	</linearGradient>
	<path fill="url(#SVGID_42_)" d="M1295.426,1230.443l-59.727-27.562c-16.478-7.664-36.046-0.428-43.644,16.082
		c-7.63,16.479-0.428,36.013,16.083,43.645l59.726,27.561c4.474,2.072,9.143,3.025,13.748,3.025
		c12.432,0,24.338-7.072,29.863-19.108C1319.138,1257.576,1311.936,1238.04,1295.426,1230.443z"/>
	<linearGradient id="SVGID_43_" gradientUnits="userSpaceOnUse" x1="27.2224" y1="1181.2998" x2="1636.1918" y2="1181.2998">
		<stop  offset="0" style="stop-color:#00D78A"/>
		<stop  offset="1" style="stop-color:#079FA8"/>
	</linearGradient>
	<path fill="url(#SVGID_43_)" d="M863.628,1227.977c4.604,0,9.308-0.954,13.748-3.027l59.726-27.56
		c16.478-7.599,23.68-27.166,16.083-43.645c-7.631-16.477-27.133-23.713-43.645-16.081l-59.726,27.559
		c-16.477,7.599-23.68,27.168-16.083,43.645C839.29,1220.904,851.196,1227.977,863.628,1227.977z"/>
	<linearGradient id="SVGID_44_" gradientUnits="userSpaceOnUse" x1="27.2224" y1="243.2173" x2="1636.1918" y2="243.2173">
		<stop  offset="0" style="stop-color:#00D78A"/>
		<stop  offset="1" style="stop-color:#079FA8"/>
	</linearGradient>
	<path fill="url(#SVGID_44_)" d="M1002.025,308.995c18.154,0,32.889-14.734,32.889-32.889v-65.778
		c0-18.154-14.734-32.889-32.889-32.889c-18.155,0-32.89,14.735-32.89,32.889v65.778
		C969.135,294.261,983.87,308.995,1002.025,308.995z"/>
	<linearGradient id="SVGID_45_" gradientUnits="userSpaceOnUse" x1="27.2224" y1="440.5508" x2="1636.1918" y2="440.5508">
		<stop  offset="0" style="stop-color:#00D78A"/>
		<stop  offset="1" style="stop-color:#079FA8"/>
	</linearGradient>
	<path fill="url(#SVGID_45_)" d="M1002.025,506.328c18.154,0,32.889-14.734,32.889-32.888v-65.778
		c0-18.155-14.734-32.889-32.889-32.889c-18.155,0-32.89,14.734-32.89,32.889v65.778
		C969.135,491.594,983.87,506.328,1002.025,506.328z"/>
	<linearGradient id="SVGID_46_" gradientUnits="userSpaceOnUse" x1="27.2224" y1="637.8838" x2="1636.1918" y2="637.8838">
		<stop  offset="0" style="stop-color:#00D78A"/>
		<stop  offset="1" style="stop-color:#079FA8"/>
	</linearGradient>
	<path fill="url(#SVGID_46_)" d="M1002.025,703.662c18.154,0,32.889-14.734,32.889-32.889v-65.778
		c0-18.155-14.734-32.889-32.889-32.889c-18.155,0-32.89,14.733-32.89,32.889v65.778
		C969.135,688.927,983.87,703.662,1002.025,703.662z"/>
</g>
</svg>
